<svg id="Capa_1" enable-background="new 0 0 512 512" height="512" viewBox="0 0 512 512" width="512" xmlns="http://www.w3.org/2000/svg"><g><path d="m216.518 61.439c26.53 26.53 37.353 63.276 41.713 91.139 3.425 21.887-15.429 40.741-37.316 37.316-27.863-4.36-64.609-15.183-91.139-41.713s-37.353-63.276-41.713-91.139c-3.425-21.887 15.429-40.741 37.316-37.316 27.863 4.36 64.609 15.183 91.139 41.713z" fill="#b0da87"/><path d="m258.231 152.578c-4.36-27.864-15.183-64.609-41.713-91.139-.299-.299-.607-.586-.908-.881-14.789 48.431-73.276 51.421-109.525 54.503 6.017 11.804 13.752 23.18 23.692 33.12 26.53 26.53 63.276 37.353 91.139 41.713 21.886 3.425 40.74-15.429 37.315-37.316z" fill="#89d47f"/><path d="m299.451 88.285c-26.53 26.53-37.353 63.276-41.713 91.139-3.425 21.887 15.429 40.741 37.316 37.316 27.863-4.36 64.609-15.183 91.139-41.713s37.353-63.276 41.713-91.139c3.424-21.888-15.43-40.742-37.316-37.316-27.864 4.36-64.609 15.183-91.139 41.713z" fill="#b0da87"/><path d="m417.109 125.513c-85.145-19.832-79.942-46.43-69.366-67.683-17.072 6.616-34.136 16.298-48.292 30.454-26.53 26.53-37.353 63.275-41.713 91.139-3.425 21.887 15.429 40.741 37.316 37.316 27.863-4.36 64.609-15.183 91.139-41.713 14.493-14.494 24.29-32.036 30.916-49.513z" fill="#89d47f"/><path d="m256 238.457c-14.728 0-26.666-11.939-26.666-26.666 0-24.153.798-56.315 7.016-90.922 7.507-41.777 21.488-78.406 41.554-108.869 8.102-12.299 24.639-15.702 36.938-7.6s15.702 24.639 7.6 36.938c-35.255 53.519-39.776 119.206-39.776 170.452 0 14.728-11.938 26.667-26.666 26.667z" fill="#b0da87"/><circle cx="256" cy="420.481" fill="#e68a97" r="91.519"/><g fill="#e26e7e"><ellipse cx="338.853" cy="386.163" rx="91.519" ry="91.519" transform="matrix(.707 -.707 .707 .707 -173.81 352.71)"/><circle cx="173.147" cy="386.163" r="91.519"/><circle cx="173.147" cy="220.457" r="91.519"/></g><circle cx="138.828" cy="303.31" fill="#e68a97" r="91.519"/><circle cx="338.853" cy="220.457" fill="#e26e7e" r="91.519"/><circle cx="373.172" cy="303.31" fill="#e68a97" r="91.519"/><ellipse cx="256" cy="303.31" fill="#eda1ab" rx="91.519" ry="91.519" transform="matrix(.707 -.707 .707 .707 -139.492 269.857)"/></g></svg>