<svg id="Capa_1" enable-background="new 0 0 512 512" height="512" viewBox="0 0 512 512" width="512" xmlns="http://www.w3.org/2000/svg"><g><g><path d="m444.002 53.518c-21.088-21.088-57.839-18.528-82.085 5.718-5.998 5.998-15.387 19.47-25.12 36.474-1.051 1.835-3.842.959-3.661-1.148.719-8.4 1.057-16.776 1.057-25.027 0-34.289-24.177-62.087-54-62.087s-54 27.797-54 62.087c0 23.747-1.546 82.344 58.952 142.842s119.095 58.952 142.842 58.952c34.29 0 62.087-24.177 62.087-54s-27.797-54-62.087-54c-8.251 0-16.628.338-25.028 1.057-2.107.18-2.983-2.611-1.148-3.661 17.003-9.734 30.475-19.122 36.473-25.12 24.246-24.248 26.806-60.998 5.718-82.087z" fill="#b0da87"/><path d="m387.219 210.817c-23.031-31.493-55.3-56.63-93.317-72.691-7.232-3.055-12.512-9.521-14.122-17.293-1.082-5.224-1.89-11.02-2.405-17.225-1.124-13.546-7.282-26.064-17.339-35.247-8.937-8.16-20.249-13.025-32.222-13.957-1.055 4.844-1.623 9.911-1.623 15.131 0 23.747-1.546 82.344 58.952 142.842 52.632 52.632 103.82 58.304 131.879 58.889-6.129-21.373-16.144-41.773-29.803-60.449z" fill="#89d47f"/><g fill="#89d47f"><path d="m280.191 101.101c-4.143 0-7.5-3.357-7.5-7.5v-29.256c0-4.143 3.357-7.5 7.5-7.5s7.5 3.357 7.5 7.5v29.256c0 4.142-3.357 7.5-7.5 7.5z"/><path d="m433.176 224.828h-29.256c-4.143 0-7.5-3.357-7.5-7.5s3.357-7.5 7.5-7.5h29.256c4.143 0 7.5 3.357 7.5 7.5s-3.358 7.5-7.5 7.5z"/><path d="m370.31 134.71c-1.92 0-3.839-.732-5.304-2.197-2.929-2.929-2.929-7.677.001-10.606l34.162-34.161c2.929-2.928 7.678-2.929 10.606.001 2.929 2.929 2.929 7.677-.001 10.606l-34.162 34.161c-1.464 1.463-3.384 2.196-5.302 2.196z"/></g><path d="m249.518 127.097c-1.312-6.332-2.306-13.274-2.942-20.935-.988-11.909-11.03-21.03-22.979-21.03h-53.944c-11.95 0-21.991 9.121-22.98 21.03-.636 7.66-1.63 14.602-2.942 20.935-3.658 17.66-15.745 32.479-32.358 39.497-65.897 27.841-111.373 86.946-111.373 155.37 0 95.204 88.032 132.05 196.624 132.05s196.624-36.846 196.624-132.05c0-68.424-45.476-127.529-111.373-155.369-16.612-7.019-28.7-21.838-32.357-39.498z" fill="#b0ade2"/><path d="m393.249 321.964c0-32.615-10.339-63.11-28.291-89.114l-151.749 151.749c-18.911 18.911-20.918 48.15-6.536 69.308 103.923-2.236 186.576-39.693 186.576-131.943z" fill="#a78cd6"/><path d="m506.601 212.842c7.722-9.119 7.072-22.67-1.378-31.12l-5.958-5.958c-7.243-7.243-18.985-7.243-26.228 0l-66.992 66.992c-.001.002-16.746 59.212-63.613 106.08-46.866 46.865-92.54 50.079-92.546 50.079l-11.18 11.18c-7.471 7.471-7.19 19.66.592 26.806 73.356 67.357 155.156 95.516 218.423 32.249 48.384-48.384 58.02-122.337 31.108-188.621-6.783-16.706-4.85-35.727 5.047-50.798 3.549-5.408 7.756-11.021 12.725-16.889z" fill="#b0ade2"/><path d="m249.885 398.915c35.169 35.169 112.592 87.476 168.834 31.234s43.834-130.885-12.675-187.393z" fill="#eda1ab"/><g fill="#e68a97"><path d="m326.611 407.836c-3.085 0-5.976-1.918-7.067-4.991-2.316-6.522-4.677-19.836-4.677-26.384 0-4.142 3.357-7.5 7.5-7.5s7.5 3.358 7.5 7.5c0 4.446 1.921 16.04 3.812 21.362 1.387 3.903-.653 8.191-4.557 9.578-.83.295-1.678.435-2.511.435z"/><path d="m387.639 409.222c-6.905 0-17.292-1.144-23.334-3.16-3.93-1.311-6.052-5.56-4.74-9.488 1.311-3.93 5.56-6.052 9.488-4.74 4.469 1.492 14.169 2.498 19.534 2.378 4.151-.077 7.577 3.183 7.673 7.323.097 4.142-3.183 7.576-7.323 7.673-.417.009-.851.014-1.298.014z"/><path d="m366.681 366.819c-2.999 0-5.831-1.812-6.988-4.773-.876-2.243-3.12-6.135-4.924-9.261-1.386-2.403-2.583-4.478-3.386-6.133-1.809-3.727-.254-8.213 3.473-10.021 3.729-1.81 8.214-.253 10.022 3.473.569 1.173 1.694 3.122 2.885 5.186 2.163 3.749 4.614 8 5.903 11.299 1.507 3.858-.399 8.208-4.258 9.715-.897.349-1.82.515-2.727.515z"/><path d="m416.637 366.819c-.616 0-1.242-.076-1.866-.236-6.861-1.758-16.03-7.22-18.678-8.852-3.525-2.174-4.621-6.794-2.447-10.32s6.793-4.622 10.32-2.447c4.649 2.866 10.945 6.17 14.527 7.088 4.013 1.028 6.432 5.114 5.404 9.127-.868 3.388-3.917 5.64-7.26 5.64z"/><path d="m388.865 317.861c-3.065 0-5.942-1.893-7.05-4.94-1.415-3.893.594-8.195 4.487-9.61 2.937-1.067 15.923-4.399 19.851-5.094 4.081-.724 7.97 2.003 8.691 6.081.721 4.079-2.002 7.97-6.081 8.69-3.53.624-15.572 3.779-17.337 4.42-.846.308-1.711.453-2.561.453z"/></g></g><g><g><path d="m142.784 268.05c.007 13.843-14.079 25.072-31.463 25.081-17.383.009-31.481-11.206-31.488-25.049s14.079-25.073 31.463-25.081c17.384-.01 31.481 11.205 31.488 25.049z" fill="#fff"/><path d="m250.441 267.996c.007 13.843 14.105 25.058 31.488 25.049s31.47-11.238 31.463-25.081-14.105-25.059-31.488-25.05-31.47 11.238-31.463 25.082z" fill="#fff"/><path d="m227.46 256.675c-.01-19.068-13.824-20.852-30.864-20.844-17.04.009-30.852 1.807-30.843 20.875.01 19.067 13.831 34.518 30.871 34.509 17.04-.008 30.846-15.472 30.836-34.54z" fill="#4e5660"/></g><g fill="#4e5660"><path d="m264.294 246.812c-.005 0-.009 0-.015 0-4.142-.008-7.493-3.372-7.485-7.515l.023-12.362c.008-4.137 3.364-7.485 7.5-7.485h.015c4.142.008 7.493 3.372 7.485 7.515l-.023 12.362c-.008 4.137-3.364 7.485-7.5 7.485z"/><path d="m149.352 245.681c-.006 0-.011 0-.017 0-4.142-.009-7.492-3.374-7.483-7.517.004-1.866-.719-3.622-2.035-4.944-1.317-1.323-3.07-2.054-4.937-2.058-.005 0-.011 0-.016 0-1.86 0-3.61.723-4.93 2.035-1.322 1.317-2.053 3.069-2.057 4.936-.009 4.137-3.365 7.484-7.5 7.484-.005 0-.01 0-.016 0-4.142-.009-7.493-3.373-7.484-7.516.012-5.873 2.312-11.39 6.474-15.534 4.15-4.132 9.657-6.405 15.512-6.405h.05c12.123.026 21.965 9.911 21.938 22.035-.008 4.136-3.365 7.484-7.499 7.484z"/></g></g></g></svg>