<svg id="Capa_1" enable-background="new 0 0 512 512" height="512" viewBox="0 0 512 512" width="512" xmlns="http://www.w3.org/2000/svg"><g><ellipse cx="238.922" cy="148.222" fill="#89d47f" rx="62.967" ry="99.395"/><path d="m0 247.617c0-21.882 27.923-40.67 60.429-48.815 1.736-.435 2.569-2.42 1.673-3.968-7.99-13.804-12.042-29.316-13.01-45.277-.971-16.019 12.998-29.014 28.883-26.736 71.047 10.189 104.734 60.712 104.734 124.796s-33.687 114.608-104.734 124.796c-15.886 2.278-29.854-10.717-28.883-26.736.968-15.961 5.021-31.474 13.01-45.277.896-1.549.063-3.533-1.673-3.968-32.506-8.145-60.429-26.934-60.429-48.815z" fill="#b0da87"/><path d="m182.709 247.617c0-61.14-30.665-109.935-95.18-123.138 51.395 88.358 54.023 149.169 33.549 234.838 41.643-21.037 61.631-62.344 61.631-111.7z" fill="#89d47f"/><path d="m198.972 139.941c-1.914-23.842 3.22-47.879 9.743-61.28 8.515-17.494 1.235-38.578-16.259-47.093s-38.182-1.037-47.093 16.259c-16.326 31.688-13.946 102.585 9.519 146.738 7.639 14.415 17.899 27.631 29.905 38.619 10.504 9.613 26.812 8.89 36.425-1.614 8.86-9.682 8.94-24.294.674-34.05-1.192-2.047-19.886-19.76-22.914-57.579z" fill="#b0da87"/><ellipse cx="426.688" cy="403.171" fill="#a78cd6" rx="79.47" ry="86.504" transform="matrix(.423 -.906 .906 .423 -119.036 619.492)"/><ellipse cx="381.206" cy="309.089" fill="#c6c4e9" rx="79.47" ry="86.504" transform="matrix(.707 -.707 .707 .707 -106.907 360.084)"/><path d="m347.78 230.494c-10.221 3.605-19.705 9.392-27.741 17.428-25.856 25.856-28.604 66.635-9.273 99.063 3.662-2.801 7.158-5.85 10.457-9.15 28.393-28.394 37.077-69.505 26.557-107.341z" fill="#b0ade2"/><ellipse cx="304.074" cy="397.816" fill="#b0ade2" rx="79.47" ry="86.504" transform="matrix(.707 -.707 .707 .707 -192.237 331.531)"/><path d="m241.768 298.702c33.782 33.782 36.009 86.327 4.973 117.362-31.035 31.035-83.58 28.808-117.362-4.973-33.782-33.782-33.276-83.594-2.241-114.629 31.037-31.035 80.848-31.542 114.63 2.24z" fill="#a78cd6"/><path d="m282.092 258.379c33.782 33.782 86.327 36.009 117.362 4.973 31.035-31.035 28.808-83.58-4.973-117.362-33.782-33.782-83.594-33.276-114.629-2.241-31.036 31.036-31.542 80.848 2.24 114.63z" fill="#b0ade2"/><path d="m316.25 176.766c-12.209-12.21-26.391-21.399-41.665-27.211-25.7 31.173-24.242 77.076 7.507 108.824 18.984 18.984 43.893 28.001 67.58 26.753 7.859-37.049-3.441-78.385-33.422-108.366z" fill="#a78cd6"/><path d="m294.397 198.619c33.782 33.782 36.009 86.327 4.974 117.362s-83.58 28.808-117.362-4.974-33.276-83.594-2.241-114.629c31.036-31.035 80.847-31.541 114.629 2.241z" fill="#c6c4e9"/><path d="m103.949 255.116h-43.103c-4.143 0-7.5-3.357-7.5-7.5s3.357-7.5 7.5-7.5h43.104c4.143 0 7.5 3.357 7.5 7.5-.001 4.143-3.358 7.5-7.501 7.5z" fill="#89d47f"/><path d="m238.922 140.279c-4.143 0-7.5-3.357-7.5-7.5v-32.164c0-4.143 3.357-7.5 7.5-7.5s7.5 3.357 7.5 7.5v32.164c0 4.143-3.358 7.5-7.5 7.5z" fill="#b0da87"/></g></svg>