<svg id="Capa_1" enable-background="new 0 0 512 512" height="512" viewBox="0 0 512 512" width="512" xmlns="http://www.w3.org/2000/svg"><g><path d="m318.139 419.472c0-49.535-27.821-73.672-62.139-73.672s-62.139 24.137-62.139 73.672 27.821 92.528 62.139 92.528 62.139-42.993 62.139-92.528z" fill="#f6ca8e"/><path d="m249.471 353.082c0-49.535 27.821-73.672 62.139-73.672s62.139 24.137 62.139 73.672-27.821 105.711-62.139 105.711-62.139-56.176-62.139-105.711z" fill="#fae0bd"/><path d="m262.529 353.082c0-49.535-27.821-73.672-62.139-73.672s-62.139 24.137-62.139 73.672 27.821 105.711 62.139 105.711 62.139-56.176 62.139-105.711z" fill="#e1ac9a"/><path d="m213.637 282.435c0-51.119-28.71-76.027-64.125-76.027s-64.125 24.908-64.125 76.027 28.71 109.091 64.125 109.091 64.125-57.972 64.125-109.091z" fill="#e7c7af"/><path d="m298.363 282.435c0-51.119 28.71-76.027 64.125-76.027 35.416 0 64.125 24.908 64.125 76.027s-28.71 109.091-64.125 109.091-64.125-57.972-64.125-109.091z" fill="#e7c7af"/><path d="m362.489 206.408c-35.415 0-64.126 24.908-64.126 76.027 0 8.835.859 17.876 2.461 26.786 11.803-5.636 22.465-13.489 31.403-23.212 18.564 15.427 41.715 23.825 66.158 23.827h.009c8.979 0 17.771-1.132 26.223-3.322 1.303-8.03 1.997-16.137 1.997-24.079 0-51.119-28.71-76.027-64.125-76.027z" fill="#e1b89a"/><path d="m149.511 206.408c-35.415 0-64.125 24.908-64.125 76.027 0 7.942.694 16.049 1.997 24.078 8.454 2.19 17.248 3.323 26.23 3.323 24.442 0 47.594-8.397 66.16-23.827 8.938 9.723 19.599 17.576 31.403 23.212 1.602-8.91 2.461-17.95 2.461-26.786 0-51.119-28.71-76.027-64.126-76.027z" fill="#e1b89a"/><path d="m322.821 285.631c0-53.268-29.917-79.223-66.821-79.223s-66.821 25.955-66.821 79.223 29.917 113.677 66.821 113.677 66.821-60.409 66.821-113.677z" fill="#fbf1cf"/><path d="m256 206.408c-36.904 0-66.821 25.955-66.821 79.223 0 3.2.111 6.426.322 9.662 18.277 15.3 41.601 24.023 66.5 24.023s48.222-8.724 66.5-24.024c.211-3.237.322-6.462.322-9.662-.002-53.267-29.919-79.222-66.823-79.222z" fill="#fae0bd"/><path d="m447.673 152.466c-29.651-28.387-74.331-45.806-191.673-45.806s-162.022 17.419-191.673 45.806c-29.341 28.09-31.236 75.338-2.895 104.437 28.376 29.135 75.002 29.368 103.671.7 3.345-3.345 6.295-6.935 8.85-10.712 4.221-6.239 13.555-5.446 16.93 1.289 11.953 23.855 36.617 40.231 65.116 40.231 28.5 0 53.163-16.377 65.117-40.231 3.375-6.735 12.709-7.528 16.93-1.289 2.555 3.777 5.505 7.367 8.85 10.712 28.669 28.669 75.295 28.435 103.671-.7 28.342-29.099 26.447-76.347-2.894-104.437z" fill="#e1ac9a"/><path d="m374.685 209.356c-1.92 0-3.839-.732-5.304-2.197-2.929-2.929-2.929-7.678.001-10.606l21.923-21.922c2.929-2.929 7.678-2.928 10.606.001 2.929 2.929 2.929 7.678-.001 10.606l-21.923 21.922c-1.464 1.464-3.383 2.196-5.302 2.196z" fill="#e1ac9a"/><path d="m64.327 152.466c-29.341 28.09-31.236 75.338-2.895 104.437 28.376 29.135 75.002 29.368 103.671.7 3.345-3.345 6.295-6.935 8.85-10.712 1.297-1.917 3.078-3.164 5.019-3.785-31.753-25.173-32.055-100.225-5.686-132.493-58.459 6.657-87.607 21.411-108.959 41.853z" fill="#d2896f"/><path d="m218.461 3.533c25.484 17.6 66.053 55.507 64.496 120.25-.348 14.482-12.477 26.645-26.957 26.244-13.711-.379-24.665-11.213-25.453-24.646-1.027-17.486-5.903-32.685-17.178-46.686-6.871-8.565-15.747-15.971-25.893-22.092-8.851-5.339-12.068-16.63-7.626-25.964l9.112-19.144c5.305-11.147 19.342-14.977 29.499-7.962z" fill="#fae0bd"/><g><path d="m374.685 206.267c-1.919 0-3.839-.732-5.304-2.196-2.929-2.93-2.929-7.678 0-10.607l21.923-21.923c2.93-2.928 7.678-2.928 10.607 0 2.929 2.93 2.929 7.678 0 10.607l-21.923 21.923c-1.465 1.463-3.384 2.196-5.303 2.196z" fill="#d2896f"/><path d="m242.274 222.483c-1.919 0-3.839-.732-5.303-2.196-2.929-2.929-2.929-7.678 0-10.606l27.451-27.452c2.93-2.93 7.679-2.929 10.606-.001 2.93 2.929 2.93 7.678.001 10.607l-27.452 27.452c-1.464 1.464-3.383 2.196-5.303 2.196z" fill="#d2896f"/><path d="m115.393 206.267c-1.92 0-3.839-.732-5.303-2.196-2.929-2.929-2.929-7.678 0-10.606l21.922-21.923c2.929-2.93 7.678-2.929 10.607-.001 2.929 2.929 2.929 7.678 0 10.607l-21.922 21.923c-1.465 1.463-3.385 2.196-5.304 2.196z" fill="#e1ac9a"/></g></g></svg>