<svg id="Capa_1" enable-background="new 0 0 511.996 511.996" height="512" viewBox="0 0 511.996 511.996" width="512" xmlns="http://www.w3.org/2000/svg"><g><path d="m220.993 170.591c0 60.237 18.362 186.441 32.912 243.821 4.118 16.238-4.659 33.013-20.404 38.731-14.628 5.311-33.893 9.355-55.302 9.355s-40.674-4.044-55.302-9.355c-15.746-5.717-24.522-22.493-20.404-38.731 14.55-57.38 32.912-183.584 32.912-243.821z" fill="#fae0bd"/><path d="m110.875 376.055c21.101 3.87 46.623 6.328 67.323 6.328 20.699 0 46.221-2.458 67.323-6.328-3.278-16.892-6.54-35.816-9.565-55.421h-115.516c-3.025 19.605-6.287 38.529-9.565 55.421z" fill="#f8d4a5"/><path d="m129.893 249.729c15.472 1.493 31.631 2.276 48.305 2.276s32.833-.783 48.305-2.276c-3.381-30.478-5.51-58.632-5.51-79.138h-85.59c0 20.507-2.129 48.66-5.51 79.138z" fill="#f8d4a5"/><path d="m178.198 181.096c43.279 0 114.234-8.01 174.427-16.188 4.818-7.341 5.092-14.314.402-19.981-24.052-29.066-98.51-106.957-174.83-106.957s-150.776 77.892-174.828 106.958c-4.689 5.667-4.415 12.64.402 19.981 60.193 8.178 131.148 16.187 174.427 16.187z" fill="#fbf1cf"/><g><g fill="#eda1ab"><ellipse cx="96.24" cy="128.722" rx="30.241" ry="24.082"/><ellipse cx="260.156" cy="128.722" rx="30.241" ry="24.082"/></g><g fill="#4e5660"><path d="m113.864 113.039c-4.143 0-7.5-3.358-7.5-7.5v-12.362c0-4.142 3.357-7.5 7.5-7.5s7.5 3.358 7.5 7.5v12.362c0 4.142-3.357 7.5-7.5 7.5z"/><path d="m242.531 113.039c-4.143 0-7.5-3.358-7.5-7.5v-12.362c0-4.142 3.357-7.5 7.5-7.5s7.5 3.358 7.5 7.5v12.362c0 4.142-3.357 7.5-7.5 7.5z"/><path d="m178.198 120.398c-8.668 0-16.911-3.754-22.615-10.299-2.722-3.123-2.396-7.86.727-10.582 3.122-2.722 7.859-2.397 10.582.726 2.855 3.276 6.976 5.154 11.307 5.154s8.452-1.878 11.307-5.154c2.722-3.122 7.46-3.448 10.582-.726 3.123 2.721 3.448 7.459.727 10.582-5.706 6.545-13.949 10.299-22.617 10.299z"/></g></g><path d="m178.198 302.058c12.825 0 38.864-2.156 53.986-7.117 7.588 6.917 15.992 14.678 23.374 21.238 7.791 6.923 4.54 19.771-5.607 22.154-21.341 5.013-50.528 7.994-71.753 7.994s-50.412-2.981-71.753-7.994c-10.147-2.383-13.398-15.231-5.607-22.154 7.382-6.56 15.787-14.321 23.375-21.238 15.121 4.961 41.16 7.117 53.985 7.117z" fill="#fbf1cf"/><path d="m178.198 215.949c96.318 0 158.927-27.423 174.427-51.04-49.321-5.464-131.148-7.809-174.427-7.809s-125.106 2.345-174.427 7.809c15.499 23.617 78.109 51.04 174.427 51.04z" fill="#e7c7af"/><path d="m396.721 225.519c0 51.281 15.632 158.721 28.019 207.569 3.505 13.824-3.966 28.105-17.371 32.972-12.453 4.522-28.853 7.964-47.08 7.964s-34.627-3.443-47.08-7.964c-13.405-4.867-20.876-19.149-17.371-32.972 12.387-48.849 28.018-156.288 28.018-207.569z" fill="#fae0bd"/><path d="m318.565 298.208c13.455 1.303 27.408 1.981 41.725 1.981s28.27-.678 41.724-1.981c-3.225-27.976-5.293-54.045-5.293-72.689h-72.864c0 18.644-2.067 44.713-5.292 72.689z" fill="#f8d4a5"/><path d="m360.289 112.618c64.972 0 128.359 66.309 148.835 91.054 16.836 20.346-41.351 60.462-148.835 60.462s-165.672-40.116-148.835-60.462c20.476-24.745 83.864-91.054 148.835-91.054z" fill="#fbf1cf"/><path d="m360.289 234.555c36.844 0 100.133-7.312 148.493-13.874 4.102-6.249 4.335-12.186.343-17.011-20.476-24.745-83.863-91.054-148.835-91.054s-128.359 66.31-148.836 91.054c-3.992 4.824-3.759 10.761.342 17.01 48.36 6.564 111.649 13.875 148.493 13.875z" fill="#fbf1cf"/><path d="m211.796 220.682c33.082 4.489 73.147 9.327 106.957 11.938-30.136-34.725-18.745-84.407 4.492-113.394-50.737 17.386-95.256 64.464-111.791 84.446-3.992 4.824-3.759 10.761.342 17.01z" fill="#fae0bd"/><path d="m360.289 264.133c81.997 0 135.298-23.346 148.493-43.451-41.988-4.652-111.649-6.648-148.493-6.648s-106.505 1.997-148.493 6.648c13.196 20.105 66.496 43.451 148.493 43.451z" fill="#e7c7af"/><path d="m307.344 214.937c-32.88 1-69.526 2.862-95.547 5.745 13.195 20.105 66.495 43.451 148.493 43.451 4.418 0 8.748-.072 12.998-.203 0-.001 0-.002 0-.003-35.998-9.797-56.391-28.031-65.944-48.99z" fill="#e1b89a"/></g></svg>