<svg id="Capa_1" enable-background="new 0 0 512 512" height="512" viewBox="0 0 512 512" width="512" xmlns="http://www.w3.org/2000/svg"><g><path d="m213.147 42.356c25.94 25.94 40.513 66.049 24.763 81.8-15.75 15.75-55.86 1.177-81.8-24.763s-27.888-53.424-12.138-69.174c15.751-15.751 43.235-13.803 69.175 12.137z" fill="#b0da87"/><path d="m390.024 189.68c47.618 43.237 63.053 103.635 63.053 166.536 0 103.629-123.853 131.904-181.32 152.983-10.181 3.734-21.333 3.734-31.514 0-57.467-21.079-181.32-49.354-181.32-152.983 0-62.901 15.435-123.299 63.053-166.536z" fill="#e1ac9a"/><path d="m256 293.094c47.839 0 131.999 23.538 191.278 1.507-8.109-39.698-25.535-76.119-57.254-104.92h-268.048c-31.716 28.799-49.142 65.215-57.252 104.909 59.445 22.059 144.379-1.496 191.276-1.496z" fill="#d2896f"/><path d="m256 126.284c-13.065 0-23.657-10.591-23.657-23.657 0-45.343 17.017-79.641 49.211-99.188 11.168-6.781 25.719-3.224 32.499 7.943 6.78 11.168 3.224 25.719-7.945 32.499-17.552 10.658-26.452 30.422-26.452 58.746.001 13.065-10.591 23.657-23.656 23.657z" fill="#d2896f"/><path d="m256 83.375c-15.451 0-31.836 4.842-44.234 13.078-4.079 2.71-9.195 3.323-13.827 1.736-30.157-10.328-64.163.33-82.843 27.018-2.51 3.586-6.317 5.996-10.629 6.751-34.055 5.962-59.941 35.66-59.941 71.422 0 93.754 141.828 48.506 211.473 48.506s211.473 45.248 211.473-48.506c0-35.763-25.887-65.46-59.941-71.422-4.312-.755-8.119-3.165-10.629-6.751-18.68-26.688-52.686-37.345-82.843-27.018-4.633 1.587-9.749.974-13.827-1.736-12.396-8.236-28.781-13.078-44.232-13.078z" fill="#f6ca8e"/><path d="m226.055 253.736c-77.177-23.825-71.016-123.916-45.658-159.195-25.029-2.025-50.184 9.068-65.3 30.666-2.51 3.586-6.317 5.996-10.629 6.751-34.054 5.962-59.941 35.66-59.941 71.422-.001 81.719 107.744 57.836 181.528 50.356z" fill="#f3a977"/><g><g fill="#fff"><ellipse cx="175.258" cy="378.168" rx="29.792" ry="23.725"/><ellipse cx="336.742" cy="378.168" rx="29.792" ry="23.725"/></g><g fill="#4e5660"><path d="m206.801 359.851c-4.143 0-7.5-3.358-7.5-7.5 0-3.684-2.996-6.68-6.68-6.68s-6.681 2.997-6.681 6.68c0 4.142-3.357 7.5-7.5 7.5s-7.5-3.358-7.5-7.5c0-11.955 9.726-21.68 21.681-21.68 11.954 0 21.68 9.726 21.68 21.68 0 4.142-3.358 7.5-7.5 7.5z"/><path d="m333.56 359.851c-4.143 0-7.5-3.358-7.5-7.5 0-3.684-2.997-6.68-6.681-6.68s-6.68 2.997-6.68 6.68c0 4.142-3.357 7.5-7.5 7.5s-7.5-3.358-7.5-7.5c0-11.955 9.726-21.68 21.68-21.68 11.955 0 21.681 9.726 21.681 21.68 0 4.142-3.358 7.5-7.5 7.5z"/><path d="m256 383.278c-7.933 0-15.477-3.436-20.696-9.426-2.722-3.122-2.396-7.86.727-10.582 3.122-2.721 7.859-2.397 10.582.727 2.37 2.72 5.792 4.28 9.388 4.28s7.018-1.56 9.388-4.28c2.721-3.124 7.457-3.448 10.582-.727 3.122 2.721 3.448 7.459.727 10.582-5.221 5.991-12.765 9.426-20.698 9.426z"/></g></g><g><path d="m241.903 192.949c-1.919 0-3.839-.732-5.304-2.197-2.929-2.929-2.929-7.678 0-10.607l28.193-28.194c2.93-2.929 7.678-2.929 10.607 0s2.929 7.678 0 10.606l-28.193 28.194c-1.464 1.465-3.384 2.198-5.303 2.198z" fill="#f3a977"/><path d="m118.739 210.136c-1.919 0-3.839-.732-5.304-2.197-2.929-2.929-2.929-7.678 0-10.607l28.193-28.193c2.93-2.929 7.678-2.929 10.607 0s2.929 7.678 0 10.606l-28.193 28.193c-1.464 1.465-3.384 2.198-5.303 2.198z" fill="#f6ca8e"/><path d="m365.067 210.136c-1.919 0-3.839-.732-5.304-2.197-2.929-2.929-2.929-7.678 0-10.607l28.193-28.193c2.93-2.929 7.678-2.929 10.607 0s2.929 7.678 0 10.606l-28.193 28.193c-1.464 1.465-3.384 2.198-5.303 2.198z" fill="#f3a977"/></g></g></svg>