<svg id="Capa_1" enable-background="new 0 0 512 512" height="512" viewBox="0 0 512 512" width="512" xmlns="http://www.w3.org/2000/svg"><g><path d="m304.846 58.212-19.063 108.113h-59.566l-19.063-108.113c-5.355-30.369 18.008-58.212 48.846-58.212 30.838 0 54.201 27.843 48.846 58.212z" fill="#64768e"/><path d="m207.842 62.112 18.375 104.213-12.79 4.443-78.987-66.278c-24.269-20.364-20.528-58.746 7.216-74.041 27.083-14.93 60.816 1.208 66.186 31.663z" fill="#565e75"/><path d="m131.285 101.842 82.143 68.926-13.014 31.699-107.235-18.908c-29.972-5.285-46.949-37.38-34.451-65.13 12.707-28.214 48.852-36.477 72.557-16.587z" fill="#64768e"/><path d="m304.158 62.112-18.375 104.213 12.79 4.443 78.987-66.278c24.269-20.364 20.528-58.746-7.216-74.041-27.083-14.93-60.816 1.208-66.186 31.663z" fill="#565e75"/><path d="m380.715 101.842-82.143 68.926 13.014 31.699 107.234-18.908c29.972-5.285 46.949-37.38 34.451-65.13-12.706-28.214-48.851-36.477-72.556-16.587z" fill="#64768e"/><path d="m224.201 512c-17.562 0-31.799-14.237-31.799-31.799v-65.781h63.598v65.781c0 17.562-14.237 31.799-31.799 31.799z" fill="#f2d98d"/><path d="m287.799 512c17.562 0 31.799-14.237 31.799-31.799v-65.781h-63.598v65.781c0 17.562 14.237 31.799 31.799 31.799z" fill="#f6ee86"/><path d="m427.11 312.573c0-78.204-76.609-141.601-171.11-141.601s-171.11 63.397-171.11 141.601 76.609 128.619 171.11 128.619 171.11-50.415 171.11-128.619z" fill="#64768e"/><path d="m256 170.973c-67.757 0-126.311 32.593-154.029 79.864 8.824 18.294 22.533 34.512 40.612 47.646 29.842 21.679 70.121 33.618 113.417 33.618s83.575-11.939 113.417-33.618c18.079-13.134 31.788-29.352 40.612-47.646-27.718-47.272-86.272-79.864-154.029-79.864z" fill="#565e75"/><path d="m308.757 246.526h-105.514v80.984c0 29.137 23.62 52.757 52.757 52.757 29.137 0 52.757-23.62 52.757-52.757z" fill="#e68a97"/><path d="m203.243 325.85c16.673 4.106 34.443 6.25 52.757 6.25s36.084-2.144 52.757-6.25v-79.325h-105.514z" fill="#e26e7e"/><path d="m390.708 199.553c0-61.611-46.272-129.075-134.708-129.075s-134.708 67.464-134.708 129.075 60.311 101.642 134.708 101.642 134.708-40.03 134.708-101.642z" fill="#eda1ab"/><g><g fill="#fff"><ellipse cx="174.042" cy="181.913" rx="30.241" ry="24.082"/><ellipse cx="337.958" cy="181.913" rx="30.241" ry="24.082"/></g><g fill="#4e5660"><path d="m191.667 166.23c-4.142 0-7.5-3.358-7.5-7.5v-12.362c0-4.142 3.358-7.5 7.5-7.5s7.5 3.358 7.5 7.5v12.362c0 4.142-3.358 7.5-7.5 7.5z"/><path d="m320.333 166.23c-4.142 0-7.5-3.358-7.5-7.5v-12.362c0-4.142 3.358-7.5 7.5-7.5s7.5 3.358 7.5 7.5v12.362c0 4.142-3.357 7.5-7.5 7.5z"/><path d="m256 173.589c-8.669 0-16.912-3.754-22.616-10.3-2.721-3.123-2.396-7.86.727-10.582 3.123-2.721 7.861-2.396 10.582.727 2.854 3.275 6.976 5.154 11.307 5.154s8.452-1.879 11.307-5.154c2.721-3.124 7.458-3.448 10.582-.727 3.123 2.721 3.448 7.459.727 10.582-5.705 6.546-13.948 10.3-22.616 10.3z"/></g></g><path d="m238.233 260.069c-8.674 0-15.706-7.032-15.706-15.706v-66.709h31.412v66.709c.001 8.675-7.031 15.706-15.706 15.706z" fill="#e26e7e"/><path d="m289.473 177.654c0-19.598-14.986-34.13-33.473-34.13s-33.473 14.533-33.473 34.13 14.986 42.255 33.473 42.255 33.473-22.658 33.473-42.255z" fill="#f6ee86"/><g fill="#565e75"><path d="m138.714 336.083c0 44.184-27.638 78.337-47.151 78.337s-33.531-40.385-29.184-78.337c2.949-25.749 21.492-46.928 41.004-46.928s35.331 21.01 35.331 46.928z"/><path d="m373.286 336.083c0 44.184 27.638 78.337 47.151 78.337s33.531-40.385 29.184-78.337c-2.949-25.749-21.492-46.928-41.005-46.928s-35.33 21.01-35.33 46.928z"/></g></g></svg>