<svg id="Capa_1" enable-background="new 0 0 512 512" height="512" viewBox="0 0 512 512" width="512" xmlns="http://www.w3.org/2000/svg"><g><path d="m49.415 92.33c-13.049 13.049-17.256 31.582-12.645 48.179-36.587 9.628-49.312 55.649-22.307 82.655 19.284 19.284 50.55 19.284 69.835 0 18.839-18.839 50.256-19.579 85.079 15.244l42.876-42.876s-67.321-87.822-91.678-104.528c-31.479-21.591-51.876-17.959-71.16 1.326z" fill="#b0da87"/><path d="m120.575 91.004c-31.48-21.591-51.876-17.959-71.16 1.326-3.027 3.027-5.557 6.359-7.633 9.883 3.168 12.658 9.363 25.664 18.709 39.29 13.106 19.108 52.873 52.762 82.801 76.785 8.365 4.549 17.111 11.145 26.085 20.12l42.876-42.877c0 .001-67.321-87.821-91.678-104.527z" fill="#89d47f"/><path d="m92.33 49.415c13.049-13.049 31.582-17.256 48.179-12.645 9.628-36.587 55.649-49.312 82.655-22.307 19.284 19.284 19.284 50.55 0 69.835-18.839 18.839-19.579 50.256 15.244 85.079l-42.876 42.876s-87.822-67.321-104.528-91.678c-21.591-31.479-17.959-51.876 1.326-71.16z" fill="#b0da87"/><path d="m184.749 184.749c57.631-57.631 145.282-63.419 202.913-5.788 29.649 29.649 53.485 57.343 73.076 98.521 60.272 75.926 65.854 167.08 24.839 208.095-41.014 41.014-132.169 35.433-208.095-24.839-41.178-19.591-68.872-43.427-98.521-73.076-57.63-57.631-51.843-145.282 5.788-202.913z" fill="#f6ca8e"/><path d="m301.973 372.261c.985-7.704-2.333-15.244-8.566-19.876-48.049-35.708-80.495-156.088-41.016-208.221-24.469 7.088-47.829 20.773-67.642 40.586-57.631 57.631-63.419 145.282-5.787 202.913 3.97 3.97 7.904 7.832 11.841 11.597 4.802 0 11.463 2.121 11.463 10.645 21.87 19.664 44.885 36.402 75.217 50.834 36.563 29.025 76.656 45.361 112.982 49.924-85.315-24.948-92.849-104.333-88.492-138.402z" fill="#f3a977"/><path d="m460.738 277.483c-.521-1.096-1.047-2.177-1.575-3.254-9.907 12.004-20.565 20.962-34.069 28.922-3.568 2.103-4.756 6.701-2.652 10.27 2.108 3.576 6.709 4.751 10.27 2.652 13.678-8.062 24.944-17.29 35.238-29.064-2.314-3.198-4.712-6.376-7.212-9.526z" fill="#f3a977"/><path d="m232.527 368.838c-10.951 8.758-26.677 21.727-41.725 30.42 3.807 3.641 7.618 7.188 11.463 10.645 14.346-8.817 28.277-20.268 39.632-29.353 3.234-2.587 3.759-7.307 1.171-10.541-2.588-3.235-7.306-3.759-10.541-1.171z" fill="#f6ca8e"/><path d="m371.726 450.664c-2.145-3.545-1.009-8.155 2.535-10.299 11.847-7.165 25.674-19.086 32.163-27.727 2.487-3.312 7.187-3.982 10.501-1.493 3.313 2.487 3.98 7.189 1.493 10.501-7.73 10.293-22.695 23.268-36.394 31.554-3.544 2.142-8.155 1.009-10.298-2.536z" fill="#f3a977"/><g><g><ellipse cx="210.893" cy="326.927" fill="#fff" rx="30.274" ry="24.109" transform="matrix(.707 -.707 .707 .707 -169.403 244.875)"/><path d="m305.52 232.3c9.415 9.415 26.632 7.463 38.455-4.36s13.775-29.039 4.36-38.455c-9.415-9.415-26.632-7.463-38.455 4.359-11.824 11.824-13.776 29.041-4.36 38.456z" fill="#fff"/><path d="m273.071 238.552c-10.667-10.667-19.396-3.941-28.928 5.591s-16.257 18.262-5.591 28.928c10.666 10.667 27.041 11.586 36.573 2.054 9.532-9.533 8.612-25.907-2.054-36.573z" fill="#4e5660"/></g><g fill="#4e5660"><path d="m194.118 310.495c-1.919 0-3.839-.732-5.303-2.197l-8.741-8.741c-2.929-2.929-2.929-7.678 0-10.606 2.929-2.929 7.678-2.929 10.606 0l8.741 8.741c2.929 2.929 2.929 7.678 0 10.606-1.464 1.465-3.383 2.197-5.303 2.197z"/><path d="m302.995 201.618c-1.919 0-3.839-.732-5.304-2.197l-8.741-8.741c-2.929-2.929-2.929-7.678 0-10.606 2.93-2.929 7.678-2.929 10.607 0l8.741 8.741c2.929 2.929 2.929 7.678 0 10.607-1.464 1.464-3.384 2.196-5.303 2.196z"/></g></g><path d="m326.355 290.812c-2.462-3.331-1.758-8.027 1.573-10.489 8.775-6.486 14.65-15.539 20.115-23.772 2.288-3.451 6.942-4.395 10.395-2.107 3.452 2.289 4.396 6.943 2.106 10.395-6.218 9.399-12.887 19.553-23.701 27.546-3.33 2.462-8.027 1.757-10.488-1.573z" fill="#f3a977"/></g></svg>