<svg id="Capa_1" enable-background="new 0 0 512 512" height="512" viewBox="0 0 512 512" width="512" xmlns="http://www.w3.org/2000/svg"><g><path d="m408.739 345.596c0-84.355-68.383-152.739-152.739-152.739s-152.739 68.383-152.739 152.739c0 84.355 68.383 134.11 152.739 134.11s152.739-49.755 152.739-134.11z" fill="#d2896f"/><path d="m158.922 348.002c0 26.847-27.269 81.297-52.801 81.297s-39.66-54.45-39.66-81.297 20.698-48.61 46.23-48.61 46.231 21.763 46.231 48.61z" fill="#f6ca8e"/><path d="m353.078 348.002c0 26.847 27.269 81.297 52.801 81.297s39.66-54.45 39.66-81.297-20.698-48.61-46.23-48.61c-25.533 0-46.231 21.763-46.231 48.61z" fill="#f6ca8e"/><path d="m439.198 323.441c-8.028-14.385-22.882-24.049-39.89-24.049-25.532 0-46.23 21.764-46.23 48.61 0 8.576 2.786 19.968 7.405 31.502 19.981-8.372 38.326-19.227 54.413-32.386 8.92-7.298 17.023-15.222 24.302-23.677z" fill="#f3a977"/><path d="m112.692 299.392c-17.009 0-31.862 9.665-39.89 24.049 7.279 8.455 15.382 16.379 24.303 23.677 16.087 13.159 34.431 24.014 54.413 32.386 4.619-11.534 7.405-22.926 7.405-31.502-.001-26.847-20.699-48.61-46.231-48.61z" fill="#f3a977"/><path d="m452.756 201.191c0-101.612-88.091-183.984-196.756-183.984s-196.756 82.372-196.756 183.984 88.091 167.317 196.756 167.317 196.756-65.706 196.756-167.317z" fill="#e1ac9a"/><path d="m256 17.206c-108.665 0-196.756 82.373-196.756 183.984 0 1.214.024 2.417.049 3.621 4.324.662 8.707 1.005 13.11 1.005l.736-.003c27.554-.229 52.536-5.32 74.576-9.812 17.442-3.554 33.917-6.912 47.717-6.912 13.011 0 22.392 2.844 31.368 9.511 8.518 6.325 18.615 9.669 29.2 9.669s20.682-3.344 29.201-9.67c8.975-6.666 18.356-9.51 31.367-9.51 13.8 0 30.274 3.357 47.717 6.912 22.042 4.491 47.023 9.582 74.574 9.812l.737.003c4.403 0 8.786-.343 13.11-1.006.025-1.203.049-2.407.049-3.62.001-101.611-88.09-183.984-196.755-183.984z" fill="#d2896f"/><path d="m184.987 126.532c-41.064 0-74.132 34.236-72.216 75.722 1.694 36.706 31.255 66.634 67.94 68.746 23.964 1.38 45.573-8.922 59.674-25.736 8.205-9.785 23.026-9.785 31.231 0 14.1 16.815 35.71 27.116 59.674 25.736 36.685-2.112 66.245-32.04 67.94-68.746 1.915-41.486-31.152-75.722-72.216-75.722z" fill="#fbf1cf"/><path d="m327.013 126.532h-142.026c-41.064 0-74.132 34.236-72.217 75.722.003.07.011.138.015.207 12.337-1.857 23.996-4.231 34.93-6.459 17.442-3.554 33.917-6.912 47.717-6.912 13.011 0 22.392 2.844 31.368 9.511 8.518 6.325 18.615 9.669 29.2 9.669s20.682-3.344 29.201-9.67c8.975-6.666 18.356-9.51 31.367-9.51 13.8 0 30.274 3.357 47.717 6.912 10.934 2.228 22.593 4.602 34.929 6.459.003-.07.011-.138.015-.207 1.915-41.486-31.152-75.722-72.216-75.722z" fill="#fae0bd"/><path d="m227.218 512c15.896 0 28.782-12.886 28.782-28.782v-7.025c0-15.896-12.886-28.782-28.782-28.782-15.896 0-28.782 12.886-28.782 28.782v7.025c0 15.896 12.886 28.782 28.782 28.782z" fill="#f3a977"/><path d="m284.782 512c-15.896 0-28.782-12.886-28.782-28.782v-7.025c0-15.896 12.886-28.782 28.782-28.782 15.896 0 28.782 12.886 28.782 28.782v7.025c0 15.896-12.886 28.782-28.782 28.782z" fill="#f6ca8e"/><g fill="#e1ac9a"><path d="m256 416.622c-4.143 0-7.5-3.358-7.5-7.5v-9.176c0-4.142 3.357-7.5 7.5-7.5s7.5 3.358 7.5 7.5v9.176c0 4.142-3.357 7.5-7.5 7.5z"/><path d="m191.908 425.898c-4.143 0-7.5-3.358-7.5-7.5v-10.228c0-4.142 3.357-7.5 7.5-7.5s7.5 3.358 7.5 7.5v10.228c0 4.142-3.357 7.5-7.5 7.5z"/><path d="m320.092 425.898c-4.143 0-7.5-3.358-7.5-7.5v-10.228c0-4.142 3.357-7.5 7.5-7.5s7.5 3.358 7.5 7.5v10.228c0 4.142-3.358 7.5-7.5 7.5z"/></g><path d="m289.762 240.016c0-16.173-15.116-29.285-33.762-29.285s-33.762 13.111-33.762 29.285 15.116 49.101 33.762 49.101 33.762-32.927 33.762-49.101z" fill="#f6ca8e"/><g><g fill="#eda1ab"><ellipse cx="169.913" cy="231.589" rx="31.765" ry="25.296"/><ellipse cx="342.087" cy="231.589" rx="31.765" ry="25.296"/></g><g fill="#4e5660"><path d="m188.425 214.428c-4.143 0-7.5-3.358-7.5-7.5v-12.362c0-4.142 3.357-7.5 7.5-7.5s7.5 3.358 7.5 7.5v12.362c0 4.142-3.358 7.5-7.5 7.5z"/><path d="m340.287 214.083c-4.143 0-7.5-3.358-7.5-7.5 0-3.764-3.062-6.826-6.825-6.826-3.764 0-6.826 3.062-6.826 6.826 0 4.142-3.357 7.5-7.5 7.5s-7.5-3.358-7.5-7.5c0-12.035 9.791-21.826 21.826-21.826 12.034 0 21.825 9.791 21.825 21.826 0 4.142-3.357 7.5-7.5 7.5z"/></g></g><path d="m125.676 0c48.67 0 80.265 62.39 130.324 62.39s81.654-62.39 130.324-62.39c30.689 0 54.48 25.049 54.487 54.369.001 6.071 4.426 11.148 10.388 12.296 25.054 4.826 43.834 26.779 44.063 52.982.268 30.707-25.435 55.203-56.142 54.948-69.392-.577-124.635-36.633-172.534-1.058-6.307 4.684-14.865 4.684-21.172 0-47.899-35.575-103.142.481-172.534 1.058-30.708.255-56.411-24.24-56.143-54.948.229-26.203 19.009-48.155 44.063-52.982 5.962-1.148 10.387-6.225 10.388-12.296.008-29.32 23.798-54.369 54.488-54.369z" fill="#f6ca8e"/><path d="m256 132.348c-2.651 0-5.106-1.4-6.456-3.683-6.344-10.729-36.843-27.607-59.334-32.834-4.034-.938-6.545-4.968-5.608-9.003.939-4.035 4.963-6.544 9.004-5.607 20.314 4.72 48.374 18.516 62.394 31.997 14.02-13.481 42.08-27.277 62.394-31.998 4.033-.937 8.065 1.573 9.004 5.607.938 4.035-1.573 8.065-5.607 9.003-22.491 5.227-52.99 22.104-59.334 32.834-1.351 2.283-3.806 3.684-6.457 3.684z" fill="#f3a977"/></g></svg>