<svg id="Capa_1" enable-background="new 0 0 512 512" height="512" viewBox="0 0 512 512" width="512" xmlns="http://www.w3.org/2000/svg"><g><path d="m97.368 40.896c-53.775 0-97.368 43.593-97.368 97.368s43.593 97.368 97.368 97.368c-3.295 38.19 34.464 90.529 76.6 90.529l87.912-19.945c0-160.808-83.549-265.32-164.512-265.32z" fill="#daa985"/><path d="m97.377 243.132c-.338 0-.68-.023-1.025-.07-4.104-.561-6.976-4.343-6.416-8.447 3.69-26.998 13.517-46.282 30.925-60.688 3.192-2.641 7.919-2.193 10.56.997 2.641 3.191 2.194 7.919-.997 10.56-9.019 7.463-21.489 20.888-25.626 51.163-.513 3.759-3.73 6.485-7.421 6.485z" fill="#d2896f"/><path d="m348.637 471.103c-18.899 0-34.133-15.51-33.74-34.435.151-7.293-1.967-25.416-5.251-39.762-4.157-18.16 7.195-36.253 25.356-40.409 18.168-4.157 36.253 7.196 40.409 25.356 3.693 16.135 7.262 40.626 6.938 56.218-.383 18.386-15.409 33.032-33.712 33.032z" fill="#daa985"/><g fill="#e1b89a"><path d="m202.121 414.272c-51.86-5.634-89.333-52.242-83.698-104.102 5.633-51.859 52.221-89.332 104.102-83.698 29.583 3.213 42.739 2.933 67.411-5.072 49.619-16.1 102.895 11.071 118.994 60.689 16.1 49.618-11.071 102.893-60.689 118.993-52.562 17.056-92.923 18.97-146.12 13.19z"/><path d="m164.527 467.488c-17.038-7.535-24.743-27.456-17.208-44.494 4.124-9.326 4.568-21.317 3.947-37.641-.708-18.617 13.809-34.283 32.426-34.992 18.603-.71 34.283 13.809 34.992 32.426.773 20.335.729 43.997-9.661 67.493-7.558 17.085-27.501 24.722-44.496 17.208z"/><path d="m294.699 471.096c-18.626-.387-33.411-15.801-33.024-34.427.151-7.293-1.967-25.416-5.251-39.762-4.157-18.16 7.195-36.253 25.356-40.409 18.166-4.157 36.253 7.196 40.409 25.356 3.693 16.135 7.262 40.626 6.938 56.218-.39 18.727-15.929 33.429-34.428 33.024z"/></g><path d="m289.935 221.4c-24.672 8.005-37.828 8.286-67.411 5.073-16.021-1.74-31.536.636-45.498 6.272 1.089 41.532 20.781 77.603 55.739 101.877 31.341 21.763 72.928 33.266 120.263 33.266 15.403 0 30.192-1.226 44.222-3.619 15.776-23.289 21.032-53.35 11.678-82.179-16.099-49.619-69.374-76.79-118.993-60.69z" fill="#daa985"/><path d="m265.365 91.437c-16.312-16.312-42.76-16.312-59.072 0s-16.312 42.76 0 59.072c21.233 21.233 58.236 17.704 64.931 52.773l36.343-17.534c-5.101-27.098-20.012-72.121-42.202-94.311z" fill="#e1b89a"/><path d="m440.693 91.437c16.312-16.312 42.76-16.312 59.072 0s16.312 42.76 0 59.072c-21.233 21.233-58.236 17.704-64.931 52.773l-36.343-17.534c5.101-27.098 20.013-72.121 42.202-94.311z" fill="#e1b89a"/><path d="m273.132 166.713c-2.322 0-4.611-1.074-6.078-3.098-8.459-11.667-24.174-27.848-36.638-34.859-3.61-2.03-4.891-6.604-2.86-10.213 2.03-3.61 6.602-4.892 10.213-2.86 16.179 9.1 33.639 28.386 41.428 39.128 2.432 3.354 1.684 8.043-1.669 10.474-1.33.964-2.87 1.428-4.396 1.428z" fill="#fbf1cf"/><path d="m432.927 166.713c-1.526 0-3.066-.464-4.396-1.428-3.354-2.432-4.101-7.121-1.67-10.475 7.788-10.742 25.248-30.027 41.428-39.128 3.609-2.031 8.183-.751 10.213 2.86 2.031 3.61.75 8.183-2.86 10.213-12.465 7.012-28.18 23.193-36.637 34.859-1.467 2.025-3.756 3.099-6.078 3.099z" fill="#fbf1cf"/><path d="m410.672 112.989c-21.603 2.844-37.159 4.719-57.643 4.719s-36.04-1.875-57.643-4.719c-51.484 19.436-87.506 64.104-87.506 116.109 0 69.856 64.986 107.883 145.15 107.883s145.149-38.027 145.149-107.883c0-52.006-36.023-96.674-87.507-116.109z" fill="#e7c7af"/><path d="m353.029 102.612c-20.484 0-39.972 3.705-57.643 10.376 11.053 21.346 34.074 57.043 57.643 57.043s46.59-35.697 57.643-57.043c-17.671-6.671-37.159-10.376-57.643-10.376z" fill="#fbf1cf"/><g><g fill="#fff"><ellipse cx="268.598" cy="239.14" rx="31.153" ry="24.809"/><ellipse cx="437.461" cy="239.14" rx="31.153" ry="24.809"/></g><g fill="#4e5660"><path d="m286.754 222.758c-4.142 0-7.5-3.358-7.5-7.5v-12.735c0-4.142 3.358-7.5 7.5-7.5s7.5 3.358 7.5 7.5v12.735c0 4.142-3.358 7.5-7.5 7.5z"/><path d="m419.304 222.758c-4.142 0-7.5-3.358-7.5-7.5v-12.735c0-4.142 3.358-7.5 7.5-7.5s7.5 3.358 7.5 7.5v12.735c0 4.142-3.358 7.5-7.5 7.5z"/><path d="m353.029 251.666c-8.865 0-17.294-3.839-23.127-10.533-2.721-3.123-2.396-7.86.727-10.581s7.86-2.396 10.581.727c2.984 3.424 7.292 5.388 11.819 5.388s8.835-1.964 11.819-5.388c2.722-3.122 7.459-3.447 10.582-.727 3.122 2.722 3.448 7.459.727 10.582-5.834 6.693-14.264 10.532-23.128 10.532z"/><path d="m353.029 215.258c7.295 0 17.473-6.417 17.473-13.061 0-4.855-7.023-6.565-17.473-6.565s-17.473 1.71-17.473 6.565c0 6.643 10.178 13.061 17.473 13.061z"/></g></g></g></svg>