<svg id="Capa_1" enable-background="new 0 0 512 512" height="512" viewBox="0 0 512 512" width="512" xmlns="http://www.w3.org/2000/svg"><g><path d="m18.064 279.684c115.092 59.741 326.956 101.228 426.287-1.52-8.878-42.964-23.478-85.946-39.745-117.88h-346.481c-16.458 32.31-31.216 75.931-40.061 119.4z" fill="#a3defe"/><path d="m231.366 197.967c-31.246 0-133.624-2.449-192.201-13.334-26.014-4.833-43.184-29.84-38.35-55.854 4.833-26.012 29.837-43.184 55.853-38.35 47.2 8.77 139.732 11.722 174.698 11.722s127.498-2.951 174.698-11.722c26.016-4.835 51.02 12.337 55.853 38.35 4.834 26.014-12.336 51.02-38.35 55.854-58.577 10.885-160.955 13.334-192.201 13.334z" fill="#ceeafb"/><path d="m80.687 190.416v98.143c0 6.553.823 12.916 2.354 19.001 41.581 14.708 88.474 26.016 135.4 30.752 11.241-13.504 18.015-30.85 18.015-49.753v-90.611c-7.889-12.046-93.22-36.84-155.769-7.532z" fill="#8cd6fe"/><path d="m413.878 460.301c22.434-27.253 39.416-61.887 39.416-103.478 0-24.349-3.332-51.5-8.943-78.659-136.139 76.412-311.165-17.833-426.287 1.52-5.423 26.65-8.627 53.243-8.627 77.138 0 41.591 16.982 76.225 39.416 103.478 18.767 22.798 46.772 35.975 76.301 35.975h212.423c29.529.001 57.534-13.176 76.301-35.974z" fill="#f6ee86"/><path d="m235.256 302.091c-54.054-7.697-107.092-20.019-154.568-23.887v10.356c0 42.946 34.939 77.884 77.884 77.884 38.329 0 70.257-27.838 76.684-64.353z" fill="#f2d98d"/><g><g fill="#eda1ab"><ellipse cx="150.624" cy="425.799" rx="29.792" ry="23.725"/><ellipse cx="312.108" cy="425.799" rx="29.792" ry="23.725"/></g><g fill="#4e5660"><path d="m182.167 407.481c-4.142 0-7.5-3.358-7.5-7.5 0-3.684-2.997-6.68-6.68-6.68-3.684 0-6.681 2.997-6.681 6.68 0 4.142-3.358 7.5-7.5 7.5s-7.5-3.358-7.5-7.5c0-11.954 9.726-21.68 21.681-21.68s21.68 9.726 21.68 21.68c0 4.143-3.358 7.5-7.5 7.5z"/><path d="m308.926 407.481c-4.142 0-7.5-3.358-7.5-7.5 0-3.684-2.997-6.68-6.681-6.68s-6.681 2.997-6.681 6.68c0 4.142-3.358 7.5-7.5 7.5s-7.5-3.358-7.5-7.5c0-11.954 9.726-21.68 21.681-21.68s21.681 9.726 21.681 21.68c0 4.143-3.358 7.5-7.5 7.5z"/><path d="m231.366 430.908c-7.933 0-15.477-3.435-20.696-9.425-2.721-3.122-2.396-7.86.727-10.582 3.122-2.721 7.86-2.396 10.581.727 2.37 2.72 5.792 4.28 9.388 4.28 3.595 0 7.017-1.56 9.387-4.28 2.721-3.124 7.458-3.448 10.582-.727 3.123 2.721 3.448 7.459.727 10.582-5.22 5.99-12.763 9.425-20.696 9.425z"/></g></g><path d="m236.457 197.948v-87.35c0-2.881-.23-5.705-.658-8.462-1.561.009-3.047.015-4.433.015-29.272 0-98.885-2.069-148.475-7.889-1.425 4.906-2.204 10.084-2.204 15.443v80.711c56.827 6.019 125.978 7.551 150.678 7.551 1.53 0 3.235-.006 5.092-.019z" fill="#a3defe"/><path d="m137.608 85.238c15.64.975 31.297 1.701 45.632 2.215 12.456.446 22.31 10.682 22.31 23.146v177.961c0 25.946-21.033 46.979-46.979 46.979-25.946 0-46.979-21.033-46.979-46.979v-178.854c.001-14.13 11.914-25.347 26.016-24.468z" fill="#f6ee86"/><g><path d="m190.514 99.857 124.608 105.034 47.609-47.609-105.034-124.608c-18-21.355-50.419-22.734-70.168-2.985-19.749 19.749-18.369 52.167 2.985 70.168z" fill="#e1ac9a"/><path d="m291.406 184.9 23.716 19.991 47.609-47.609-19.991-23.716z" fill="#d2896f"/><path d="m418.599 143.732c11.686 11.686 11.686 30.632 0 42.318l-74.708 74.708c-11.686 11.686-30.632 11.686-42.318 0-11.686-11.686-11.686-30.632 0-42.318l74.708-74.708c11.685-11.685 30.632-11.685 42.318 0z" fill="#e7c7af"/><path d="m472.341 174.627c11.686 11.686 11.686 30.632 0 42.318l-97.556 97.556c-11.686 11.686-30.632 11.686-42.318 0-11.686-11.686-11.686-30.632 0-42.318l97.556-97.556c11.686-11.686 30.633-11.686 42.318 0z" fill="#e1ac9a"/><path d="m503.236 228.369c11.686 11.686 11.686 30.632 0 42.318l-74.708 74.708c-11.686 11.686-30.632 11.686-42.318 0-11.686-11.686-11.686-30.632 0-42.318l74.708-74.708c11.685-11.686 30.632-11.686 42.318 0z" fill="#e7c7af"/></g></g></svg>