<svg id="Capa_1" enable-background="new 0 0 512 512" height="512" viewBox="0 0 512 512" width="512" xmlns="http://www.w3.org/2000/svg"><g><path d="m366.685 84.978c-21.707 21.707-30.811 51.722-34.556 75.432-3.3 20.893 14.786 38.979 35.679 35.679 23.709-3.745 53.724-12.849 75.432-34.556 21.707-21.707 30.811-51.722 34.556-75.431 3.3-20.893-14.787-38.98-35.679-35.679-23.709 3.744-53.724 12.848-75.432 34.555z" fill="#f6ee86"/><path d="m383.409 152.309c-1.919 0-3.839-.732-5.304-2.197-2.929-2.929-2.929-7.678 0-10.606l48.058-48.058c2.93-2.929 7.678-2.929 10.607 0s2.929 7.678 0 10.606l-48.058 48.058c-1.464 1.465-3.384 2.197-5.303 2.197z" fill="#f2d98d"/><path d="m143.066 158.203c-21.707-21.708-51.722-30.811-75.431-34.556-20.893-3.3-38.979 14.787-35.679 35.679 3.745 23.709 12.849 53.724 34.556 75.432s51.722 30.811 75.432 34.556c20.893 3.3 38.979-14.786 35.679-35.679-3.745-23.71-12.849-53.725-34.557-75.432z" fill="#f6ee86"/><path d="m126.343 225.534c-1.919 0-3.839-.732-5.303-2.197l-54.892-54.892c-2.929-2.929-2.929-7.678 0-10.606 2.929-2.929 7.678-2.929 10.606 0l54.892 54.892c2.929 2.929 2.929 7.678 0 10.606-1.464 1.464-3.384 2.197-5.303 2.197z" fill="#f2d98d"/><path d="m374.863 449.516c-11.049-18.608-36.181-59.509-36.181-119.017h-142.787c0 59.508-25.132 100.409-36.181 119.017z" fill="#e1ac9a"/><path d="m338.682 330.499h-142.787c0 16.208-1.873 31.024-4.809 44.396 3.138-.109 6.272.649 9.038 2.261 19.619 11.434 42.904 17.602 67.165 17.602s47.546-6.168 67.165-17.602c2.766-1.612 5.9-2.371 9.038-2.261-2.937-13.373-4.81-28.189-4.81-44.396z" fill="#d2896f"/><path d="m391.276 99.489c-1.471-9.818-3.703-19.447-6.631-28.758-6.364 4.013-12.432 8.719-17.96 14.247-21.707 21.707-30.811 51.722-34.556 75.432-3.3 20.893 14.787 38.979 35.679 35.679 22.801-3.602 51.429-12.165 72.896-32.122-6.599-26.242-24.086-49.586-49.428-64.478z" fill="#f2d98d"/><path d="m177.623 233.634c-3.745-23.709-12.849-53.724-34.556-75.432-10.692-10.692-23.401-18.322-36.378-23.764-10.542 16.463-16.16 35.521-15.721 55.169-14.814 7.691-27.236 18.152-36.577 30.431 3.527 5.184 7.54 10.138 12.122 14.719 21.707 21.707 51.722 30.811 75.432 34.556 20.891 3.301 38.978-14.786 35.678-35.679z" fill="#f2d98d"/><path d="m411.854 198.124c4.975-30.228-11.756-60.552-42.529-75.342-4.223-2.03-7.159-6.036-7.619-10.699-5.829-59.187-44.865-112.083-94.418-112.083-49.552 0-88.588 52.896-94.418 112.083-.459 4.663-3.395 8.67-7.619 10.699-30.822 14.809-47.503 45.152-42.527 75.355 1.038 6.301-2.345 12.485-8.308 14.768-28.536 10.926-48.361 34.971-48.361 62.894 0 38.207 37.104 69.181 82.873 69.181 14.237 0 27.63-3.004 39.331-8.287 6.623-2.99 14.445-2.008 20.118 2.533 15.018 12.022 35.859 19.476 58.91 19.476s43.892-7.454 58.91-19.476c5.673-4.541 13.495-5.524 20.118-2.533 11.701 5.283 25.093 8.287 39.331 8.287 45.77 0 82.874-30.973 82.874-69.181 0-27.918-19.818-51.96-48.346-62.889-5.971-2.287-9.358-8.477-8.32-14.786z" fill="#f6ca8e"/><path d="m311.674 348.481c-106.773 5.261-123.873-86.926-108.95-117.086 2.108-4.261 1.808-9.303-.852-13.243-16.099-23.842-12.83-61.315 3.374-80.634 3.555-4.239 4.298-10.183 1.575-14.999-7.789-13.777-16.5-44.85-12.549-75.315-11.458 18.652-19.075 41.262-21.401 64.878-.459 4.663-3.395 8.67-7.619 10.699-30.822 14.809-47.503 45.152-42.527 75.355 1.038 6.301-2.345 12.485-8.308 14.768-28.536 10.926-48.361 34.971-48.361 62.894 0 38.207 37.104 69.18 82.873 69.18 14.237 0 27.63-3.004 39.331-8.287 6.623-2.99 14.445-2.008 20.118 2.533 15.018 12.022 35.859 19.476 58.91 19.476 16.339.002 31.555-3.757 44.386-10.219z" fill="#f3a977"/><path d="m459.746 512h-384.915c-16.348 0-26.217-18.09-17.369-31.836 12.296-19.103 33.457-30.648 56.176-30.648h307.301c22.718 0 43.88 11.545 56.176 30.648 8.848 13.746-1.022 31.836-17.369 31.836z" fill="#f6ca8e"/><path d="m218.102 449.516h-104.464c-22.718 0-43.88 11.545-56.176 30.648-8.848 13.746 1.022 31.836 17.369 31.836h163.407c-23.349-16.852-23.302-47.13-20.136-62.484z" fill="#f3a977"/><g><g fill="#fff"><ellipse cx="184.845" cy="219.633" rx="24.225" ry="30.42" transform="matrix(.002 -1 1 .002 -35.193 403.996)"/><path d="m319.312 219.927c-.029 13.379 13.567 24.255 30.367 24.291 16.801.037 30.444-10.779 30.473-24.158s-13.566-24.255-30.367-24.292c-16.801-.036-30.444 10.78-30.473 24.159z"/></g><g fill="#4e5660"><path d="m332.056 204.099c-.005 0-.01 0-.015 0-4.143-.008-7.493-3.372-7.485-7.515l.024-12.362c.008-4.137 3.364-7.485 7.5-7.485h.015c4.143.008 7.493 3.373 7.485 7.515l-.024 12.362c-.008 4.137-3.365 7.485-7.5 7.485z"/><path d="m271.366 232.464c-1.493 0-3.016-.204-4.536-.624l-11.709-3.24c-3.992-1.104-6.333-5.236-5.229-9.229 1.104-3.992 5.238-6.332 9.229-5.229l11.709 3.24c.348.096 1.075.297 1.615-.677.541-.974-.013-1.484-.279-1.729-3.09-2.844-4.857-6.883-4.848-11.082s1.794-8.229 4.896-11.059c.268-.244.823-.751.287-1.727-.538-.977-1.264-.779-1.613-.684l-11.723 3.188c-3.995 1.086-8.118-1.273-9.205-5.269-1.087-3.997 1.272-8.119 5.269-9.205l11.723-3.188c7.458-2.025 14.972 1.16 18.694 7.935 3.723 6.774 2.387 14.826-3.325 20.034 5.688 5.253 6.99 13.31 3.237 20.068-2.985 5.38-8.364 8.477-14.192 8.477z"/><path d="m217.114 202.967c-.006 0-.011 0-.017 0-4.142-.009-7.493-3.375-7.483-7.517.008-3.853-3.119-6.994-6.972-7.002-.005 0-.01 0-.015 0-3.845 0-6.979 3.125-6.987 6.972-.009 4.136-3.366 7.483-7.499 7.483-.006 0-.011 0-.017 0-4.142-.009-7.493-3.374-7.483-7.517.027-12.107 9.886-21.939 21.987-21.939h.048c12.124.027 21.966 9.912 21.939 22.036-.01 4.137-3.367 7.484-7.501 7.484z"/></g></g></g></svg>