<svg id="Capa_1" enable-background="new 0 0 512 512" height="512" viewBox="0 0 512 512" width="512" xmlns="http://www.w3.org/2000/svg"><g><path d="m121.255 98.523c0 33.382 16.079 63.461 31.43 84.571 13.527 18.602 41.341 18.602 54.868 0 15.351-21.11 31.429-51.189 31.429-84.571s-16.079-63.461-31.429-84.571c-13.527-18.602-41.341-18.602-54.868 0-15.351 21.11-31.43 51.188-31.43 84.571z" fill="#b0da87"/><path d="m180.119 139.169c-4.143 0-7.5-3.358-7.5-7.5v-73.905c0-4.142 3.357-7.5 7.5-7.5s7.5 3.358 7.5 7.5v73.905c0 4.142-3.357 7.5-7.5 7.5z" fill="#89d47f"/><path d="m40.479 110.095c37.393-5.275 89.388-2.758 139.64 47.495l-40.332 40.332c-28.185-24.33-53.867-24.643-86.952-18.067-12.745 2.533-25.118-5.779-27.487-18.555l-4.437-23.93c-2.41-13.003 6.474-25.428 19.568-27.275z" fill="#e1ac9a"/><path d="m84.122 176.215c19.379.005 36.972 5.571 55.665 21.706l40.332-40.332c-16.818-16.818-33.831-28.283-50.427-35.906-5.242 4.146-10.286 8.629-15.09 13.433-12.418 12.419-22.665 26.306-30.48 41.099z" fill="#d2896f"/><path d="m414.676 461.587c7.833-9.716 16.68-18.563 26.395-26.395 66.888-53.925 63.788-130.154 10.891-183.05-22.365-22.365-50.746-35.367-80.652-39.17-24.377-3.1-45.89-18.01-57.352-39.747-4.739-8.988-10.852-17.379-18.354-24.881-43.133-43.133-111.605-36.489-157.935 9.841s-52.974 114.802-9.841 157.935c7.501 7.502 15.893 13.615 24.881 18.354 21.737 11.462 36.647 32.975 39.747 57.352 3.803 29.906 16.805 58.288 39.17 80.652 52.896 52.897 129.124 55.998 183.05-10.891z" fill="#f6ee86"/><path d="m408.378 468.956c-131.544-5.485-177.401-100.721-177.648-161.072-.032-7.733-3.558-14.962-9.574-19.821-47.986-38.76-47.876-124.941-26.876-164.064-20.267 5.905-39.883 17.457-56.612 34.186-46.33 46.33-52.974 114.802-9.841 157.935 7.502 7.502 15.893 13.615 24.881 18.354 21.759 11.474 36.648 32.837 39.733 57.242 3.785 29.946 16.792 58.37 39.184 80.763 50.871 50.87 123.315 55.674 176.753-3.523z" fill="#f2d98d"/><g><g><path d="m278.903 375.56c9.794 9.784 7.773 27.684-4.513 39.982s-30.184 14.336-39.978 4.553c-9.794-9.784-7.773-27.685 4.512-39.983 12.286-12.297 30.185-14.336 39.979-4.552z" fill="#eda1ab"/><path d="m354.989 299.397c9.794 9.784 27.692 7.745 39.978-4.553s14.306-30.199 4.513-39.983c-9.794-9.784-27.693-7.746-39.978 4.553-12.286 12.298-14.307 30.199-4.513 39.983z" fill="#eda1ab"/><path d="m330.735 307.643c-13.49-13.476-24.52-4.97-36.563 7.085s-20.538 23.094-7.048 36.57 34.188 14.628 46.23 2.573c12.043-12.056 10.87-32.753-2.619-46.228z" fill="#4e5660"/></g><g fill="#4e5660"><path d="m239.737 383.672c-1.918 0-3.836-.732-5.301-2.194-8.77-8.761-8.777-23.024-.016-31.794s23.025-8.776 31.793-.017c2.931 2.927 2.934 7.676.007 10.607s-7.676 2.933-10.606.006c-2.92-2.916-7.666-2.915-10.582.005-1.412 1.414-2.189 3.293-2.188 5.291.001 1.999.78 3.877 2.194 5.289 2.931 2.928 2.933 7.676.005 10.607-1.464 1.467-3.385 2.2-5.306 2.2z"/><path d="m334.385 288.929c-1.918 0-3.836-.731-5.301-2.194-8.77-8.761-8.777-23.024-.016-31.794 4.244-4.248 9.889-6.589 15.893-6.593h.012c6.001 0 11.643 2.335 15.889 6.577 2.931 2.928 2.933 7.676.005 10.607-2.925 2.93-7.674 2.932-10.607.005-2.919-2.917-7.666-2.913-10.581.005-1.412 1.414-2.19 3.293-2.189 5.291s.78 3.877 2.194 5.289c2.931 2.928 2.933 7.676.005 10.607-1.462 1.466-3.383 2.2-5.304 2.2z"/></g></g></g></svg>