<svg id="Capa_1" enable-background="new 0 0 512 512" height="512" viewBox="0 0 512 512" width="512" xmlns="http://www.w3.org/2000/svg"><g><g fill="#ceeafb"><path d="m375.537 366.324c-103.52-8.589-211.037-90.131-312.163-37.302-14.774 7.721-33.013 1.998-40.733-12.779-7.719-14.777-1.998-33.014 12.779-40.733 164.009-85.68 322.163 86.047 414.048 11.826 12.968-10.473 31.975-8.453 42.451 4.516 10.475 12.97 8.453 31.975-4.516 42.451-32.819 26.507-70.152 35.484-111.866 32.021z"/><path d="m360.929 219.676c-111.708 0-159.867-83.176-277.763-31.033-15.248 6.745-33.073-.149-39.817-15.398-6.743-15.247.15-33.073 15.397-39.817 142.454-63.003 210.964 25.875 302.183 25.875 18.98 0 34.421-15.441 34.421-34.421 0-9.195-3.58-17.838-10.081-24.339-11.789-11.788-11.789-30.902-.001-42.69 11.788-11.789 30.901-11.789 42.69-.001 17.905 17.904 27.765 41.709 27.765 67.03.001 52.27-42.524 94.794-94.794 94.794z"/><path d="m300.903 501.444c-18.878-22.052-47.397-39.453-80.302-48.996-36.117-10.474-73.621-10.421-108.458.153-15.951 4.841-32.81-4.165-37.652-20.118s4.165-32.811 20.118-37.653c94.971-28.822 198.251 4.381 252.159 67.352 10.842 12.665 9.364 31.721-3.301 42.563-12.665 10.84-31.719 9.366-42.564-3.301z"/></g><path d="m390.753 306.458c-39.546-.24-85.608-18.401-135.713-33.89-19.277 8.646-35.987 19.875-49.541 33.43-3.89 3.89-7.584 8.044-11.086 12.439 60.376 13.711 121.415 42.933 181.124 47.888 3.049.253 6.072.431 9.075.55 3.13-10.418 5.62-21.386 7.43-32.845 1.469-9.306.974-18.67-1.289-27.572z" fill="#a3defe"/><path d="m278.832 480.961c21.398-7.845 40.112-18.603 55.464-31.971-42.199-40.627-106.195-65.769-172.675-64.61-2.704 9.484-4.89 19.406-6.521 29.729-1.645 10.416-.835 20.907 2.175 30.738 21.05-.99 42.42 1.538 63.326 7.601 21.869 6.342 41.779 16.171 58.231 28.513z" fill="#a3defe"/><path d="m227.352 327.851c-26.211 26.211-37.203 62.453-41.725 91.081-3.985 25.227 17.854 47.066 43.082 43.082 28.628-4.522 64.87-15.514 91.081-41.725s37.203-62.453 41.725-91.081c3.985-25.227-17.854-47.066-43.082-43.081-28.628 4.52-64.87 15.513-91.081 41.724z" fill="#f6ee86"/><path d="m228.708 462.013c21.884-3.457 48.213-10.704 71.114-25.631-67.283-21.971-71.74-88.973-58.381-120.564-4.925 3.607-9.653 7.597-14.089 12.033-26.211 26.211-37.203 62.453-41.725 91.081-3.985 25.227 17.854 47.066 43.081 43.081z" fill="#f2d98d"/><path d="m246.614 408.526c-1.919 0-3.839-.732-5.303-2.197-2.929-2.929-2.929-7.678 0-10.606l53.914-53.914c2.929-2.929 7.678-2.929 10.606 0 2.929 2.929 2.929 7.678 0 10.606l-53.914 53.914c-1.464 1.465-3.384 2.197-5.303 2.197z" fill="#f2d98d"/><path d="m232.238 123.747c-47.109-15.029-100.625-22.545-173.492 9.682-15.247 6.744-22.14 24.57-15.397 39.817 6.744 15.248 24.57 22.142 39.817 15.398 47.819-21.149 84.164-20.035 117.931-11.241 15.568-17.23 25.211-36.224 31.141-53.656z" fill="#a3defe"/><path d="m165.173 0c-17.175 0-32.121 14.364-39.879 35.567-.738 2.017-3.182 2.772-4.907 1.492-29.654-22.005-63.043-26.988-79.991-10.04s-11.965 50.337 10.04 79.991c1.28 1.725.525 4.169-1.492 4.907-21.202 7.758-35.567 22.704-35.567 39.879 0 25.153 30.795 45.543 68.783 45.543 23.646 0 63.249-7.664 92.07-36.485s36.485-68.424 36.485-92.07c.001-37.989-20.389-68.784-45.542-68.784z" fill="#f6ca8e"/><path d="m63.771 17.055c-9.26.708-17.357 3.947-23.374 9.964-16.948 16.948-11.965 50.337 10.04 79.991 1.28 1.725.525 4.169-1.492 4.907-21.202 7.758-35.567 22.704-35.567 39.879 0 25.153 30.795 45.543 68.783 45.543 22.379 0 59.045-6.877 87.342-32.045-90.673-13.57-117.093-104.037-105.732-148.239z" fill="#f3a977"/><g><path d="m113.479 107.601c-1.919 0-3.839-.732-5.303-2.197l-28.253-28.253c-2.929-2.929-2.929-7.678 0-10.606 2.929-2.929 7.678-2.929 10.606 0l28.253 28.253c2.929 2.929 2.929 7.678 0 10.606-1.464 1.465-3.384 2.197-5.303 2.197z" fill="#f3a977"/><path d="m69.487 159.814c-4.007 0-7.331-3.168-7.489-7.208-.162-4.139 3.063-7.625 7.202-7.787l26.528-1.036c4.091-.157 7.624 3.062 7.787 7.202.162 4.139-3.063 7.625-7.202 7.787l-26.528 1.036c-.099.004-.199.006-.298.006z" fill="#f6ca8e"/><path d="m164.661 90.143c-.099 0-.198-.002-.298-.006-4.139-.162-7.363-3.648-7.202-7.787l1.036-26.528c.162-4.139 3.67-7.362 7.787-7.202 4.139.162 7.363 3.648 7.202 7.787l-1.036 26.528c-.158 4.039-3.483 7.208-7.489 7.208z" fill="#f3a977"/></g></g></svg>