<svg id="Capa_1" enable-background="new 0 0 512 512" height="512" viewBox="0 0 512 512" width="512" xmlns="http://www.w3.org/2000/svg"><g><path d="m241.307 428.356c-17.78 17.78-63.206 33.15-104.625 25.386-10.804-2.025-16.946-13.554-12.506-23.609 10.643-24.099 12.717-48.646 39.661-76.357 21.274-21.88 56.564-22.838 77.901-1.019 20.564 21.028 20.421 54.747-.431 75.599z" fill="#89d47f"/><path d="m270.693 428.356c17.78 17.78 63.206 33.15 104.625 25.386 10.804-2.025 16.947-13.554 12.506-23.609-10.643-24.099-12.717-48.646-39.661-76.357-21.274-21.88-56.564-22.838-77.901-1.019-20.565 21.028-20.421 54.747.431 75.599z" fill="#89d47f"/><path d="m304.75 489.457c-4.535-19.784-8.405-49.175-8.405-89.843h-80.69c0 40.669-3.87 70.059-8.405 89.843-2.647 11.547 6.158 22.543 18.005 22.543h61.49c11.847 0 20.652-10.996 18.005-22.543z" fill="#b0da87"/><g><path d="m386.113 182.82c23.89-23.89 53.88-92.613 29.99-116.503s-92.613 6.1-116.503 29.99-23.89 62.624 0 86.514c23.89 23.889 62.623 23.889 86.513-.001z" fill="#f6ca8e"/><g fill="#f3a977"><path d="m400.387 164.313c-15.895-36.813-45.468-66.386-82.281-82.281-7.436 4.692-13.832 9.6-18.507 14.274-23.89 23.89-23.89 62.624 0 86.514s62.624 23.89 86.514 0c4.675-4.675 9.582-11.071 14.274-18.507z"/><path d="m340.924 148.996c-1.92 0-3.839-.732-5.304-2.197-2.929-2.929-2.929-7.678 0-10.606l40.637-40.636c2.93-2.929 7.678-2.929 10.607 0s2.929 7.678 0 10.606l-40.637 40.636c-1.464 1.464-3.384 2.197-5.303 2.197z"/></g></g><g><path d="m212.401 96.306c-23.89-23.89-92.613-53.88-116.503-29.99s6.099 92.613 29.99 116.503c23.89 23.89 62.624 23.89 86.514 0 23.889-23.889 23.889-62.623-.001-86.513z" fill="#f6ca8e"/><g fill="#f3a977"><path d="m111.613 164.313c4.692 7.436 9.6 13.832 14.274 18.507 23.89 23.89 62.624 23.89 86.514 0s23.89-62.624 0-86.514c-4.675-4.675-11.071-9.582-18.507-14.274-36.814 15.896-66.386 45.468-82.281 82.281z"/><path d="m171.076 148.996c-1.919 0-3.839-.732-5.304-2.197l-40.637-40.636c-2.929-2.929-2.929-7.678 0-10.606 2.93-2.929 7.678-2.929 10.607 0l40.637 40.636c2.929 2.929 2.929 7.678 0 10.606-1.464 1.464-3.384 2.197-5.303 2.197z"/></g></g><g><path d="m125.887 270.019c-23.89 23.89-53.88 92.613-29.99 116.503s92.613-6.099 116.503-29.99c23.89-23.89 23.89-62.624 0-86.514-23.89-23.889-62.623-23.889-86.513.001z" fill="#f6ca8e"/><g fill="#f3a977"><path d="m125.887 270.019c-4.675 4.675-9.582 11.071-14.274 18.507 15.896 36.813 45.468 66.386 82.281 82.281 7.436-4.692 13.832-9.599 18.507-14.274 23.89-23.89 23.89-62.624 0-86.514-23.891-23.89-62.624-23.89-86.514 0z"/><path d="m130.439 359.479c-1.92 0-3.839-.732-5.304-2.197-2.929-2.929-2.929-7.678 0-10.606l40.637-40.636c2.931-2.93 7.679-2.929 10.607 0s2.929 7.678 0 10.607l-40.637 40.636c-1.464 1.464-3.384 2.196-5.303 2.196z"/></g></g><g><path d="m299.599 356.533c23.89 23.89 92.613 53.88 116.503 29.99s-6.099-92.613-29.99-116.503c-23.89-23.89-62.624-23.89-86.514 0-23.889 23.889-23.889 62.623.001 86.513z" fill="#f6ca8e"/><g fill="#f3a977"><path d="m386.113 270.019c-23.89-23.89-62.624-23.89-86.514 0s-23.89 62.624 0 86.514c4.675 4.675 11.071 9.582 18.507 14.274 36.813-15.895 66.385-45.468 82.281-82.281-4.692-7.436-9.599-13.832-14.274-18.507z"/><path d="m381.56 359.479c-1.919 0-3.839-.732-5.304-2.197l-40.637-40.636c-2.929-2.929-2.929-7.678 0-10.607 2.93-2.929 7.678-2.929 10.607 0l40.637 40.636c2.929 2.929 2.929 7.678 0 10.606-1.464 1.466-3.384 2.198-5.303 2.198z"/></g></g><g><path d="m317.174 103.586c0-33.786-27.388-103.586-61.174-103.586s-61.174 69.8-61.174 103.586 27.389 61.174 61.174 61.174 61.174-27.388 61.174-61.174z" fill="#f6ee86"/><path d="m256 113.819c-4.143 0-7.5-3.358-7.5-7.5v-57.468c0-4.142 3.357-7.5 7.5-7.5s7.5 3.358 7.5 7.5v57.469c0 4.141-3.357 7.499-7.5 7.499z" fill="#f2d98d"/></g><g><path d="m133.167 165.245c-33.786 0-103.586 27.389-103.586 61.175s69.8 61.174 103.586 61.174 61.174-27.389 61.174-61.174c0-33.786-27.389-61.175-61.174-61.175z" fill="#f6ee86"/><path d="m135.899 233.919h-57.467c-4.143 0-7.5-3.358-7.5-7.5s3.357-7.5 7.5-7.5h57.468c4.143 0 7.5 3.358 7.5 7.5-.001 4.143-3.358 7.5-7.501 7.5z" fill="#f2d98d"/></g><g><path d="m194.826 349.253c0 33.786 27.389 103.586 61.174 103.586s61.174-69.8 61.174-103.586-27.388-61.175-61.174-61.175-61.174 27.389-61.174 61.175z" fill="#f6ee86"/><path d="m256 411.488c-4.143 0-7.5-3.358-7.5-7.5v-57.468c0-4.142 3.357-7.5 7.5-7.5s7.5 3.358 7.5 7.5v57.469c0 4.141-3.357 7.499-7.5 7.499z" fill="#f2d98d"/></g><g><path d="m378.833 287.594c33.786 0 103.586-27.389 103.586-61.174 0-33.786-69.8-61.175-103.586-61.175s-61.174 27.389-61.174 61.175c0 33.785 27.389 61.174 61.174 61.174z" fill="#f6ee86"/><path d="m433.568 233.919h-57.468c-4.143 0-7.5-3.358-7.5-7.5s3.357-7.5 7.5-7.5h57.468c4.143 0 7.5 3.358 7.5 7.5 0 4.143-3.357 7.5-7.5 7.5z" fill="#f2d98d"/></g><ellipse cx="256" cy="226.419" fill="#e1ac9a" rx="125.56" ry="125.56" transform="matrix(.707 -.707 .707 .707 -85.122 247.336)"/><path d="m353.658 305.332c-188.404 35.427-190.118-137.465-144.1-195.599-46.354 18.466-79.118 63.748-79.118 116.687 0 69.345 56.215 125.56 125.56 125.56 39.447-.001 74.639-18.197 97.658-46.648z" fill="#d2896f"/><g><g fill="#fff"><ellipse cx="169.913" cy="245.416" rx="31.765" ry="25.296"/><ellipse cx="342.087" cy="245.416" rx="31.765" ry="25.296"/></g><g fill="#4e5660"><path d="m188.425 228.254c-4.143 0-7.5-3.358-7.5-7.5v-12.362c0-4.142 3.357-7.5 7.5-7.5s7.5 3.358 7.5 7.5v12.362c0 4.143-3.358 7.5-7.5 7.5z"/><path d="m256 236.295c-8.996 0-17.551-3.896-23.47-10.689-2.722-3.123-2.396-7.86.727-10.582 3.122-2.72 7.86-2.396 10.581.728 3.069 3.522 7.502 5.543 12.161 5.543s9.092-2.021 12.161-5.543c2.72-3.124 7.459-3.449 10.581-.728 3.123 2.721 3.449 7.459.728 10.582-5.918 6.793-14.473 10.689-23.469 10.689z"/><path d="m340.287 227.91c-4.143 0-7.5-3.358-7.5-7.5 0-3.764-3.062-6.826-6.825-6.826-3.764 0-6.826 3.062-6.826 6.826 0 4.142-3.357 7.5-7.5 7.5s-7.5-3.358-7.5-7.5c0-12.035 9.791-21.826 21.826-21.826 12.034 0 21.825 9.791 21.825 21.826 0 4.142-3.357 7.5-7.5 7.5z"/></g></g></g></svg>