<svg id="Capa_1" enable-background="new 0 0 512 512" height="512" viewBox="0 0 512 512" width="512" xmlns="http://www.w3.org/2000/svg"><g><path d="m330.125 151.678c-9.005-46.314 13.305-88.774 29.403-113.125 5.301-8.019-1.371-18.493-10.903-17.247-21.292 2.782-45.927 10.952-60.291 22.977-3.496 2.927-8.759 1.955-11.038-1.994-7.928-13.736-19.559-28.643-27.458-38.219-4.476-5.426-12.794-5.426-17.271 0-7.899 9.576-19.529 24.483-27.458 38.219-2.279 3.949-7.542 4.921-11.038 1.994-14.364-12.025-38.999-20.194-60.291-22.977-9.532-1.246-16.205 9.228-10.903 17.247 16.098 24.352 38.409 66.811 29.403 113.125z" fill="#e68a97"/><path d="m241.202 78.554c-33.257 0-64.422 4.108-92.996 12.14 5.647 18.514 8.285 39.327 4.074 60.983h177.845c-4.211-21.657-1.573-42.47 4.074-60.984-28.575-8.031-59.74-12.139-92.997-12.139z" fill="#e26e7e"/><path d="m512 138.087c0 63.569-27.617 183.934-61.684 183.934s-61.684-120.365-61.684-183.934c0-63.57 27.617-95.191 61.684-95.191s61.684 31.622 61.684 95.191z" fill="#b0da87"/><path d="m450.316 266.073c-4.142 0-7.5-3.358-7.5-7.5v-150.144c0-4.142 3.358-7.5 7.5-7.5s7.5 3.358 7.5 7.5v150.144c0 4.142-3.358 7.5-7.5 7.5z" fill="#89d47f"/><path d="m498.132 238.426c-12.1-33.412-31.213-63.288-56.597-87.708-15.233-14.654-32.415-27.16-51.316-37.444-1.026 7.652-1.586 15.907-1.586 24.813 0 63.57 27.617 183.934 61.684 183.934 19.286 0 36.504-38.583 47.815-83.595z" fill="#89d47f"/><path d="m482.405 327.098c0-120.767-85.724-217.638-241.202-217.638s-241.203 96.87-241.203 217.638 107.99 183.183 241.202 183.183 241.203-62.416 241.203-183.183z" fill="#eda1ab"/><path d="m170.369 116.981c-110.462 24.936-170.369 109.171-170.369 210.117 0 120.767 107.99 183.183 241.202 183.183 71.414 0 135.568-17.947 179.732-53.197-370.014 22.304-310.482-280.516-250.565-340.103z" fill="#e68a97"/><path d="m360.801 292.76c13.187-13.187 44.782-2.972 67.329 19.575 13.187 13.187 6.802 28.182-6.384 41.369-13.187 13.187-28.182 19.571-41.369 6.385-22.548-22.547-32.763-54.142-19.576-67.329z" fill="#e68a97"/><path d="m508.405 478.233c0 18.649-29.564 33.767-61.451 33.767-18.649 0-24.738-15.118-24.738-33.767s6.089-33.767 24.738-33.767c31.887 0 61.451 15.118 61.451 33.767z" fill="#eda1ab"/><path d="m395.169 411.378c18.649 0 33.767 29.564 33.767 61.451 0 18.649-15.118 24.738-33.767 24.738s-33.767-6.089-33.767-24.738c0-31.887 15.118-61.451 33.767-61.451z" fill="#e26e7e"/><path d="m425.149 456.832c-13.187-13.187-2.972-44.782 19.575-67.329 13.187-13.187 28.182-6.802 41.369 6.385s19.571 28.182 6.384 41.369c-22.547 22.547-54.142 32.762-67.328 19.575z" fill="#e68a97"/><g><g><path d="m187.363 258.004c.007 13.843-14.079 25.072-31.463 25.081-17.383.009-31.481-11.206-31.488-25.049s14.08-25.073 31.463-25.081c17.383-.009 31.481 11.206 31.488 25.049z" fill="#fff"/><path d="m295.019 257.95c.007 13.843 14.105 25.058 31.488 25.049s31.47-11.238 31.463-25.081c-.007-13.844-14.105-25.059-31.488-25.05-17.384.01-31.47 11.239-31.463 25.082z" fill="#fff"/><path d="m272.038 246.63c-.01-19.068-13.824-20.852-30.864-20.844-17.04.009-30.852 1.807-30.843 20.875.01 19.067 13.831 34.518 30.871 34.509 17.04-.008 30.846-15.472 30.836-34.54z" fill="#4e5660"/></g><g fill="#4e5660"><path d="m159.236 238.243c-4.141 0-7.497-3.355-7.5-7.496-.003-6.005 2.333-11.652 6.577-15.9s9.888-6.589 15.894-6.592h.012c6 0 11.642 2.335 15.888 6.577 4.249 4.244 6.59 9.889 6.593 15.894.002 4.142-3.355 7.502-7.497 7.503-.001 0-.002 0-.003 0-4.141 0-7.498-3.355-7.5-7.497-.001-1.999-.78-3.877-2.194-5.289-1.413-1.411-3.29-2.188-5.288-2.188-.001 0-.003 0-.004 0-1.999.001-3.877.78-5.289 2.194-1.412 1.413-2.189 3.292-2.189 5.291.003 4.142-3.354 7.502-7.496 7.504-.001-.001-.003-.001-.004-.001z"/><path d="m293.155 238.176c-4.141 0-7.498-3.355-7.5-7.496-.003-6.005 2.332-11.652 6.577-15.9 4.244-4.248 9.888-6.589 15.894-6.593h.012c6.001 0 11.643 2.336 15.888 6.577 4.248 4.244 6.589 9.889 6.592 15.894.002 4.142-3.354 7.502-7.497 7.503-.001 0-.003 0-.003 0-4.141.001-7.498-3.355-7.5-7.497-.001-1.999-.78-3.877-2.194-5.289-1.413-1.412-3.29-2.189-5.287-2.189-.001 0-.002 0-.004 0-1.999.001-3.877.78-5.29 2.194-1.412 1.414-2.189 3.293-2.188 5.292.002 4.142-3.354 7.501-7.496 7.504-.001 0-.003 0-.004 0z"/></g></g></g></svg>