<svg id="Capa_1" enable-background="new 0 0 512 512" height="512" viewBox="0 0 512 512" width="512" xmlns="http://www.w3.org/2000/svg"><g><path d="m228.456 378.654c.168-1.063 2.166-35.63 2.948-49.047.799-13.584 12.459-23.947 26.042-23.148 12.607.742 22.438 10.841 23.148 23.148.012.205 2.617 44.481 2.627 44.658 2.64 48.28-21.682 100.203-57.667 126.862-15.186 11.25-36.169 9.877-48.163-4.729-11.994-14.605-9.698-35.954 4.729-48.163 14.652-12.398 42.205-37.125 46.336-69.581z" fill="#f6ca8e"/><path d="m283.222 374.264c-.01-.177-2.616-44.453-2.627-44.658-.71-12.307-10.541-22.407-23.148-23.148-13.583-.799-25.243 9.565-26.042 23.148-.783 13.417-2.781 47.984-2.948 49.047-.512 4.023-1.386 7.927-2.549 11.704 9.901-1.715 19.855-2.795 30.092-2.795 9.222 0 18.213.884 27.143 2.311.317-5.22.362-10.436.079-15.609z" fill="#f3a977"/><path d="m493.297 263.434c-19.553-18.027-48.167-27.386-77.674-27.962 11.25-7.898 22.368-16.574 32.569-26.775 21.583-21.583 36.045-49.34 37.159-76.781 1.376-33.89-26.811-62.077-60.701-60.701-27.442 1.114-55.198 15.575-76.781 37.159-9.188 9.188-16.921 18.804-23.857 28.646 1.788-11 2.927-22.362 2.927-34.344 0-30.524-9.401-60.376-28.018-80.568-22.991-24.937-62.853-24.937-85.844 0-18.616 20.192-28.018 50.044-28.018 80.568 0 11.982 1.14 23.343 2.928 34.344-6.936-9.842-14.669-19.459-23.857-28.646-21.583-21.584-49.34-36.045-76.781-37.159-33.89-1.376-62.077 26.811-60.701 60.701 1.114 27.442 15.575 55.198 37.159 76.781 10.201 10.201 21.319 18.876 32.569 26.775-29.507.576-58.121 9.935-77.674 27.962-24.937 22.991-24.937 62.853 0 85.844 20.192 18.616 50.044 28.017 80.568 28.017 57.228 0 100.416-25.789 156.729-25.789s99.501 25.789 156.729 25.789c30.524 0 60.376-9.401 80.568-28.017 24.938-22.991 24.938-62.853.001-85.844z" fill="#f6ca8e"/><path d="m237.426 352.429c-112.379-37.059-89.074-184.019-64.799-234.974-2.698-3.066-5.514-6.097-8.496-9.08-21.583-21.584-49.34-36.045-76.781-37.159-33.89-1.376-62.077 26.811-60.701 60.701 1.114 27.442 15.575 55.198 37.159 76.782 10.201 10.201 21.319 18.876 32.569 26.774-29.507.576-58.121 9.935-77.674 27.962-24.937 22.991-24.937 62.853 0 85.844 20.192 18.616 50.044 28.017 80.568 28.017 50.777-.001 90.509-20.29 138.155-24.867z" fill="#f3a977"/><g><path d="m141.537 191.026c-1.919 0-3.839-.732-5.303-2.197l-36.767-36.767c-2.929-2.929-2.929-7.678 0-10.606 2.929-2.929 7.678-2.929 10.606 0l36.767 36.767c2.929 2.929 2.929 7.678 0 10.606-1.465 1.464-3.384 2.197-5.303 2.197z" fill="#f6ca8e"/><path d="m125.048 313.856h-50.11c-4.142 0-7.5-3.358-7.5-7.5s3.358-7.5 7.5-7.5h50.11c4.142 0 7.5 3.358 7.5 7.5s-3.358 7.5-7.5 7.5z" fill="#f6ca8e"/><g fill="#f3a977"><path d="m370.463 191.026c-1.92 0-3.839-.732-5.303-2.197-2.929-2.929-2.929-7.678 0-10.606l36.767-36.767c2.929-2.929 7.678-2.929 10.606 0 2.929 2.929 2.929 7.678 0 10.606l-36.767 36.767c-1.464 1.464-3.383 2.197-5.303 2.197z"/><path d="m437.062 313.856h-50.11c-4.142 0-7.5-3.358-7.5-7.5s3.358-7.5 7.5-7.5h50.11c4.142 0 7.5 3.358 7.5 7.5s-3.357 7.5-7.5 7.5z"/><path d="m256 135.441c-4.142 0-7.5-3.358-7.5-7.5v-39.561c0-4.142 3.358-7.5 7.5-7.5s7.5 3.358 7.5 7.5v39.561c0 4.142-3.358 7.5-7.5 7.5z"/></g></g><g><g fill="#fff"><ellipse cx="175.258" cy="252.153" rx="29.792" ry="23.725"/><ellipse cx="336.742" cy="252.153" rx="29.792" ry="23.725"/></g><g fill="#4e5660"><path d="m206.801 233.836c-4.142 0-7.5-3.358-7.5-7.5 0-3.684-2.997-6.681-6.681-6.681s-6.68 2.997-6.68 6.681c0 4.142-3.358 7.5-7.5 7.5s-7.5-3.358-7.5-7.5c0-11.955 9.726-21.681 21.68-21.681s21.681 9.726 21.681 21.681c0 4.142-3.358 7.5-7.5 7.5z"/><path d="m333.56 233.836c-4.142 0-7.5-3.358-7.5-7.5 0-3.684-2.997-6.681-6.68-6.681-3.684 0-6.681 2.997-6.681 6.681 0 4.142-3.358 7.5-7.5 7.5s-7.5-3.358-7.5-7.5c0-11.955 9.726-21.681 21.681-21.681s21.68 9.726 21.68 21.681c0 4.142-3.358 7.5-7.5 7.5z"/><path d="m256 257.263c-7.932 0-15.476-3.436-20.696-9.425-2.722-3.123-2.396-7.86.726-10.581 3.122-2.722 7.86-2.397 10.581.726 2.371 2.721 5.793 4.281 9.388 4.281s7.017-1.56 9.388-4.281c2.722-3.123 7.459-3.448 10.582-.726 3.123 2.721 3.448 7.459.726 10.581-5.219 5.989-12.763 9.425-20.695 9.425z"/></g></g></g></svg>