<svg id="Capa_1" enable-background="new 0 0 512 512" height="512" viewBox="0 0 512 512" width="512" xmlns="http://www.w3.org/2000/svg"><g><g><path d="m100.483 264.013c17.243 17.243 17.243 45.199 0 62.443-17.243 17.243-45.2 17.243-62.443 0s-41.488-69.445-24.245-86.688c17.244-17.244 69.445 7.002 86.688 24.245z" fill="#daa985"/><path d="m259.574 467.356c16.442 5.037 44.503 3.259 70.969-4.203-.683-22.968-3.647-48.425-6.818-72.794-2.533-19.456-20.357-33.181-39.813-30.643-19.457 2.532-33.176 20.357-30.644 39.813 3.039 23.346 5.862 47.552 6.306 67.827z" fill="#daa985"/><path d="m330.691 472.696c0-3.125-.052-6.31-.148-9.544-26.377-6.337-58.854.195-70.969 4.203.039 1.809.067 3.598.067 5.34 0 19.62 15.905 35.525 35.525 35.525s35.525-15.904 35.525-35.524z" fill="#565e75"/><path d="m141.371 436.424c-52.423-5.695-90.302-52.809-84.606-105.231 5.694-52.422 52.787-90.301 105.231-84.606 29.904 3.248 43.202 2.964 68.142-5.127 50.158-16.274 104.01 11.191 120.285 61.347s-11.191 104.009-61.347 120.284c-53.133 17.241-93.932 19.176-147.705 13.333z" fill="#e1b89a"/><path d="m224.646 11.664c-11.969-8.954-28.935-6.512-37.889 5.461-10.467 13.992-30.867 28.066-36.227 30.538-13.784 5.434-20.656 20.969-15.354 34.843 5.338 13.966 20.986 20.959 34.948 15.623 13.826-5.284 43.335-26.32 59.984-48.576 8.953-11.971 6.509-28.935-5.462-37.889z" fill="#fae0bd"/><path d="m244.967 161.736c-61.03-10.048-109.892-55.906-134.058-125.815-4.884-14.13 2.611-29.543 16.74-34.427 14.134-4.887 29.542 2.611 34.427 16.74 17.723 51.276 50.284 83.268 91.686 90.084 14.751 2.428 24.74 16.355 22.312 31.106-2.437 14.8-16.406 24.734-31.107 22.312z" fill="#fbf1cf"/><path d="m153.564 110.442c24.758 27.595 56.03 45.47 91.404 51.294 14.701 2.422 28.67-7.511 31.107-22.312 2.428-14.751-7.561-28.678-22.312-31.106-20.676-3.404-39.147-13.088-54.666-28.317-14.451 6.13-27.215 13.975-38.215 23.538-2.545 2.213-4.98 4.519-7.318 6.903z" fill="#fae0bd"/><path d="m357.081 11.664c11.969-8.954 28.935-6.512 37.889 5.461 10.467 13.992 30.867 28.066 36.227 30.538 13.784 5.434 20.656 20.969 15.354 34.843-5.338 13.966-20.987 20.959-34.948 15.623-13.826-5.284-43.335-26.32-59.984-48.576-8.953-11.971-6.509-28.935 5.462-37.889z" fill="#fae0bd"/><path d="m336.759 161.736c61.03-10.048 109.892-55.906 134.058-125.815 4.884-14.13-2.611-29.543-16.74-34.427-14.134-4.887-29.542 2.611-34.427 16.74-17.723 51.276-50.284 83.268-91.686 90.084-14.751 2.428-24.74 16.355-22.312 31.106 2.438 14.8 16.407 24.734 31.107 22.312z" fill="#fbf1cf"/><path d="m428.163 110.442c-2.339-2.384-4.773-4.69-7.318-6.902-11-9.563-23.764-17.409-38.216-23.538-15.519 15.228-33.99 24.913-54.666 28.317-14.751 2.428-24.74 16.355-22.312 31.106 2.438 14.801 16.407 24.734 31.107 22.312 35.375-5.826 66.647-23.701 91.405-51.295z" fill="#fae0bd"/><path d="m205.518 213.962c5.561-5.064 10.019-11.504 12.771-19.062 9.076-24.936-.465-51.3-35.419-64.023-41.035-14.936-92.06-22.513-102.874 3.46-1.996 4.793-2.682 9.754-2.28 14.779 41.401 26.878 67.041 45.324 127.802 64.846z" fill="#e1b89a"/><path d="m77.716 149.115c2.358 29.491 42.474 61.211 78.989 74.501 17.377 6.325 36.027 1.989 48.813-9.654-38.393-43.813-82.575-63.302-127.802-64.847z" fill="#fae0bd"/><path d="m376.209 213.962c-5.561-5.064-10.019-11.504-12.771-19.062-9.076-24.936.465-51.3 35.419-64.023 41.035-14.936 92.06-22.513 102.874 3.46 1.996 4.793 2.682 9.754 2.28 14.779-41.401 26.878-67.041 45.324-127.802 64.846z" fill="#e1b89a"/><path d="m504.011 149.115c-2.358 29.491-42.474 61.211-78.989 74.501-17.377 6.325-36.027 1.989-48.813-9.654 38.393-43.813 82.575-63.302 127.802-64.847z" fill="#fae0bd"/><path d="m230.137 241.46c-24.939 8.092-38.238 8.376-68.142 5.127-14.469-1.571-28.528.18-41.425 4.633 19.116 68.047 88.846 110.256 170.293 110.256 21.668 0 42.603-2.986 62.001-8.697 3.543-16.044 2.995-33.214-2.443-49.972-16.273-50.156-70.126-77.621-120.284-61.347z" fill="#daa985"/><path d="m435.44 212.806c0 71.658-64.729 117.764-144.576 117.764s-144.576-46.107-144.576-117.764 44.796-118.142 144.575-118.142 144.577 46.484 144.577 118.142z" fill="#e7c7af"/><g fill="#e1b89a"><path d="m204.59 471.129c16.442 5.037 44.503 3.259 70.969-4.203-.683-22.968-3.647-48.425-6.818-72.794-2.533-19.456-20.357-33.181-39.813-30.643-19.457 2.532-33.176 20.357-30.644 39.813 3.04 23.346 5.863 47.553 6.306 67.827z"/><path d="m127.413 482.6c11.834-28.931 19.079-75.662 19.079-91.461 0-19.62-15.905-35.525-35.525-35.525s-35.525 15.905-35.525 35.525c0 10.883-7.277 48.29-13.068 63.107 19.012 16.703 43.687 24.693 65.039 28.354z"/></g></g><path d="m275.707 476.47c0-3.125-.052-6.31-.148-9.544-26.377-6.337-58.853.195-70.969 4.203.04 1.809.067 3.598.067 5.34 0 19.62 15.905 35.525 35.525 35.525s35.525-15.905 35.525-35.524z" fill="#64768e"/><g><g fill="#fff"><ellipse cx="203.884" cy="219.997" rx="32.094" ry="25.558"/><ellipse cx="377.843" cy="219.997" rx="32.094" ry="25.558"/></g><g fill="#4e5660"><path d="m222.588 202.895c-4.143 0-7.5-3.358-7.5-7.5v-13.12c0-4.142 3.357-7.5 7.5-7.5s7.5 3.358 7.5 7.5v13.12c0 4.142-3.358 7.5-7.5 7.5z"/><path d="m359.139 202.895c-4.143 0-7.5-3.358-7.5-7.5v-13.12c0-4.142 3.357-7.5 7.5-7.5s7.5 3.358 7.5 7.5v13.12c0 4.142-3.358 7.5-7.5 7.5z"/><path d="m290.863 242.977c-9.067 0-17.69-3.927-23.654-10.774-2.722-3.123-2.396-7.86.727-10.581 3.122-2.721 7.86-2.395 10.581.728 3.116 3.576 7.616 5.628 12.346 5.628s9.229-2.051 12.347-5.628c2.72-3.124 7.458-3.448 10.582-.727 3.122 2.722 3.448 7.459.727 10.582-5.967 6.845-14.589 10.772-23.656 10.772z"/><path d="m290.863 203.636c7.515 0 18-6.611 18-13.455 0-5.001-7.235-6.764-18-6.764s-18 1.762-18 6.764c0 6.844 10.486 13.455 18 13.455z"/></g></g><path d="m62.375 454.246c-.654 1.673-1.29 3.073-1.893 4.098-10.01 16.874-4.445 38.669 12.43 48.678 16.872 10.011 38.669 4.445 48.678-12.428 2.045-3.448 3.989-7.509 5.824-11.994-15.988-16.072-49.348-26.041-65.039-28.354z" fill="#64768e"/></g></svg>