<svg id="Capa_1" enable-background="new 0 0 512 512" height="512" viewBox="0 0 512 512" width="512" xmlns="http://www.w3.org/2000/svg"><g><path d="m79.496 473.709c-26.583-3.673-45.22-28.151-41.656-54.776 8.268-61.774 39.209-144.141 89.696-188.905 20.15-17.867 50.973-16.016 68.842 4.137 17.869 20.152 16.016 50.975-4.137 68.843-25.757 22.837-51.114 79.44-57.728 128.863-3.573 26.695-28.11 45.439-54.805 41.866-.071-.009-.142-.019-.212-.028z" fill="#64768e"/><path d="m432.504 473.709c26.583-3.673 45.22-28.151 41.656-54.776-8.268-61.774-39.209-144.141-89.696-188.905-20.15-17.867-50.973-16.016-68.842 4.137-17.869 20.152-16.016 50.975 4.137 68.843 25.757 22.837 51.114 79.44 57.728 128.863 3.573 26.695 28.11 45.439 54.805 41.866.071-.009.142-.019.212-.028z" fill="#64768e"/><path d="m483.677 278.181c13.893 79.268-79.268 117.923-227.677 117.923s-241.57-38.655-227.677-117.923z" fill="#565e75"/><path d="m509.558 255.499-.007.009c-21.577-37.757-34.955-77.334-46.899-120.248h.001c-30.569-42.39-74.988-74.264-133.003-88.773-9.109 1.837-47.919 3.673-73.65 3.673s-64.54-1.837-73.65-3.673c-58.015 14.508-102.434 46.382-133.003 88.772l.001.001c-9.292 43.542-23.45 82.491-46.899 120.248l-.007-.007c-1.007 6.972-1.793 14.021-2.347 21.139-1.215 15.621 9.472 29.698 24.857 32.664 57.058 11.001 158.296 16.91 231.049 16.91s173.991-5.909 231.049-16.91c15.384-2.966 26.072-17.043 24.857-32.664-.555-7.119-1.342-14.169-2.349-21.141z" fill="#e68a97"/><path d="m180.944 46.831c-57.331 14.67-101.277 46.375-131.599 88.427l.002.002c-9.292 43.542-23.45 82.491-46.899 120.248l-.007-.007c-1.007 6.972-1.794 14.021-2.348 21.139-1.215 15.621 9.472 29.698 24.857 32.664 54.157 10.441 148.11 16.295 219.735 16.863-99.604-60.128-113.555-212.228-63.741-279.336z" fill="#e26e7e"/><path d="m100.48 294.339c0 79.166 69.629 126.105 155.52 126.105s155.52-46.939 155.52-126.105-69.629-139.2-155.52-139.2-155.52 60.034-155.52 139.2z" fill="#64768e"/><path d="m174.776 218.731c-4.154-12.324-14.691-33.855-41.301-66.443-8.432-10.326-6.895-25.531 3.43-33.963 10.324-8.432 25.53-6.894 33.962 3.429 25.047 30.674 41.754 58.115 49.655 81.559 4.257 12.633-2.533 26.324-15.165 30.582-12.628 4.258-26.324-2.53-30.581-15.164z" fill="#565e75"/><path d="m337.224 218.731c4.154-12.324 14.691-33.855 41.301-66.443 8.432-10.326 6.895-25.531-3.43-33.963-10.324-8.432-25.53-6.894-33.962 3.429-25.047 30.674-41.754 58.115-49.655 81.559-4.257 12.633 2.533 26.324 15.165 30.582 12.628 4.258 26.324-2.53 30.581-15.164z" fill="#565e75"/><path d="m256 37.826c-26.591 0-51.139 3.03-73.65 8.66 4.033 37.115 35.462 66.006 73.65 66.006s69.617-28.891 73.65-66.006c-22.511-5.63-47.059-8.66-73.65-8.66z" fill="#64768e"/><path d="m49.348 135.26c-24.79 34.383-40.464 75.683-46.899 120.248 2.872.383 5.8.592 8.777.592 36.693 0 66.438-29.745 66.438-66.438 0-22.506-11.195-42.387-28.316-54.402z" fill="#565e75"/><path d="m462.652 135.26c24.79 34.383 40.464 75.683 46.899 120.248-2.872.383-5.8.592-8.777.592-36.693 0-66.438-29.745-66.438-66.438 0-22.506 11.195-42.387 28.316-54.402z" fill="#64768e"/><g><g fill="#eda1ab"><ellipse cx="175.258" cy="318.207" rx="29.792" ry="23.725"/><ellipse cx="336.742" cy="318.207" rx="29.792" ry="23.725"/></g><g fill="#fff"><path d="m206.801 299.89c-4.143 0-7.5-3.358-7.5-7.5 0-3.684-2.996-6.68-6.68-6.68s-6.681 2.996-6.681 6.68c0 4.142-3.357 7.5-7.5 7.5s-7.5-3.358-7.5-7.5c0-11.955 9.726-21.68 21.681-21.68 11.954 0 21.68 9.725 21.68 21.68 0 4.142-3.358 7.5-7.5 7.5z"/><path d="m333.56 299.89c-4.143 0-7.5-3.358-7.5-7.5 0-3.684-2.997-6.68-6.681-6.68s-6.68 2.996-6.68 6.68c0 4.142-3.357 7.5-7.5 7.5s-7.5-3.358-7.5-7.5c0-11.955 9.726-21.68 21.68-21.68 11.955 0 21.681 9.725 21.681 21.68 0 4.142-3.358 7.5-7.5 7.5z"/><path d="m256 323.317c-7.933 0-15.477-3.436-20.696-9.426-2.722-3.123-2.396-7.86.727-10.582 3.122-2.72 7.859-2.396 10.582.727 2.37 2.72 5.792 4.28 9.388 4.28s7.018-1.56 9.388-4.28c2.721-3.123 7.457-3.448 10.582-.727 3.122 2.721 3.448 7.459.727 10.582-5.221 5.991-12.765 9.426-20.698 9.426z"/></g></g></g></svg>