<svg id="Capa_1" enable-background="new 0 0 512 512" height="512" viewBox="0 0 512 512" width="512" xmlns="http://www.w3.org/2000/svg"><g><path d="m156.131 237.578c-48.721-48.721-95.059-47.343-124.49-17.912-27.336 27.335-30.462 69.258 8.27 114.127l.001-.021c11.301 2.395 48.369 28.079 57.798 47.469 42.749 25.315 89.437 35.788 110.366 14.859 29.431-29.43-3.223-109.801-51.945-158.522z" fill="#64768e"/><path d="m132.625 369.478c-.541 10.04.48 20.044 2.962 29.789 30.04 10.73 57.699 11.625 72.49-3.166 26.512-26.513 2.637-94.361-37.975-143.174-17.981 26.05-34.643 63.937-37.477 116.551z" fill="#565e75"/><g fill="#abb6c4"><path d="m156.131 237.578c-3.476-3.476-6.937-6.667-10.383-9.641-20.294 8.212-42.418 23.027-62.613 43.222s-35.01 42.319-43.222 62.613c2.974 3.446 6.166 6.907 9.641 10.383 14.074 14.074 30.791 26.802 48.157 37.086 8.604-18.256 22.239-37.596 40.075-55.432s37.175-31.471 55.432-40.075c-10.284-17.365-23.012-34.082-37.087-48.156z"/><path d="m320.298 451.896c-13.929-8.692-18.174-27.031-9.482-40.959 8.692-13.929 27.033-18.171 40.958-9.483 14.616 9.122 36.947 15.384 53.076 14.825 16.417-.508 30.151 12.327 30.689 28.735.539 16.41-12.326 30.149-28.736 30.689-28.205.911-62.072-8.561-86.505-23.807z"/><path d="m246.557 508.657c-11.949-6.198-23.939-17.268-28.54-21.74-16.916-16.443-20.697-26.546-22.1-33.51-3.244-16.095 7.173-31.772 23.267-35.016 14.556-2.934 28.76 5.3 33.75 18.798 3.734 5.078 15.335 15.751 21 18.689 14.575 7.56 20.261 25.503 12.701 40.078-7.581 14.616-25.54 20.238-40.078 12.701z"/><path d="m352.034 341.204c-15.453-5.547-23.484-22.571-17.938-38.023 5.547-15.453 22.566-23.484 38.023-17.939 15.909 5.711 46.991 8.601 73.906 6.88 16.377-1.068 30.517 11.383 31.567 27.769 1.049 16.384-11.383 30.518-27.768 31.566-29.103 1.867-70.09-.311-97.79-10.253z"/></g><path d="m497.368 30.109c-34.646 35.95-55.858 80.245-78.189 138.263l-90.106-90.106c36.095-55.646 92.279-74.836 138.263-78.189 17.133-1.249 31.281 12.899 30.032 30.032z" fill="#64768e"/><path d="m497.368 30.109c-3.353 45.984-22.544 102.168-78.189 138.263l-47.221-47.22c40.299-74.253 109.564-100.428 125.41-91.043z" fill="#fae0bd"/><path d="m91.95 30.109c34.646 35.95 55.858 80.245 78.189 138.263l90.106-90.106c-36.095-55.646-92.279-74.836-138.263-78.189-17.133-1.249-31.281 12.899-30.032 30.032z" fill="#64768e"/><path d="m91.95 30.109c3.353 45.984 22.543 102.168 78.189 138.263l47.22-47.22c-40.297-74.253-109.562-100.428-125.409-91.043z" fill="#fae0bd"/><path d="m138.885 324.732c17.53-17.303 36.449-30.569 54.332-38.997-6.754-11.405-14.567-22.524-23.118-32.804-12.407 17.975-24.173 41.601-31.214 71.801z" fill="#9aa3b1"/><path d="m294.659 469.615c72.445 0 134.099-44.168 131.173-98.475-5.721-106.201-76.787-159.396-131.173-159.396s-125.452 53.195-131.173 159.396c-2.926 54.308 58.728 98.475 131.173 98.475z" fill="#9aa3b1"/><path d="m294.659 336.167c45.391 0 84.495-8.83 118.965-26.919-23.705-64.971-76.434-97.504-118.965-97.504s-95.26 32.533-118.965 97.504c34.47 18.089 73.574 26.919 118.965 26.919z" fill="#8b97a5"/><path d="m487.822 139.963c-40.362-33.933-110.509-83.127-193.163-83.127s-152.8 49.195-193.163 83.127c-14.692 12.352-17.489 33.834-6.595 49.637 7.393 10.724 14.874 20.822 22.574 30.251l.001-.001c28.272 8.088 40.286 25.151 44.38 43.954 34.703 26.574 76.352 41.459 132.804 41.459s98.101-14.885 132.804-41.459c4.093-18.803 16.107-35.866 44.379-43.954l.001.001c7.699-9.428 15.181-19.526 22.574-30.251 10.893-15.803 8.096-37.286-6.596-49.637z" fill="#abb6c4"/><path d="m193.933 135.393c-24.71 24.71-38.34 76.314-76.458 84.456 13.827 16.932 28.363 31.69 44.38 43.954 55.504-23.887 79.525-57.521 86.694-73.795 6.415-14.563 13.224-40.48 0-54.616-14.57-15.576-39.534-15.081-54.616.001z" fill="#64768e"/><path d="m395.385 135.393c24.71 24.71 38.34 76.314 76.457 84.456-13.827 16.932-28.363 31.69-44.38 43.954-55.504-23.887-79.525-57.521-86.694-73.795-6.415-14.563-13.224-40.48 0-54.616 14.571-15.576 39.535-15.081 54.617.001z" fill="#64768e"/><path d="m244.762 416.58c-13.969-10.158-25.552-26.361-32.809-38.165-8.599-13.986-4.231-32.296 9.755-40.894 13.985-8.602 32.295-4.233 40.895 9.755 7.692 12.511 14.386 19.225 17.128 21.219 13.279 9.656 16.215 28.249 6.559 41.527-9.669 13.295-28.267 16.202-41.528 6.558z" fill="#abb6c4"/><g><g fill="#eda1ab"><ellipse cx="210.228" cy="189.403" rx="31.153" ry="24.809"/><ellipse cx="379.091" cy="189.403" rx="31.154" ry="24.809"/></g><g fill="#4e5660"><path d="m228.384 173.02c-4.142 0-7.5-3.357-7.5-7.5v-12.735c0-4.143 3.358-7.5 7.5-7.5s7.5 3.357 7.5 7.5v12.735c0 4.143-3.358 7.5-7.5 7.5z"/><path d="m360.934 173.02c-4.142 0-7.5-3.357-7.5-7.5v-12.735c0-4.143 3.358-7.5 7.5-7.5s7.5 3.357 7.5 7.5v12.735c0 4.143-3.358 7.5-7.5 7.5z"/><path d="m294.659 208.82c-8.864 0-17.294-3.839-23.128-10.532-2.721-3.123-2.396-7.86.727-10.582 3.123-2.721 7.86-2.396 10.582.727 2.984 3.424 7.292 5.388 11.819 5.388s8.835-1.964 11.819-5.388c2.721-3.123 7.459-3.447 10.582-.727 3.122 2.722 3.448 7.459.727 10.582-5.834 6.693-14.264 10.532-23.128 10.532z"/><path d="m294.659 172.412c7.295 0 17.473-6.418 17.473-13.061 0-4.855-7.023-6.566-17.473-6.566s-17.473 1.711-17.473 6.566c0 6.644 10.178 13.061 17.473 13.061z"/></g></g></g></svg>