<svg id="Capa_1" enable-background="new 0 0 512 512" height="512" viewBox="0 0 512 512" width="512" xmlns="http://www.w3.org/2000/svg"><g><path d="m240.169 88.646c32.695-32.695 75.597-48.864 109.776-56.86 29.916-6.999 56.748 19.833 49.749 49.749-7.996 34.179-24.165 77.082-56.86 109.776-32.695 32.695-75.597 48.864-109.776 56.86-29.916 6.999-56.748-19.833-49.749-49.749 7.996-34.179 24.165-77.082 56.86-109.776z" fill="#b0da87"/><path d="m387.809 120.13c-14.743-4.233-29.794-6.398-44.995-6.398-26.293 0-51.944 6.622-75.285 19.305-14.703-9.053-30.837-15.604-48.008-19.55-19.274 27.795-30.12 58.895-36.212 84.935-6.999 29.916 19.833 56.748 49.749 49.749 34.179-7.996 77.082-24.165 109.776-56.86 21.163-21.162 35.395-46.599 44.975-71.181z" fill="#89d47f"/><path d="m255.543 183.437c-1.919 0-3.839-.732-5.303-2.196-2.929-2.93-2.929-7.678 0-10.607l80.036-80.036c2.929-2.928 7.678-2.928 10.606 0 2.929 2.93 2.929 7.678 0 10.607l-80.036 80.036c-1.464 1.464-3.383 2.196-5.303 2.196z" fill="#89d47f"/><path d="m54.409 219.475c-30.68-30.68-45.853-70.938-53.356-103.011-6.567-28.073 18.611-53.251 46.683-46.683 32.073 7.503 72.331 22.676 103.011 53.356s45.853 70.938 53.356 103.011c6.567 28.072-18.611 53.25-46.683 46.683-32.073-7.503-72.331-22.676-103.011-53.356z" fill="#b0da87"/><path d="m150.747 123.137c-3.385-3.385-6.892-6.57-10.486-9.588-30.546 7.075-57.884 22.393-79.268 44.841-10.475 10.996-19.308 23.415-26.458 37.06 5.772 8.409 12.355 16.506 19.874 24.026 30.68 30.68 70.938 45.853 103.011 53.356 28.072 6.567 53.25-18.611 46.683-46.683-7.503-32.074-22.676-72.333-53.356-103.012z" fill="#89d47f"/><path d="m136.321 212.549c-1.919 0-3.839-.732-5.303-2.196l-78.176-78.177c-2.929-2.93-2.929-7.678 0-10.607 2.929-2.928 7.678-2.928 10.606 0l78.176 78.177c2.929 2.93 2.929 7.678 0 10.607-1.464 1.463-3.384 2.196-5.303 2.196z" fill="#89d47f"/><path d="m179.914 184.719c-14.923 0-27.021-12.097-27.021-27.021 0-35.144-10.48-63.336-32.979-88.726-9.897-11.168-8.867-28.246 2.302-38.143 11.166-9.899 28.244-8.869 38.143 2.301 31.341 35.364 46.575 76.111 46.575 124.567 0 14.925-12.097 27.022-27.02 27.022z" fill="#e1ac9a"/><path d="m145.798 112.353c4.783 13.868 7.095 28.84 7.095 45.345 0 14.923 12.097 27.021 27.02 27.021s27.02-12.097 27.02-27.021c0-16.657-1.8-32.402-5.436-47.332-7.072-.857-14.276-1.293-21.585-1.293-11.676 0-23.088 1.112-34.114 3.28z" fill="#d2896f"/><path d="m506.632 367.275c-2.075-4.39-2.387-9.409-1.143-14.103 13.105-49.474-3.342-108.778-51.718-157.154-68.712-68.712-150.94-64.493-204.26-11.174-53.319 53.319-57.538 135.548 11.174 204.26 48.376 48.376 107.68 64.823 157.154 51.718 4.694-1.243 9.713-.931 14.103 1.143 20.813 9.836 46.423 6.158 63.635-11.055 17.212-17.212 20.891-42.822 11.055-63.635z" fill="#f6ee86"/><path d="m413.91 441.783c-95.705-91.241-102.306-228.833-47.793-295.007-43.139-7.924-84.964 6.425-116.607 38.068-53.319 53.319-57.538 135.548 11.174 204.26 47.104 47.104 104.564 63.924 153.226 52.679z" fill="#f2d98d"/><path d="m316.446 292.313c0-97.173-61.128-152.334-136.532-152.334-75.405 0-136.533 55.161-136.533 152.334 0 68.419 30.308 121.986 74.563 147.701 4.303 2.501 7.57 6.442 9.279 11.117 7.856 21.494 28.477 36.839 52.691 36.839s44.835-15.345 52.691-36.839c1.709-4.675 4.975-8.616 9.279-11.117 44.254-25.716 74.562-79.282 74.562-147.701z" fill="#f6ee86"/><path d="m155.02 421.839c-56.914-38.87-92.679-198.53-24.787-273.08-50.838 19.139-86.852 68.969-86.852 143.553 0 68.451 30.337 122.035 74.625 147.736 4.292 2.491 7.513 6.42 9.217 11.081 7.856 21.494 28.477 36.839 52.69 36.839 14.325 0 27.391-5.372 37.301-14.21-39.672-1.117-53.104-21.827-54.631-38.882-.472-5.273-3.19-10.05-7.563-13.037z" fill="#f2d98d"/><g><g fill="#eda1ab"><ellipse cx="99.111" cy="309.008" rx="23.743" ry="29.815" transform="matrix(.005 -1 1 .005 -210.336 406.738)"/><ellipse cx="260.716" cy="309.727" rx="23.743" ry="29.815" transform="matrix(.004 -1 1 .004 -50.169 569.063)"/></g><path d="m243.446 293.465c-.011 0-.023 0-.034 0-4.142-.018-7.485-3.392-7.467-7.533l.022-4.932c.018-4.131 3.373-7.467 7.499-7.467h.034c4.142.019 7.485 3.392 7.467 7.533l-.022 4.932c-.018 4.131-3.372 7.467-7.499 7.467z" fill="#4e5660"/><path d="m116.593 292.899c-.011 0-.022 0-.034 0-4.142-.018-7.485-3.392-7.467-7.533l.022-4.931c.019-4.131 3.373-7.467 7.499-7.467h.034c4.142.018 7.485 3.392 7.467 7.533l-.022 4.931c-.018 4.131-3.373 7.467-7.499 7.467z" fill="#4e5660"/><g><path d="m180.638 325.197c-4.142 0-7.5-3.357-7.5-7.5s3.358-7.5 7.5-7.5c2.147 0 3.894-1.747 3.894-3.894s-1.747-3.893-3.894-3.893c-4.142 0-7.5-3.358-7.5-7.5 0-4.143 3.358-7.5 7.5-7.5 2.147 0 3.894-1.747 3.894-3.894 0-2.146-1.747-3.894-3.894-3.894-4.142 0-7.5-3.357-7.5-7.5s3.358-7.5 7.5-7.5c10.418 0 18.894 8.476 18.894 18.894 0 4.275-1.428 8.224-3.831 11.394 2.403 3.17 3.831 7.118 3.831 11.393-.001 10.419-8.476 18.894-18.894 18.894z" fill="#4e5660"/></g></g></g></svg>