<svg id="Capa_1" enable-background="new 0 0 512 512" height="512" viewBox="0 0 512 512" width="512" xmlns="http://www.w3.org/2000/svg"><g><path d="m169.598 297.877c0-26.065-69.757-111.669-156.042-90.925-10.751 2.585-12.602 16.995-2.878 22.259 69.427 37.589 65.275 93.86 52.242 151.033h69.79z" fill="#f6ca8e"/><path d="m222.706 234.163c0-33.855 21.071-129.951 86.493-182.435 9.256-7.425 22.622 1.531 19.177 12.886-15.24 50.231-24.859 131.578-3.047 169.549v91.982h-102.669z" fill="#f6ca8e"/><path d="m325.329 234.163c-9.588-16.691-13.101-41.765-12.735-68.891-11.885 13.464-22.446 27.727-31.326 42.232-11.109-20.354-24.455-39.954-39.888-57.469-13.416 34.777-18.674 67.218-18.674 84.129l-.045 91.982h102.668z" fill="#f3a977"/><path d="m449.814 380.244c-26.845-61.048 18.206-143.911 46.629-183.126 5.083-7.013-1.252-16.615-9.704-14.723-47.12 10.549-110.113 44.438-125.209 100.68v76.559l16.388 20.611h71.896z" fill="#f6ca8e"/><path d="m407.592 371.608c-15.57-53.495 6.886-121.396 33.061-172.9-35.226 17.179-68.666 45.409-79.123 84.367v76.559l16.388 20.61h32.188z" fill="#f3a977"/><path d="m169.598 297.877c0-14.908-22.826-49.286-58.506-72.11 1.852 31.296-1.762 63.039-4.971 91.203-2.612 22.931-5.074 44.614-4.337 63.274h30.925z" fill="#f3a977"/><path d="m282.473 297.215c0-59.639 70.651-152.124 150.475-180.531 9.09-3.235 16.975 7.12 11.484 15.053-35.363 51.092-91.903 161.27-66.513 248.508h-245.209c-2.901-58.741 34.185-168.313-19.221-253.341-4.584-7.299 1.766-16.672 10.227-15.028 91.984 17.863 147.981 127.87 158.757 185.339z" fill="#f6ee86"/><path d="m477.735 462.989h-443.47c-22.817 0-39.252-21.895-32.882-43.805 6.709-23.072 27.849-38.941 51.876-38.941h405.481c24.027 0 45.167 15.869 51.876 38.941 6.371 21.91-10.064 43.805-32.881 43.805z" fill="#e1ac9a"/><path d="m167.767 380.244h-114.508c-24.027 0-45.167 15.869-51.876 38.941-6.371 21.91 10.064 43.805 32.882 43.805h152.799c-18.651-16.565-28.288-51.394-19.297-82.746z" fill="#d2896f"/><path d="m219.811 330.556c-3.826 0-7.094-2.914-7.458-6.8-3.813-40.624-23.824-99.717-34.94-118.21-2.134-3.551-.986-8.158 2.564-10.292 3.55-2.138 8.158-.986 10.292 2.564 12.087 20.11 32.957 81.264 37.018 124.536.387 4.124-2.643 7.781-6.767 8.168-.237.022-.475.034-.709.034z" fill="#f2d98d"/><path d="m321.206 317.829c-.225 0-.452-.01-.68-.03-4.125-.371-7.169-4.016-6.798-8.142 4.784-53.226 33.921-95.216 37.228-99.828 2.414-3.368 7.098-4.139 10.465-1.727 3.367 2.413 4.139 7.099 1.726 10.465-3.063 4.273-30.051 43.165-34.479 92.434-.351 3.896-3.623 6.828-7.462 6.828z" fill="#f2d98d"/><g><circle cx="68.724" cy="414.167" fill="#e1ac9a" r="7.45"/><g fill="#d2896f"><ellipse cx="186.631" cy="429.424" rx="7.45" ry="7.45" transform="matrix(.707 -.707 .707 .707 -248.986 257.743)"/><circle cx="340.706" cy="421.974" r="7.45"/><ellipse cx="446.245" cy="429.424" rx="7.45" ry="7.45" transform="matrix(.707 -.707 .707 .707 -172.946 441.318)"/></g></g></g></svg>