<svg id="Capa_1" enable-background="new 0 0 512 512" height="512" viewBox="0 0 512 512" width="512" xmlns="http://www.w3.org/2000/svg"><g><path d="m336.055 370.418h-14.891c-7.596 0-13.351-6.858-12.032-14.339l22.435-127.238h-149.724l-23.495 133.249c-2.792 15.834 9.389 30.35 25.467 30.35h23.52c7.596 0 13.351 6.858 12.032 14.339l-15.901 90.181c-2.12 12.02 12.211 19.883 21.211 11.638l121.741-111.533c10.314-9.45 3.628-26.647-10.363-26.647z" fill="#f6ee86"/><path d="m181.843 228.841-18.304 103.808c21.452-5.691 41.541-13.231 92.461-13.231 26.472 0 44.543 2.004 58.764 4.725l16.804-95.302z" fill="#f2d98d"/><ellipse cx="115.736" cy="91.675" fill="#abb6c4" rx="66.541" ry="66.541" transform="matrix(.707 -.707 .707 .707 -30.926 108.689)"/><circle cx="400.156" cy="78.036" fill="#abb6c4" r="78.036"/><path d="m120.102 441.278c0-22.177-19.773-57.626-36.634-81.073-6.839-9.51-20.958-9.51-27.797 0-16.862 23.447-36.634 58.896-36.634 81.073 0 27.909 22.624 50.533 50.533 50.533 27.908 0 50.532-22.625 50.532-50.533z" fill="#a3defe"/><path d="m494.3 342.8c0-22.177-19.773-57.626-36.634-81.073-6.839-9.51-20.957-9.51-27.797 0-16.862 23.447-36.634 58.896-36.634 81.073 0 27.908 22.624 50.533 50.533 50.533 27.907 0 50.532-22.625 50.532-50.533z" fill="#ceeafb"/><path d="m483.57 305.401c-7.197-15.42-16.96-31.236-25.905-43.674-6.839-9.51-20.957-9.51-27.797 0-15.891 22.097-34.36 54.849-36.435 77.111 34.371.075 65.97-12.565 90.137-33.437z" fill="#a3defe"/><path d="m373.526 102.109c-7.756 1.69-15.48-2.856-17.727-10.469-12.721-43.097-52.579-74.553-99.799-74.553s-87.077 31.456-99.799 74.553c-2.247 7.612-9.97 12.16-17.725 10.469-63.426-13.83-126.681 34.582-125.99 102.889.592 58.568 50.303 104.535 108.851 102.892 44.005-1.235 51.859-19.377 134.664-19.377 82.825 0 90.662 18.151 134.696 19.378 58.603 1.633 108.301-44.407 108.82-103.03.603-68.3-62.652-116.557-125.991-102.752z" fill="#64768e"/><path d="m162.55 180.005c-27.618-20.315-26.845-58.366-15.308-78.601-2.701 1.061-5.728 1.367-8.766.705-63.191-13.779-126.212 34.224-125.995 102.13.188 58.744 49.664 105.143 108.389 103.663 35.66-.899 47.609-12.851 93.933-17.529-63.706-13.414-61.797-70.774-48.821-94.494 2.953-5.4 1.526-12.227-3.432-15.874z" fill="#565e75"/><g><g><ellipse cx="174.042" cy="189.426" fill="#eda1ab" rx="30.241" ry="24.082"/><ellipse cx="337.958" cy="189.426" fill="#eda1ab" rx="30.241" ry="24.082"/><ellipse cx="256" cy="173.602" fill="#4e5660" rx="20.946" ry="25.54"/></g><g fill="#4e5660"><path d="m191.67 176.395c-4.142 0-7.5-3.357-7.5-7.5v-10.68c0-4.143 3.358-7.5 7.5-7.5s7.5 3.357 7.5 7.5v10.68c0 4.143-3.358 7.5-7.5 7.5z"/><path d="m320.337 176.395c-4.142 0-7.5-3.357-7.5-7.5v-10.68c0-4.143 3.358-7.5 7.5-7.5s7.5 3.357 7.5 7.5v10.68c0 4.143-3.358 7.5-7.5 7.5z"/><path d="m203.854 160.485c-.643 0-1.296-.083-1.946-.258l-24.791-6.642c-4.001-1.071-6.376-5.185-5.304-9.186 1.073-4.001 5.19-6.377 9.186-5.303l24.791 6.643c4.001 1.071 6.375 5.184 5.304 9.186-.898 3.35-3.929 5.56-7.24 5.56z"/><path d="m308.153 160.485c-3.312 0-6.342-2.21-7.24-5.561-1.072-4.001 1.303-8.114 5.304-9.186l24.792-6.643c4-1.076 8.113 1.302 9.185 5.303s-1.303 8.114-5.304 9.186l-24.792 6.642c-.649.176-1.303.259-1.945.259z"/></g></g></g></svg>