<svg id="Capa_1" enable-background="new 0 0 512 512" height="512" viewBox="0 0 512 512" width="512" xmlns="http://www.w3.org/2000/svg"><g><path d="m332.887 89.072c-22.363 22.363-31.741 53.283-35.599 77.708-3.4 21.523 15.233 40.156 36.756 36.756 24.425-3.858 55.345-13.237 77.708-35.599 22.363-22.363 31.741-53.283 35.599-77.708 3.4-21.523-15.233-40.156-36.756-36.756-24.425 3.858-55.346 13.236-77.708 35.599z" fill="#f6ee86"/><path d="m397.805 157.978c-5.994-20.096-17.459-42.326-32.773-63.763.401-5.146.09-10.389-.948-15.633-.67-3.387-1.513-6.704-2.49-9.951-10.263 5.182-20.118 11.85-28.708 20.44-22.363 22.363-31.741 53.283-35.599 77.708-3.4 21.523 15.233 40.156 36.756 36.756 21.018-3.32 46.841-10.736 67.887-26.988-.857-6.011-2.227-12.209-4.125-18.569z" fill="#f2d98d"/><path d="m350.115 158.209c-1.919 0-3.839-.732-5.304-2.196-2.929-2.93-2.929-7.678 0-10.607l49.508-49.509c2.93-2.928 7.678-2.928 10.607 0 2.929 2.93 2.929 7.678 0 10.607l-49.508 49.509c-1.464 1.464-3.384 2.196-5.303 2.196z" fill="#f2d98d"/><g><path d="m332.729 442.776c-9.123-30.729-20.166-87.386-20.166-103.711h-113.125c0 16.325-11.043 72.982-20.166 103.711z" fill="#e1ac9a"/><path d="m192.283 388.024c17.121 15.748 38.469 23.726 63.717 23.726s46.595-7.978 63.717-23.726c-4.159-21.019-7.154-40.458-7.154-48.959h-113.126c0 8.5-2.995 27.94-7.154 48.959z" fill="#d2896f"/><path d="m350.407 195.01c39.863 71.594 59.877 85.408 66.456 118.485 7.684 38.634-40.725 67.604-89.819 37.291-6.247-3.857-14.426-2.164-18.751 3.768-12.675 17.388-28.958 26.29-52.293 26.29s-39.619-8.902-52.293-26.29c-4.325-5.933-12.504-7.625-18.751-3.768-49.093 30.313-97.503 1.343-89.819-37.291 6.579-33.077 26.592-46.891 66.456-118.485z" fill="#f6ee86"/><path d="m161.593 195.01c-39.863 71.594-59.877 85.408-66.456 118.485-7.684 38.634 40.725 67.604 89.819 37.291 3.629-2.241 7.907-2.597 11.706-1.348-14.17-36.025-2.958-111.193 10.435-129.737v-24.691z" fill="#f2d98d"/><path d="m151.41 221.406c24.995 24.995 66.287 21.779 91.86-3.632 7.091-7.046 18.371-7.045 25.463 0 25.565 25.398 66.853 28.636 91.858 3.632 46.483-46.483-59.996-176.313-104.591-176.313s-151.074 129.83-104.59 176.313z" fill="#f6ca8e"/><path d="m229.901 228.243c-51.14-17.481-18.482-92.637-8.57-118.125v-49.53c-48.207 35.831-106.549 124.191-69.921 160.819 20.991 20.991 53.475 22.077 78.491 6.836z" fill="#f3a977"/><path d="m256 130.565c36.76 0 83.856-15.198 77.767-45.985-8.32-42.059-57.594-84.58-77.767-84.58s-69.447 42.521-77.767 84.58c-6.089 30.786 41.007 45.985 77.767 45.985z" fill="#f6ee86"/><path d="m249.065 1.264c-22.778 7.328-63.353 45.505-70.832 83.316-5.086 25.715 26.932 40.551 59.04 44.743-31.993-29.668-10.571-105.871 11.792-128.059z" fill="#f2d98d"/><path d="m469.217 512h-426.434c-18.111 0-29.045-20.041-19.243-35.27 13.622-21.164 37.066-33.954 62.235-33.954h340.449c25.169 0 48.613 12.79 62.235 33.954 9.803 15.229-1.131 35.27-19.242 35.27z" fill="#f6ca8e"/><path d="m201.508 442.776h-115.733c-25.169 0-48.613 12.79-62.235 33.954-9.802 15.229 1.132 35.27 19.243 35.27h181.034c-25.869-18.669-25.817-52.214-22.309-69.224z" fill="#f3a977"/></g><g><g fill="#eda1ab"><ellipse cx="174.042" cy="306.909" rx="30.241" ry="24.082"/><ellipse cx="337.958" cy="306.909" rx="30.241" ry="24.082"/></g><g fill="#4e5660"><path d="m191.667 291.227c-4.142 0-7.5-3.357-7.5-7.5v-12.362c0-4.143 3.358-7.5 7.5-7.5s7.5 3.357 7.5 7.5v12.362c0 4.142-3.358 7.5-7.5 7.5z"/><path d="m320.333 291.227c-4.143 0-7.5-3.357-7.5-7.5v-12.362c0-4.143 3.357-7.5 7.5-7.5s7.5 3.357 7.5 7.5v12.362c0 4.142-3.357 7.5-7.5 7.5z"/><path d="m256 298.586c-8.669 0-16.911-3.754-22.616-10.3-2.721-3.123-2.396-7.86.727-10.582 3.123-2.721 7.861-2.396 10.582.727 2.855 3.276 6.976 5.155 11.307 5.155s8.452-1.879 11.307-5.155c2.723-3.123 7.457-3.448 10.582-.727 3.122 2.722 3.448 7.459.727 10.582-5.705 6.546-13.948 10.3-22.616 10.3z"/></g></g></g></svg>