<svg id="Capa_1" enable-background="new 0 0 512 512" height="512" viewBox="0 0 512 512" width="512" xmlns="http://www.w3.org/2000/svg"><g><path d="m494.93 213.518 9.24-3.382c3.255-1.191 5.53-4.165 5.818-7.619 1.373-16.416 2.011-32.12 2.011-42.435 0-23.967-3.441-77.036-11.553-100.516-2.082-6.027-8.003-9.824-14.363-9.365-64.032 4.615-133.324-8.212-180.72-8.212s-116.688 12.826-180.721 8.212c-6.413-.462-12.323 3.419-14.409 9.501-2.182 6.362-4.025 14.866-5.552 24.362-.307 1.908.312 3.85 1.678 5.216l12.664 12.664c3.969 3.969 2.006 10.755-3.468 11.993l-10.485 2.37c-2.567.58-4.458 2.771-4.66 5.395-1.148 14.921-1.685 28.918-1.685 38.379 0 23.967 3.442 77.036 11.553 100.516 2.082 6.027 8.003 9.823 14.363 9.365 64.032-4.614 133.324 8.212 180.72 8.212s116.688-12.826 180.72-8.212c6.426.463 12.334-3.438 14.421-9.534 1.939-5.66 3.609-13.012 5.028-21.247.679-3.94-1.352-7.857-4.964-9.571l-6.243-2.961c-5.71-2.706-5.33-10.959.607-13.131z" fill="#f6ca8e"/><path d="m124.642 50.201c-6.413-.462-12.323 3.419-14.409 9.501-2.182 6.362-4.025 14.866-5.553 24.362-.307 1.908.312 3.85 1.679 5.216l12.664 12.664c3.969 3.969 2.006 10.755-3.468 11.993l-10.485 2.371c-2.567.58-4.458 2.771-4.66 5.395-1.148 14.921-1.685 28.918-1.685 38.379 0 23.967 3.442 77.036 11.553 100.516 2.082 6.027 8.003 9.824 14.363 9.365 53.866-3.882 111.451 4.577 156.595 7.361-52.178-40.793-60.114-171.756-48.348-230.508-34.521 3.057-72.216 5.982-108.246 3.385z" fill="#f3a977"/><g><g fill="#f3a977"><path d="m452.811 163.869c-8.139 0-16.279-.621-20.39-1.135-4.11-.514-7.026-4.263-6.513-8.372.514-4.111 4.267-7.018 8.372-6.513 7.206.901 23.897 1.706 31.508.104 4.053-.86 8.03 1.74 8.884 5.794.853 4.054-1.74 8.031-5.794 8.884-4.349.916-10.207 1.238-16.067 1.238z"/><path d="m272.87 181.98c-10.171 0-20.921-.961-29.903-3.38-4-1.077-6.369-5.192-5.292-9.192s5.191-6.368 9.192-5.292c13.538 3.646 34.029 3.413 46.44 1.345 4.091-.69 7.95 2.078 8.631 6.164.682 4.085-2.078 7.95-6.164 8.631-6.316 1.053-14.408 1.724-22.904 1.724z"/><path d="m355.577 107.141c-.569 0-1.146-.065-1.725-.201-9.475-2.229-24.41-4.535-33.006-4.535-4.143 0-7.5-3.357-7.5-7.5s3.357-7.5 7.5-7.5c11.352 0 28.013 2.95 36.441 4.934 4.032.949 6.531 4.986 5.583 9.019-.811 3.453-3.892 5.783-7.293 5.783z"/></g><path d="m136.136 154.668c-2.895 0-5.653-1.687-6.882-4.512-1.651-3.798.089-8.217 3.888-9.868 10.252-4.458 26.175-7.711 39.621-8.096 4.152-.088 7.593 3.142 7.711 7.283.118 4.14-3.143 7.593-7.283 7.711-13.456.385-27.092 3.824-34.067 6.857-.976.425-1.99.625-2.988.625z" fill="#f6ca8e"/></g><path d="m177.293 287.236c6.27.258 12.525.604 18.757 1.011 7.919.518 14.618-5.785 14.618-13.721v-228.886c0-7.936-6.699-14.239-14.618-13.721-6.232.407-12.487.753-18.757 1.011-7.396.304-13.256 6.34-13.256 13.743v226.82c0 7.402 5.861 13.439 13.256 13.743z" fill="#8b97a5"/><path d="m433.432 287.236c-6.27.258-12.525.604-18.757 1.011-7.919.518-14.618-5.785-14.618-13.721v-228.886c0-7.936 6.699-14.239 14.618-13.721 6.232.407 12.487.753 18.757 1.011 7.396.304 13.256 6.34 13.256 13.743v226.82c.001 7.402-5.86 13.439-13.256 13.743z" fill="#abb6c4"/><path d="m396.064 352.481 12.158-5.659c3.025-1.408 4.918-4.479 4.803-7.814-.918-26.608-4.421-67.514-11.249-87.444-2.088-6.094-7.998-9.991-14.424-9.528-64.031 4.613-133.321-8.212-180.716-8.212s-116.684 12.826-180.714 8.212c-6.349-.457-12.278 3.32-14.359 9.336-2.199 6.355-4.054 14.883-5.592 24.418-.502 3.112.626 6.269 2.971 8.376l10.161 9.13c2.822 2.536 1.856 7.173-1.744 8.371l-9.286 3.089c-3.541 1.178-6.044 4.36-6.334 8.081-1.185 15.183-1.739 29.471-1.739 39.08 0 9.014.488 22.147 1.527 36.272.238 3.231 2.148 6.106 5.031 7.584l13.012 6.673c3.21 1.646 3.634 6.064.797 8.291l-10.942 8.589c-2.651 2.08-3.982 5.435-3.445 8.762 1.535 9.509 3.386 18.015 5.579 24.359 2.082 6.023 8.008 9.81 14.364 9.352 64.031-4.613 133.32 8.212 180.715 8.212s116.684-12.826 180.715-8.212c6.342.457 12.271-3.309 14.352-9.317 5.881-16.981 9.311-49.513 10.756-75.279.186-3.326-1.643-6.438-4.633-7.909l-11.882-5.847c-4.582-2.255-4.511-8.811.118-10.966z" fill="#f6ee86"/><path d="m196.434 469.828c-65.199-46.749-62.79-185.168-58.584-231.505-35.514 3.167-74.61 6.401-111.927 3.713-6.349-.457-12.278 3.32-14.359 9.336-2.199 6.355-4.054 14.883-5.592 24.418-.502 3.112.626 6.269 2.971 8.376l10.161 9.13c2.822 2.536 1.856 7.174-1.744 8.371l-9.286 3.089c-3.542 1.178-6.044 4.36-6.335 8.081-1.185 15.183-1.739 29.471-1.739 39.08 0 9.014.488 22.147 1.527 36.272.238 3.231 2.148 6.106 5.031 7.584l13.012 6.673c3.21 1.646 3.634 6.064.797 8.291l-10.943 8.588c-2.65 2.08-3.982 5.435-3.445 8.762 1.535 9.509 3.386 18.015 5.579 24.358 2.082 6.023 8.008 9.81 14.364 9.352 59.58-4.292 123.701 6.508 170.512 8.031z" fill="#f2d98d"/><g fill="#f2d98d"><path d="m226.431 436.591c-.296 0-.585-.001-.874-.003-4.142-.034-7.472-3.42-7.438-7.563.034-4.12 3.386-7.438 7.499-7.438h.063c11.911.092 31.676-2.159 41.942-4.247 4.067-.825 8.019 1.796 8.845 5.855.825 4.06-1.796 8.019-5.855 8.845-10.977 2.233-31.097 4.551-44.182 4.551z"/><path d="m144.152 305.838c-3.79 0-7.045-2.863-7.45-6.717-.434-4.119 2.555-7.81 6.675-8.243 3.741-.393 22.903-2.356 32.749-2.356 4.143 0 7.5 3.357 7.5 7.5s-3.357 7.5-7.5 7.5c-7.055 0-21.206 1.226-31.181 2.274-.266.028-.531.042-.793.042z"/><path d="m198.38 382.694c-11.411 0-23.668-.897-30.682-2.786-3.999-1.077-6.369-5.192-5.292-9.192s5.191-6.369 9.192-5.292c8.118 2.186 28.822 2.979 41.803 1.603 4.131-.441 7.813 2.548 8.249 6.667.438 4.119-2.548 7.813-6.667 8.249-4.677.496-10.52.751-16.603.751z"/><path d="m257.296 284.827c-.605 0-1.221-.074-1.834-.228-13.242-3.328-21.845-4.922-34.631-4.922-.108 0-.219.003-.323 0-4.136 0-7.492-3.348-7.5-7.485-.008-4.142 3.343-7.507 7.485-7.515h.337c14.281 0 24.129 1.815 38.288 5.375 4.018 1.01 6.455 5.085 5.445 9.102-.855 3.403-3.911 5.672-7.267 5.673z"/><path d="m345.361 321.13c-3.882 0-7.331-.323-9.896-1.056-3.983-1.138-6.29-5.289-5.152-9.271 1.138-3.984 5.291-6.288 9.271-5.152 4.792 1.369 21.339-.136 31.069-3.491 3.917-1.347 8.185.73 9.535 4.646s-.73 8.186-4.647 9.535c-7.964 2.745-20.431 4.789-30.18 4.789z"/></g><path d="m78.568 479.07c6.27.258 12.525.604 18.757 1.011 7.919.518 14.618-5.785 14.618-13.721v-228.886c0-7.936-6.699-14.239-14.618-13.721-6.232.407-12.487.753-18.757 1.011-7.396.304-13.257 6.34-13.257 13.743v226.821c0 7.401 5.861 13.438 13.257 13.742z" fill="#8b97a5"/><path d="m334.707 479.07c-6.27.258-12.525.604-18.757 1.011-7.919.518-14.618-5.785-14.618-13.721v-228.886c0-7.936 6.699-14.239 14.618-13.721 6.232.407 12.487.753 18.757 1.011 7.396.304 13.256 6.34 13.256 13.743v226.821c0 7.401-5.86 13.438-13.256 13.742z" fill="#abb6c4"/></g></svg>