<svg id="Capa_1" enable-background="new 0 0 512 512" height="512" viewBox="0 0 512 512" width="512" xmlns="http://www.w3.org/2000/svg"><g><path d="m252.655 464.271c-.942-34.791-2.042-61.231-55.53-114.719-8.814-9.438-8.308-24.233 1.13-33.047 9.025-8.429 23.009-8.279 31.917 0 22.769 21.161 74.786 79.951 79.415 144.271 1.193 16.576-9.995 29.626-25.683 31.13-16.213 1.553-30.731-10.811-31.249-27.635z" fill="#f6ca8e"/><path d="m284.856 385.923c-18.001-31.742-41.353-57.03-54.683-69.419-8.908-8.279-22.892-8.429-31.917 0-9.438 8.814-9.944 23.61-1.13 33.047 29.921 29.921 43.446 51.377 49.723 70.567 9.617-6.449 18.718-13.898 27.103-22.283 3.833-3.834 7.467-7.812 10.904-11.912z" fill="#f3a977"/><path d="m2.064 168.057c.074-23.191 18.917-42.034 42.108-42.108 58.708-.188 122.878-15.643 179.511 40.99l42.257 42.257c42.234 42.234 36.036 116.907-13.843 166.786s-124.552 56.077-166.786 13.843l-42.257-42.257c-56.633-56.632-41.178-120.803-40.99-179.511z" fill="#f6ca8e"/><path d="m265.94 209.197-42.257-42.257c-.896-.896-1.793-1.773-2.693-2.633-1.998 12.019-3.097 24.944-3.097 38.888 0 44.599 31.669 82.316 74.807 94.004 4.761-32.787-3.903-65.145-26.76-88.002z" fill="#f3a977"/><path d="m85.312 389.826c37.945 37.945 102.07 36.788 150.878-.01-154.209-61.906-185.419-187.839-161.365-264.871-10.335.49-20.575.972-30.654 1.004-23.191.074-42.034 18.917-42.108 42.108-.188 58.708-15.642 122.878 40.99 179.511z" fill="#f3a977"/><g><path d="m195.326 326.712c-1.919 0-3.839-.732-5.303-2.196l-109.977-109.977c-2.929-2.93-2.929-7.678 0-10.608 2.929-2.928 7.678-2.928 10.606 0l109.976 109.977c2.929 2.93 2.929 7.678 0 10.607-1.463 1.464-3.383 2.197-5.302 2.197z" fill="#f3a977"/><path d="m76.453 283.372h-26.901c-4.142 0-7.5-3.358-7.5-7.5 0-4.143 3.358-7.5 7.5-7.5h26.901c4.142 0 7.5 3.357 7.5 7.5s-3.358 7.5-7.5 7.5z" fill="#f6ca8e"/><path d="m120.458 332.528h-26.9c-4.142 0-7.5-3.357-7.5-7.5s3.358-7.5 7.5-7.5h26.901c4.142 0 7.5 3.357 7.5 7.5-.001 4.143-3.358 7.5-7.501 7.5z" fill="#f6ca8e"/><g fill="#f3a977"><path d="m151.986 207.839c-4.142 0-7.5-3.357-7.5-7.5v-26.9c0-4.143 3.358-7.5 7.5-7.5s7.5 3.357 7.5 7.5v26.9c0 4.142-3.358 7.5-7.5 7.5z"/><path d="m201.143 251.844c-4.142 0-7.5-3.357-7.5-7.5v-26.9c0-4.143 3.358-7.5 7.5-7.5s7.5 3.357 7.5 7.5v26.9c0 4.142-3.358 7.5-7.5 7.5z"/></g></g><path d="m440.594 319.88c11.433 10.562 12.14 28.393 1.577 39.827-11.03 11.94-29.919 12.137-41.188.233-40.895-43.2-47.847-87.046-46.012-146.748.397-12.906 11.18-23.046 24.086-22.649 12.332.379 22.14 10.243 22.641 22.38 1.854 44.969 6.291 76.837 38.896 106.957z" fill="#f6ee86"/><path d="m401.697 212.923c-.501-12.137-10.308-22.001-22.641-22.38-12.906-.397-23.689 9.744-24.086 22.649-.92 29.913.369 55.844 7.025 79.709 6.421-2.644 12.586-5.909 18.403-9.801 12.794 8.561 27.248 14.147 42.495 16.525-16.729-24.522-19.749-51.626-21.196-86.702z" fill="#f2d98d"/><path d="m512 203.195c0 36.915-32.325 66.841-72.199 66.841-15.922 0-30.635-4.775-42.568-12.86-10.209-6.916-23.458-6.916-33.667 0-11.934 8.085-26.647 12.86-42.568 12.86-39.874 0-72.199-29.926-72.199-66.841 0-97.338 59.954-134.911 102.947-172.474 16.417-14.344 40.891-14.344 57.308 0 42.993 37.564 102.946 75.137 102.946 172.474z" fill="#f6ee86"/><g fill="#f2d98d"><path d="m380.392 213.816c-3.495 0-6.622-2.455-7.343-6.012-5.87-28.983-9.912-91.274.057-132.931.964-4.028 5.009-6.513 9.039-5.549 4.028.964 6.513 5.011 5.549 9.039-9.031 37.742-5.77 97.694.057 126.462.822 4.061-1.802 8.018-5.861 8.84-.504.103-1.005.151-1.498.151z"/><path d="m334.036 190.632c-1.328 0-2.672-.353-3.889-1.092-6.26-3.806-16.763-7.535-27.41-9.735-4.057-.838-6.665-4.806-5.827-8.862s4.807-6.661 8.862-5.827c12.398 2.562 24.423 6.9 32.166 11.606 3.54 2.151 4.665 6.766 2.514 10.305-1.412 2.322-3.884 3.605-6.416 3.605z"/><path d="m339.979 135.052c-1.235 0-2.488-.306-3.643-.949-5.055-2.816-12.958-5.625-22.255-7.908-4.023-.987-6.483-5.049-5.495-9.071.987-4.022 5.048-6.49 9.071-5.495 7.472 1.834 18.044 4.949 25.979 9.371 3.618 2.017 4.917 6.584 2.901 10.202-1.372 2.462-3.927 3.85-6.558 3.85z"/><path d="m420.959 190.632c-2.532 0-5.004-1.283-6.416-3.605-2.151-3.539-1.026-8.153 2.514-10.305 7.743-4.706 19.768-9.045 32.166-11.606 4.053-.835 8.024 1.77 8.862 5.827s-1.771 8.024-5.827 8.862c-10.647 2.2-21.15 5.93-27.41 9.735-1.217.739-2.562 1.092-3.889 1.092z"/><path d="m415.017 135.052c-2.632 0-5.186-1.388-6.558-3.85-2.017-3.618-.719-8.187 2.899-10.202 7.934-4.422 18.507-7.537 25.98-9.372 4.021-.989 8.084 1.472 9.071 5.495.988 4.022-1.472 8.084-5.495 9.071-9.298 2.284-17.202 5.092-22.254 7.907-1.155.645-2.408.951-3.643.951z"/></g></g></svg>