<svg id="Capa_1" enable-background="new 0 0 512 512" height="512" viewBox="0 0 512 512" width="512" xmlns="http://www.w3.org/2000/svg"><g><path d="m440.42 219.81c-4.705.531-9.028-2.53-9.985-7.167-8.312-40.247-43.95-70.504-86.66-70.504-42.709 0-78.348 30.256-86.66 70.503-.958 4.637-5.28 7.699-9.985 7.167-37.456-4.236-71.58 25.043-71.58 64.074 0 89.237 105.473 85.373 168.225 85.373s168.225 3.864 168.225-85.373c0-39.109-34.191-68.294-71.58-64.073z" fill="#abb6c4"/><path d="m361.301 312.102c.003-10.886-1.451-27.384-5.001-43.315 13.775-8.753 26.467-19.391 34.162-27.091 16.493-16.498 16.494-43.345.001-59.847-7.696-7.699-20.388-18.337-34.164-27.092.845-3.792 1.567-7.613 2.183-11.386-4.785-.801-9.696-1.233-14.709-1.233-42.709 0-78.348 30.257-86.66 70.503-.958 4.637-5.28 7.7-9.985 7.167-37.456-4.236-71.58 25.043-71.58 64.074 0 56.183 41.81 75.457 88.443 82.031 3.987-5.116 7.998-10.708 11.677-16.497 15.922 3.547 32.414 5.002 43.31 5.002 23.332-.004 42.317-18.986 42.323-42.316z" fill="#9aa3b1"/><g fill="#f3a977"><path d="m318.41 170.452c7.535-13.044 11.99-40.959 11.986-59.001-.001-6.307-5.113-11.418-11.42-11.42-18.042-.004-45.957 4.45-59.001 11.986z"/><path d="m259.975 112.017c-3.895-14.552-20.484-37.441-33.245-50.195-4.461-4.458-11.69-4.458-16.15 0-12.76 12.754-29.35 35.644-33.245 50.195z"/><path d="m177.335 112.017c-13.044-7.536-40.959-11.99-59.001-11.986-6.307.002-11.419 5.113-11.42 11.42-.004 18.042 4.45 45.957 11.986 59.001z"/><path d="m118.9 170.452c-14.552 3.895-37.441 20.484-50.195 33.245-4.458 4.46-4.458 11.69 0 16.15 12.754 12.76 35.644 29.35 50.195 33.245z"/><path d="m118.9 253.092c-7.535 13.044-11.99 40.959-11.986 59.001.001 6.307 5.113 11.419 11.42 11.42 18.042.004 45.957-4.45 59.001-11.986z"/><path d="m177.335 311.527c3.895 14.552 20.484 37.441 33.245 50.195 4.461 4.458 11.69 4.458 16.15 0 12.761-12.754 29.35-35.644 33.245-50.195z"/><path d="m318.41 253.092c14.552-3.895 37.441-20.484 50.195-33.245 4.458-4.461 4.458-11.69 0-16.15-12.754-12.761-35.644-29.35-50.195-33.245z"/><path d="m259.975 311.527c13.044 7.535 40.959 11.99 59.001 11.986 6.307-.001 11.419-5.113 11.42-11.42.004-18.042-4.451-45.957-11.986-59.001z"/></g><ellipse cx="218.655" cy="211.772" fill="#f6ee86" rx="107.952" ry="107.952" transform="matrix(.707 -.707 .707 .707 -85.703 216.639)"/><path d="m311.058 267.614c-142.612 16.242-169.042-93.849-136.43-154.433-37.673 16.849-63.926 54.652-63.926 98.591 0 59.62 48.332 107.952 107.952 107.952 39.183 0 73.488-20.875 92.404-52.11z" fill="#f2d98d"/><path d="m272.306 299.855c-4.837.546-9.281-2.601-10.266-7.369-8.545-41.377-45.184-72.484-89.093-72.484-43.908 0-80.547 31.106-89.092 72.483-.985 4.767-5.428 7.916-10.266 7.369-38.507-4.355-73.589 25.746-73.589 65.873 0 91.742 108.434 87.769 172.948 87.769s172.948 3.973 172.948-87.769c0-40.207-35.151-70.211-73.59-65.872z" fill="#abb6c4"/><path d="m83.855 292.486c-.984 4.767-5.428 7.916-10.265 7.369-38.508-4.356-73.59 25.745-73.59 65.872 0 75.35 73.143 86.131 135.025 87.579-37.509-17.04-41.524-61.952-19.673-75.221-37.682-28.202-21.927-105.845-2.088-135.744-14.732 12.822-25.309 30.295-29.409 50.145z" fill="#9aa3b1"/><g><g><ellipse cx="86.571" cy="378.085" fill="#fff" rx="31.872" ry="25.381"/><ellipse cx="259.325" cy="378.085" fill="#fff" rx="31.872" ry="25.381"/><ellipse cx="172.948" cy="358.584" fill="#4e5660" rx="16.918" ry="18.931"/></g><g fill="#4e5660"><path d="m91.899 354.957c-4.142 0-7.5-3.357-7.5-7.5v-12.362c0-4.143 3.358-7.5 7.5-7.5s7.5 3.357 7.5 7.5v12.362c0 4.143-3.358 7.5-7.5 7.5z"/><path d="m253.997 354.957c-4.142 0-7.5-3.357-7.5-7.5v-12.362c0-4.143 3.358-7.5 7.5-7.5s7.5 3.357 7.5 7.5v12.362c0 4.143-3.358 7.5-7.5 7.5z"/></g></g></g></svg>