<svg id="Capa_1" enable-background="new 0 0 512 512" height="512" viewBox="0 0 512 512" width="512" xmlns="http://www.w3.org/2000/svg"><g><path d="m363.6 122.128c0 26.269-16.725 49.582-30.298 64.177-9.238 9.933-24.897 9.933-34.134 0-13.573-14.595-30.298-37.908-30.298-64.177s16.725-49.582 30.298-64.177c9.238-9.933 24.897-9.933 34.134 0 13.573 14.595 30.298 37.908 30.298 64.177z" fill="#f6ee86"/><path d="m316.235 142.482c-4.142 0-7.5-3.357-7.5-7.5v-25.708c0-4.143 3.358-7.5 7.5-7.5s7.5 3.357 7.5 7.5v25.708c0 4.143-3.358 7.5-7.5 7.5z" fill="#f2d98d"/><path d="m100.858 170.054c-55.702 0-100.858 72.711-100.858 162.405s45.156 162.405 100.858 162.405h310.284v-324.81z" fill="#e7c7af"/><path d="m100.858 170.054c-55.702 0-100.858 72.711-100.858 162.405s45.156 162.405 100.858 162.405h157.471c-99.852-46.697-108.399-227.854-58.585-324.81z" fill="#e1b89a"/><ellipse cx="411.142" cy="332.459" fill="#fae0bd" rx="100.858" ry="162.405"/><ellipse cx="411.142" cy="332.459" fill="#f8d4a5" rx="29.895" ry="53.445"/><path d="m182.925 108.092c-18.575 18.575-46.886 23.233-66.804 23.956-13.555.492-24.628-10.581-24.137-24.137.722-19.917 5.381-48.229 23.956-66.804s46.886-23.233 66.804-23.956c13.556-.492 24.628 10.581 24.137 24.137-.723 19.918-5.381 48.229-23.956 66.804z" fill="#f6ee86"/><path d="m116.121 132.048c12.953-.47 29.455-2.609 44.522-9.153-51.076-12.044-43.756-71.515-28.748-93.52-5.756 3.106-11.179 6.956-15.955 11.732-18.575 18.575-23.233 46.886-23.956 66.804-.491 13.556 10.581 24.628 24.137 24.137z" fill="#f2d98d"/><path d="m140.343 91.189c-1.92 0-3.839-.732-5.303-2.196-2.929-2.93-2.929-7.678 0-10.607l18.178-18.178c2.929-2.928 7.678-2.928 10.606 0 2.929 2.93 2.929 7.678 0 10.608l-18.178 18.178c-1.464 1.462-3.384 2.195-5.303 2.195z" fill="#f2d98d"/><path d="m111.947 248.054c10.487 10.487 32.678 5.299 49.565-11.588s22.075-39.078 11.588-49.565l-106.526-106.525-61.153 61.153z" fill="#e7c7af"/><ellipse cx="35.998" cy="110.952" fill="#fae0bd" rx="43.242" ry="26.854" transform="matrix(.707 -.707 .707 .707 -67.912 57.952)"/><g fill="#daa985"><path d="m110.473 192.927c-1.919 0-3.839-.732-5.303-2.196l-18.502-18.501c-2.929-2.93-2.929-7.678 0-10.607 2.929-2.928 7.678-2.928 10.606 0l18.501 18.501c2.929 2.93 2.929 7.678 0 10.607-1.463 1.463-3.383 2.196-5.302 2.196z"/><g><path d="m115.418 331.672c-16.452 0-32.166-1.638-46.029-3.082-5.415-.564-10.529-1.098-15.096-1.464-4.129-.33-7.208-3.946-6.877-8.075.332-4.129 3.959-7.213 8.075-6.876 4.746.38 9.947.922 15.453 1.496 13.5 1.406 28.801 3.001 44.474 3.001 4.142 0 7.5 3.357 7.5 7.5s-3.358 7.5-7.5 7.5z"/><path d="m201.241 362.066c-4.142 0-7.5-3.357-7.5-7.5s3.358-7.5 7.5-7.5c6.655 0 13.663-.848 21.082-1.745 8.999-1.089 19.198-2.323 30.939-2.323 4.142 0 7.5 3.357 7.5 7.5s-3.358 7.5-7.5 7.5c-10.836 0-20.14 1.126-29.138 2.214-7.88.954-15.324 1.854-22.883 1.854z"/><path d="m201.451 447.174c-13.173 0-26.096-1.086-38.593-2.137-11.534-.969-22.428-1.885-32.663-1.885-4.142 0-7.5-3.357-7.5-7.5s3.358-7.5 7.5-7.5c10.864 0 22.063.941 33.919 1.938 12.189 1.024 24.793 2.084 37.337 2.084 4.142 0 7.5 3.358 7.5 7.5s-3.358 7.5-7.5 7.5z"/><path d="m278.964 242.64c-8.57 0-16.679-1.313-24.52-2.584-6.896-1.117-13.41-2.172-19.434-2.172-4.142 0-7.5-3.357-7.5-7.5s3.358-7.5 7.5-7.5c7.232 0 14.655 1.202 21.833 2.365 7.256 1.175 14.758 2.391 22.122 2.391 4.142 0 7.5 3.357 7.5 7.5-.001 4.142-3.359 7.5-7.501 7.5z"/></g></g></g></svg>