<svg id="Capa_1" enable-background="new 0 0 512 512" height="512" viewBox="0 0 512 512" width="512" xmlns="http://www.w3.org/2000/svg"><g><path d="m122.324 97.736c.117 20.814 4.83 43.89 17.388 60.481 5.906 7.854 13.445 14.168 22.638 18.905l.973.501c11.971 6.168 16.675 20.873 10.507 32.844-5.68 11.023-18.601 15.881-29.957 11.766-51.288-18.522-77.873-66.181-84.801-119.574-3.771-29.373-.247-49.09.017-50.854 2.793-18.719 19.834-31.88 38.586-29.321 18.752 2.558 31.88 19.834 29.321 38.586-.794 5.821-4.79 15.223-4.672 36.666z" fill="#e1ac9a"/><path d="m163.323 177.623-.973-.501c-9.193-4.737-16.733-11.051-22.638-18.905-12.558-16.59-17.27-39.666-17.388-60.481-.02-3.599.078-6.851.255-9.811-10.664 5.013-18.898 14.583-21.941 26.587l-6.622 26.123c-16.1-4.291-23.136-6.799-28.728-7.993 11.851 40.651 37.154 74.63 78.584 89.591 11.357 4.115 24.278-.742 29.957-11.766 6.169-11.971 1.465-26.676-10.506-32.844z" fill="#d2896f"/><path d="m194.17 152.982 34.194-35.133c5.137-5.278 14.071-2.884 15.88 4.255l12.046 47.523c1.303 5.139 6.589 8.191 11.691 6.75l47.179-13.329c7.087-2.002 13.627 4.538 11.625 11.625l-13.329 47.179c-1.441 5.102 1.611 10.388 6.75 11.691l47.523 12.046c7.139 1.81 9.533 10.744 4.255 15.88l-35.133 34.194c-3.799 3.698-3.799 9.802 0 13.5l35.133 34.194c5.278 5.137 2.884 14.07-4.255 15.88l-47.523 12.046c-5.139 1.303-8.191 6.589-6.75 11.691l13.329 47.179c2.002 7.087-4.538 13.627-11.625 11.625l-47.179-13.329c-5.102-1.441-10.388 1.611-11.691 6.75l-12.046 47.523c-1.81 7.139-10.744 9.533-15.88 4.255l-34.194-35.133c-3.698-3.799-9.802-3.799-13.5 0l-34.194 35.133c-5.137 5.278-14.071 2.884-15.88-4.255l-12.046-47.523c-1.303-5.139-6.589-8.191-11.691-6.75l-47.179 13.331c-7.087 2.002-13.627-4.538-11.625-11.625l13.329-47.179c1.441-5.102-1.611-10.388-6.75-11.691l-47.523-12.047c-7.139-1.81-9.533-10.743-4.255-15.88l35.133-34.194c3.799-3.698 3.799-9.802 0-13.5l-35.133-34.194c-5.278-5.137-2.884-14.07 4.255-15.88l47.523-12.046c5.139-1.303 8.191-6.589 6.75-11.691l-13.329-47.179c-2.002-7.087 4.538-13.627 11.625-11.625l47.179 13.329c5.102 1.441 10.388-1.61 11.691-6.75l12.046-47.523c1.81-7.139 10.743-9.533 15.88-4.255l34.194 35.133c3.699 3.799 9.802 3.799 13.5-.001z" fill="#b0da87"/><path d="m314.786 217.149c-19.535 11.847-37.915 29.255-54.204 51.675-23.907 32.908-39.773 72.012-43.022 105.032-5.633 8.196-8.209 18.449-6.625 28.961 3.837 25.45 16.712 48.161 36.902 65.731l8.453-33.348c1.303-5.139 6.589-8.191 11.691-6.75l47.179 13.329c7.087 2.002 13.627-4.538 11.625-11.625l-13.329-47.18c-1.441-5.102 1.61-10.388 6.75-11.691l47.523-12.047c7.139-1.81 9.533-10.743 4.255-15.88l-35.133-34.194c-3.799-3.698-3.799-9.802 0-13.5l35.133-34.194c5.278-5.137 2.884-14.07-4.255-15.88l-47.523-12.047c-5.139-1.303-8.191-6.589-6.75-11.691z" fill="#89d47f"/><path d="m505.539 388.071c0 55.738-57.686 84.126-128.845 84.126s-128.845-28.388-128.845-84.126 57.686-156.24 128.845-156.24 128.845 100.502 128.845 156.24z" fill="#e1ac9a"/><path d="m352.796 235.596c-59.74 18.727-104.948 103.134-104.948 152.475 0 55.738 57.686 84.126 128.845 84.126 10.927 0 21.535-.672 31.667-2.008-115.53-26.471-94.894-173.855-55.564-234.593z" fill="#d2896f"/><g><g fill="#fff"><ellipse cx="294.736" cy="356.715" rx="30.241" ry="24.082"/><ellipse cx="458.651" cy="356.715" rx="30.241" ry="24.082"/></g><g fill="#4e5660"><path d="m312.36 341.032c-4.143 0-7.5-3.357-7.5-7.5v-12.362c0-4.143 3.357-7.5 7.5-7.5s7.5 3.357 7.5 7.5v12.362c0 4.143-3.357 7.5-7.5 7.5z"/><path d="m441.027 341.032c-4.142 0-7.5-3.357-7.5-7.5v-12.362c0-4.143 3.358-7.5 7.5-7.5 4.143 0 7.5 3.357 7.5 7.5v12.362c0 4.143-3.357 7.5-7.5 7.5z"/><path d="m376.693 348.392c-8.667 0-16.91-3.754-22.614-10.299-2.722-3.122-2.398-7.86.726-10.581 3.121-2.723 7.86-2.398 10.581.726 2.855 3.275 6.977 5.154 11.308 5.154s8.452-1.879 11.309-5.155c2.722-3.122 7.46-3.446 10.582-.725 3.122 2.722 3.446 7.46.725 10.582-5.708 6.544-13.95 10.298-22.617 10.298z"/></g></g><path d="m376.694 402.658c-42.526 0-86.21-17.864-126.499-15.355-5.52.344-9.523 5.437-8.699 10.906 7.316 48.526 58.731 79.218 135.197 79.218 76.468 0 127.883-30.692 135.199-79.218.824-5.469-3.178-10.563-8.699-10.906-40.288-2.509-83.973 15.355-126.499 15.355z" fill="#fbf1cf"/><path d="m362.216 477.046c-30.684-16.614-33.942-61.137-28.479-78.967-28.456-5.106-56.75-12.443-83.542-10.775-5.52.344-9.523 5.437-8.699 10.907 6.844 45.395 52.283 75.181 120.72 78.835z" fill="#fae0bd"/><g fill="#89d47f"><path d="m84.195 329.403c-2.788 0-5.465-1.56-6.759-4.238-1.802-3.73-.24-8.214 3.489-10.017 8.34-4.03 18.923-8.407 30.606-12.657 3.896-1.417 8.195.592 9.612 4.483 1.416 3.893-.591 8.196-4.483 9.612-11.216 4.08-21.316 8.253-29.207 12.067-1.052.509-2.164.75-3.258.75z"/><path d="m139.104 264.341c-2.444 0-4.841-1.193-6.28-3.392-6.512-9.939-11.292-22.935-12.787-34.76-.521-4.109 2.39-7.862 6.499-8.382 4.099-.532 7.861 2.389 8.382 6.499 1.224 9.673 5.132 20.299 10.453 28.424 2.27 3.465 1.301 8.113-2.164 10.383-1.267.83-2.692 1.228-4.103 1.228z"/><path d="m134.68 403.034c-1.586 0-3.184-.5-4.542-1.536-3.294-2.513-3.928-7.219-1.416-10.512 5.391-7.068 17.908-17.768 22.969-20.298 3.702-1.854 8.21-.35 10.063 3.355 1.852 3.705.35 8.21-3.355 10.063-2.463 1.242-13.276 10.113-17.748 15.976-1.478 1.936-3.712 2.952-5.971 2.952z"/><path d="m246.233 237.11c-1.683 0-3.374-.563-4.773-1.718-7.02-5.799-17.474-16.971-21.845-24.36-2.109-3.565-.929-8.165 2.637-10.273 3.567-2.109 8.164-.929 10.273 2.637 3.418 5.778 12.579 15.553 18.487 20.433 3.193 2.638 3.644 7.364 1.006 10.559-1.481 1.794-3.624 2.722-5.785 2.722z"/><path d="m220.766 356.658c-1.484 0-2.982-.439-4.291-1.355-4.103-2.869-9.207-6.439-20.087-10.744-3.852-1.523-5.738-5.882-4.214-9.733 1.523-3.852 5.883-5.735 9.733-4.214 11.558 4.573 17.552 8.475 23.163 12.398 3.395 2.374 4.222 7.05 1.849 10.444-1.459 2.087-3.787 3.204-6.153 3.204z"/><path d="m191.696 286.427c-1.974 0-3.881-.12-5.692-.363-4.105-.552-6.986-4.327-6.436-8.432.552-4.106 4.335-6.981 8.432-6.436 5.672.76 13.567-.436 20.623-3.125 3.866-1.476 8.203.468 9.679 4.338 1.475 3.871-.468 8.204-4.339 9.68-7.435 2.833-15.271 4.338-22.267 4.338z"/></g></g></svg>