<svg id="Capa_1" enable-background="new 0 0 512 512" height="512" viewBox="0 0 512 512" width="512" xmlns="http://www.w3.org/2000/svg"><g><path d="m178.069 101.699c-31.318-31.318-113.972-66.478-143.265-37.185-29.293 29.293 5.867 111.946 37.185 143.265 31.319 31.319 80.454 32.961 109.747 3.667s27.652-78.428-3.667-109.747z" fill="#f6ca8e"/><path d="m141.858 75.918c-10.759 20.427-21.245 46.136-26.562 69.086-22.951 5.317-48.66 15.803-69.087 26.562 7.888 14.573 16.986 27.417 25.781 36.212 31.319 31.319 80.454 32.96 109.747 3.667s27.651-78.428-3.667-109.747c-8.796-8.794-21.639-17.891-36.212-25.78z" fill="#f3a977"/><path d="m160.472 197.682c-1.919 0-3.839-.732-5.303-2.196l-79.014-79.015c-2.929-2.93-2.929-7.678 0-10.607 2.929-2.928 7.678-2.928 10.606 0l79.014 79.015c2.929 2.93 2.929 7.678 0 10.607-1.464 1.463-3.384 2.196-5.303 2.196z" fill="#f3a977"/><path d="m281.503 172.308c-5.141 38.011-31.095 69.452-69.452 69.452s-69.452-31.095-69.452-69.452 46.725-142.598 88.521-142.598c38.357 0 56.424 97.927 50.383 142.598z" fill="#f6ee86"/><path d="m142.598 311.212c38.011-5.141 69.452-31.095 69.452-69.452s-31.095-69.452-69.452-69.452-142.598 46.726-142.598 88.522c0 38.357 97.927 56.424 142.598 50.382z" fill="#f2d98d"/><path d="m476.812 481.523c-44.464-10.451-95.54-30.052-167.577-102.089-11.181-11.181-11.181-29.309 0-40.49s29.309-11.181 40.49 0c61.91 61.91 103.965 78.322 140.189 86.836 15.393 3.618 24.938 19.029 21.32 34.422-3.604 15.336-18.972 24.952-34.422 21.321z" fill="#f6ca8e"/><path d="m349.724 338.944c-11.181-11.181-29.309-11.181-40.49 0s-11.181 29.309 0 40.49c18.642 18.642 35.878 33.765 51.961 46.134 4.679-7.382 8.336-15.372 10.827-23.836 11.45-3.369 22.028-8.878 31.409-16.166-16.182-11.717-33.93-26.845-53.707-46.622z" fill="#f3a977"/><path d="m209.06 377.674c38.011-5.141 69.452-31.095 69.452-69.452s-31.095-69.452-69.452-69.452-142.599 46.725-142.599 88.521c0 38.357 97.928 56.424 142.599 50.383z" fill="#f3a977"/><path d="m347.964 238.769c-5.141 38.011-31.095 69.452-69.452 69.452s-69.452-31.095-69.452-69.452 46.726-142.598 88.521-142.598c38.358 0 56.424 97.927 50.383 142.598z" fill="#f6ca8e"/><path d="m414.425 305.231c-5.141 38.011-31.095 69.452-69.452 69.452s-69.452-31.095-69.452-69.452 46.726-142.598 88.521-142.598c38.358-.001 56.425 97.927 50.383 142.598z" fill="#f6ee86"/><path d="m275.521 444.135c38.011-5.141 69.452-31.095 69.452-69.452s-31.095-69.452-69.452-69.452-142.598 46.726-142.598 88.521c0 38.357 97.927 56.424 142.598 50.383z" fill="#f2d98d"/><path d="m193.963 396.31c-3.99 0-7.309-3.143-7.487-7.169-.183-4.138 3.023-7.641 7.162-7.824 23.184-1.024 53.714-6.195 68.705-10.398 3.992-1.114 8.128 1.209 9.247 5.197 1.118 3.988-1.208 8.128-5.197 9.246-18.104 5.075-50.444 9.983-72.092 10.941-.113.006-.226.007-.338.007z" fill="#f6ee86"/><path d="m348.435 301.579c-.671 0-1.352-.091-2.028-.28-3.989-1.118-6.315-5.258-5.197-9.246 4.203-14.99 9.374-45.52 10.399-68.705.184-4.139 3.704-7.371 7.824-7.161 4.138.183 7.344 3.686 7.161 7.823-.958 21.649-5.866 53.989-10.941 72.092-.928 3.311-3.94 5.477-7.218 5.477z" fill="#f2d98d"/></g></svg>