<svg id="Capa_1" enable-background="new 0 0 512 512" height="512" viewBox="0 0 512 512" width="512" xmlns="http://www.w3.org/2000/svg"><g><path d="m176.685 483.775c-6.522-9.991-3.71-23.378 6.281-29.9 26.902-17.562 35.215-34.492 42.614-53.219 4.383-11.096 16.932-16.537 28.032-12.155 11.097 4.386 16.539 16.935 12.155 28.032-8.987 22.748-21.713 49.064-59.18 73.524-10.013 6.535-23.392 3.69-29.902-6.282z" fill="#f8d4a5"/><path d="m305.414 490.057c-37.467-24.46-50.193-50.776-59.18-73.524-4.384-11.098 1.058-23.647 12.155-28.032 11.099-4.381 23.647 1.059 28.031 12.155 7.398 18.727 15.712 35.657 42.614 53.219 9.991 6.522 12.803 19.91 6.281 29.9-6.512 9.976-19.891 12.815-29.901 6.282z" fill="#f8d4a5"/><path d="m256 512c-11.932 0-21.604-9.673-21.604-21.604v-75.794c0-11.932 9.673-21.604 21.604-21.604 11.932 0 21.604 9.673 21.604 21.604v75.794c0 11.931-9.672 21.604-21.604 21.604z" fill="#fae0bd"/><path d="m234.396 458.043c7.126.487 14.332.74 21.604.74s14.479-.253 21.604-.74v-43.441c0-11.932-9.673-21.604-21.604-21.604-11.932 0-21.604 9.673-21.604 21.604z" fill="#f8d4a5"/><path d="m328.121 114.098c-.995-.338-1.948-.739-2.865-1.187-38.231 6.83-111.36 3.806-138.321.183-75.023 24.193-128.451 86.654-128.451 159.906 0 94.244 88.431 154.877 197.516 154.877s197.516-60.632 197.516-154.877c0-72.253-51.98-134.013-125.395-158.902z" fill="#fbf1cf"/><path d="m256 427.878c21.564 0 42.315-2.379 61.74-6.909-192.987-23.929-198.84-233.995-143.852-303.191-68.092 26.926-115.404 86.294-115.404 155.222 0 94.245 88.431 154.878 197.516 154.878z" fill="#fae0bd"/><path d="m325.274 112.908c-11.855-5.785-17.078-20.376-10.945-32.481 2.399-4.736 4.865-8.574 7.244-11.473 14.778-18.018 12.154-44.603-5.862-59.382-18.018-14.779-44.603-12.152-59.382 5.863-14.585 17.78-25.807 41.587-33.05 69.249-3.23 12.335-12.869 21.878-25.196 25.14-3.765.996-7.482 2.087-11.148 3.27 14.859 13.312 38.874 27.038 69.065 27.038 30.332-.001 54.431-13.854 69.274-27.224z" fill="#b0da87"/><g><g fill="#eda1ab"><ellipse cx="172.924" cy="291.873" rx="30.654" ry="24.411"/><ellipse cx="339.076" cy="292.017" rx="30.654" ry="24.411"/></g><g fill="#4e5660"><path d="m190.81 275.734c-.002 0-.004 0-.006 0-4.142-.003-7.497-3.363-7.494-7.506l.009-12.234c.003-4.14 3.36-7.494 7.5-7.494h.006c4.142.003 7.497 3.363 7.494 7.506l-.009 12.234c-.003 4.14-3.361 7.494-7.5 7.494z"/><path d="m321.232 275.862c-.002 0-.003 0-.006 0-4.142-.003-7.497-3.363-7.494-7.506l.009-12.235c.003-4.14 3.36-7.494 7.5-7.494h.006c4.142.003 7.497 3.363 7.494 7.506l-.009 12.235c-.003 4.14-3.36 7.494-7.5 7.494z"/><path d="m273.208 281.245c-.002 0-.004 0-.006 0l-34.386-.029c-4.142-.004-7.497-3.364-7.494-7.507.003-4.14 3.361-7.493 7.5-7.493h.006l34.386.029c4.142.004 7.497 3.364 7.494 7.507-.003 4.14-3.36 7.493-7.5 7.493z"/></g></g><g fill="#f8d4a5"><path d="m147.898 360.491c-2.029 0-4.051-.818-5.531-2.432-21.255-23.188-33.945-56.526-33.945-89.18 0-58.405 41.723-94.796 63.006-100.472 4.003-1.064 8.112 1.313 9.179 5.314 1.067 4.003-1.312 8.112-5.314 9.18-7.399 1.973-20.396 10.683-31.445 25.145-9.318 12.195-20.426 32.648-20.426 60.833 0 34.147 15.498 63.221 30.002 79.043 2.799 3.054 2.592 7.798-.461 10.597-1.439 1.321-3.255 1.972-5.065 1.972z"/><path d="m364.103 360.491c-1.81 0-3.626-.651-5.066-1.972-3.053-2.799-3.26-7.543-.461-10.597 14.504-15.822 30.002-44.897 30.002-79.043 0-28.185-11.108-48.638-20.426-60.833-11.05-14.462-24.046-23.172-31.445-25.145-4.002-1.067-6.381-5.177-5.314-9.18s5.176-6.383 9.179-5.314c21.283 5.676 63.006 42.066 63.006 100.472 0 32.653-12.689 65.991-33.944 89.179-1.48 1.615-3.503 2.433-5.531 2.433z"/><path d="m256.016 386.354c-4.142 0-7.5-3.357-7.5-7.5v-39.044c0-4.142 3.358-7.5 7.5-7.5s7.5 3.358 7.5 7.5v39.043c0 4.143-3.358 7.501-7.5 7.501z"/></g></g></svg>