<svg id="Capa_1" enable-background="new 0 0 512 512" height="512" viewBox="0 0 512 512" width="512" xmlns="http://www.w3.org/2000/svg"><g><path d="m287.023 294.903c-5.851-37.622 7.62-86.716 51.187-130.283 10.841-10.841 28.416-10.841 39.257 0s10.841 28.416 0 39.257c-16.196 16.196-27.138 33.362-32.523 51.022-4.757 15.6-3.726 27.206-3.063 31.472 2.356 15.149-8.014 29.339-23.163 31.695-15.12 2.351-29.336-7.991-31.695-23.163z" fill="#89d47f"/><path d="m436.608 249.973c-20.983 20.983-57.341 18.645-81.207-5.222-10.111-10.111-16.35-22.464-18.594-34.94-.895-4.979-4.749-8.833-9.728-9.728-12.476-2.244-24.829-8.483-34.94-18.594-23.867-23.867-26.204-60.224-5.222-81.207 80.989-80.989 143.289-63.225 191.341-65.219 13.273-.551 24.121 10.297 23.57 23.57-1.995 48.051 15.769 110.351-65.22 191.34z" fill="#b0da87"/><g fill="#89d47f"><path d="m356.206 177.941c-1.301 0-2.618-.338-3.818-1.05-3.563-2.112-4.738-6.713-2.626-10.276 22.109-37.288 60.983-75.243 90.426-88.288 3.786-1.679 8.218.031 9.895 3.819 1.678 3.787-.032 8.218-3.819 9.896-23.232 10.293-60.855 43.862-83.6 82.224-1.401 2.363-3.896 3.675-6.458 3.675z"/><path d="m445.414 170.81c-1.77 0-3.545-.622-4.974-1.889-6.428-5.7-21.698-8.96-25.319-8.796-4.162.235-7.666-2.959-7.884-7.095-.218-4.137 2.959-7.666 7.095-7.884 7.019-.393 26.108 3.726 36.062 12.552 3.099 2.748 3.383 7.488.635 10.588-1.483 1.672-3.544 2.524-5.615 2.524z"/><path d="m362.473 109.794c-3.237 0-6.224-2.112-7.189-5.374-1.289-4.358-4.985-11.01-7.671-14.673-2.449-3.341-1.726-8.034 1.614-10.483 3.341-2.449 8.033-1.726 10.483 1.614 2.865 3.909 7.883 12.271 9.958 19.286 1.175 3.973-1.093 8.145-5.065 9.32-.709.21-1.426.31-2.13.31z"/></g><path d="m69.336 118.759c-12.565-16.885-28.158-29.51-55.76-37.154-10.027-2.777-15.828-13.227-12.75-23.166l9.762-31.523c3.442-11.115 16.179-16.195 26.414-10.662 33.83 18.29 59.25 42.927 74.533 79.862z" fill="#b0da87"/><path d="m61.49 178.904c0-41.004 33.24-74.244 74.244-74.244 20.502 0 39.063 8.31 52.498 21.745 51.325 51.325 78.848 114.298 195.122 114.298 71.05 0 128.647 57.597 128.647 128.647s-57.597 128.647-128.647 128.647c-212.867.001-321.864-163.873-321.864-319.093z" fill="#b0ade2"/><path d="m329.666 494.316c-166.524-48.538-171.938-255.221-93.176-314.733-16.265-17.134-30.902-35.821-48.258-53.177-13.436-13.435-31.997-21.745-52.498-21.745-41.004 0-74.244 33.24-74.244 74.244 0 141.584 90.692 290.363 268.176 315.411z" fill="#a78cd6"/><g><g fill="#fff"><ellipse cx="259.019" cy="369.815" rx="30.241" ry="24.082"/><ellipse cx="422.934" cy="369.815" rx="30.241" ry="24.082"/></g><g fill="#4e5660"><path d="m276.644 354.132c-4.143 0-7.5-3.357-7.5-7.5v-12.362c0-4.143 3.357-7.5 7.5-7.5s7.5 3.357 7.5 7.5v12.361c0 4.143-3.358 7.501-7.5 7.501z"/><path d="m405.31 354.132c-4.143 0-7.5-3.357-7.5-7.5v-12.362c0-4.143 3.357-7.5 7.5-7.5 4.142 0 7.5 3.357 7.5 7.5v12.361c0 4.143-3.358 7.501-7.5 7.501z"/><path d="m340.977 361.491c-8.667 0-16.91-3.754-22.614-10.299-2.722-3.122-2.398-7.86.726-10.581 3.122-2.723 7.86-2.398 10.581.726 2.855 3.275 6.977 5.154 11.308 5.154s8.452-1.879 11.308-5.154c2.72-3.123 7.458-3.449 10.581-.726 3.123 2.721 3.447 7.459.726 10.581-5.706 6.545-13.949 10.299-22.616 10.299z"/></g></g><path d="m69.336 118.759 42.199-22.643c-5.673-13.71-12.745-25.722-21.123-36.347-6.513 2.201-13.062 4.949-19.688 8.281-13.614 6.845-24.189 14.754-32.453 23.242 13.327 7.198 22.844 16.42 31.065 27.467z" fill="#89d47f"/><path d="m84.606 95.662c-56.646 28.482-40.782 76.494-52.259 112.856-3.858 12.224 6.314 24.325 19.054 22.909 38.621-4.294 65.184-32.653 72.097-50.857 1.348-3.55 5.186-5.403 8.824-4.313 22.57 6.763 62.121 4.798 93.62-35.118 7.797-9.882 2.967-24.455-9.095-28.054-38.286-11.424-73.03-47.195-132.241-17.423z" fill="#c8e5aa"/></g></svg>