<svg id="Capa_1" enable-background="new 0 0 512 512" height="512" viewBox="0 0 512 512" width="512" xmlns="http://www.w3.org/2000/svg"><g><g><path d="m391.371 283.176c-20.509-20.509-25.653-51.77-26.451-73.762-.543-14.967 11.683-27.193 26.65-26.65 21.992.798 53.252 5.941 73.762 26.451 20.509 20.509 25.653 51.77 26.451 73.762.543 14.967-11.683 27.193-26.65 26.65-21.992-.798-53.252-5.942-73.762-26.451z" fill="#f6ee86"/><path d="m391.571 182.764c-14.967-.543-27.193 11.683-26.65 26.65.711 19.624 4.894 46.622 20.357 66.782 26.129-7.163 48.007-17.54 66.792-31.704 8.535-6.436 16.475-13.724 23.826-21.801-2.965-4.815-6.451-9.364-10.563-13.477-20.51-20.509-51.77-25.653-73.762-26.45z" fill="#f2d98d"/><path d="m449.344 274.688c-1.92 0-3.839-.732-5.304-2.197l-31.027-31.028c-2.929-2.929-2.929-7.677.001-10.606 2.929-2.929 7.678-2.928 10.606.001l31.027 31.028c2.929 2.929 2.929 7.677-.001 10.606-1.463 1.463-3.383 2.196-5.302 2.196z" fill="#f2d98d"/><path d="m64.49 201.627c20.51-20.509 51.77-25.653 73.762-26.451 14.967-.543 27.193 11.683 26.65 26.65-.798 21.992-5.941 53.252-26.451 73.762-20.509 20.509-51.77 25.653-73.762 26.451-14.967.543-27.193-11.683-26.65-26.65.797-21.992 5.941-53.252 26.451-73.762z" fill="#f6ee86"/><path d="m46.181 231.1c14.491 4.699 28.944 8.303 43.031 11.809 12.869 3.202 25.024 6.227 35.742 9.769 6.86 2.267 11.433 8.686 11.379 15.976-.022 2.998-.099 6.056-.209 9.145.788-.718 1.566-1.45 2.326-2.209 20.51-20.51 25.653-51.77 26.451-73.762.543-14.968-11.683-27.193-26.65-26.65-21.992.797-53.252 5.941-73.762 26.45-8.462 8.461-14.303 18.755-18.308 29.472z" fill="#f2d98d"/><path d="m78.731 268.847c-1.92 0-3.839-.732-5.304-2.196-2.929-2.93-2.929-7.678 0-10.607l36.519-36.517c2.929-2.929 7.678-2.927 10.606 0 2.929 2.93 2.929 7.678 0 10.607l-36.519 36.516c-1.464 1.464-3.384 2.197-5.302 2.197z" fill="#f2d98d"/><path d="m219.474 26.468c20.509-20.509 51.77-25.653 73.762-26.451 14.967-.543 27.193 11.683 26.65 26.65-.798 21.992-5.941 53.252-26.451 73.762-20.509 20.509-51.77 25.653-73.762 26.451-14.967.543-27.193-11.683-26.65-26.65.798-21.992 5.941-53.253 26.451-73.762z" fill="#f6ee86"/><path d="m253.799 105.53c-19.402-24.657-36.159-45.952-41.702-66.933-.217-.822-.454-1.635-.701-2.443-13.842 19.821-17.693 45.317-18.373 64.075-.543 14.967 11.683 27.193 26.65 26.65 12.954-.47 29.123-2.451 44.417-8.189-3.493-4.517-6.941-8.902-10.291-13.16z" fill="#f2d98d"/><path d="m246.419 80.984c-1.919 0-3.839-.732-5.304-2.196-2.929-2.93-2.929-7.678 0-10.607l20.071-20.071c2.93-2.928 7.678-2.928 10.607 0 2.929 2.93 2.929 7.678 0 10.607l-20.071 20.071c-1.464 1.464-3.384 2.196-5.303 2.196z" fill="#f2d98d"/><path d="m229.245 271.256c-15.438-79.046-94.578-121.697-116.931-206.293-5.1-19.304 6.413-39.087 25.716-44.187 19.304-5.092 39.087 6.414 44.187 25.716 16.759 63.432 98.488 111.055 117.988 210.906 3.827 19.594-8.955 38.582-28.551 42.409-19.552 3.825-38.576-8.92-42.409-28.551z" fill="#d2896f"/><path d="m348.492 219.754c-10.16-8.938-28.621-31.036-38.111-78.619-4.032-20.221-8.947-59.485 3.437-95.275 6.529-18.867 27.112-28.869 45.985-22.341 18.867 6.529 28.87 27.116 22.341 45.985-4.827 13.949-5.202 35.163-1.004 56.749 4.459 22.927 12.262 36.549 15.137 39.244 14.991 13.187 16.437 36.014 3.25 51.005-13.204 15.012-36.063 16.422-51.035 3.252z" fill="#e1ac9a"/><path d="m313.653 155.285c10.009 37.914 25.746 56.47 34.839 64.469 14.973 13.17 37.832 11.759 51.035-3.253 13.187-14.991 11.741-37.818-3.25-51.005-2.85-2.672-10.542-16.088-15.019-38.657-11.527 16.562-26.061 19.467-53.284 24.876-4.503.895-9.323 2.1-14.321 3.57z" fill="#d2896f"/><path d="m465.631 104.307c-18.347-7.89-39.605.589-47.491 18.931-19.779 46.002-48.183 51.645-84.141 58.79-23.206 4.611-54.837 18.683-72.656 36.202-4.165 4.094-11.145 2.972-13.569-2.341-24.446-53.606-125.844-65.904-178.61-86.051-18.649-7.121-39.538 2.334-46.611 21.004-7.071 18.671 2.332 39.54 21.004 46.611 30.343 11.49 63.598 16.794 91.095 25.879 19.61 6.479 32.738 24.894 32.587 45.547-.391 53.442-14.48 142.941-53.465 174.129h290.84c-41.731-31.354-63.475-108.527-58.783-161.652 1.455-16.476 13.28-30.183 29.27-34.412 37.379-9.886 81.769-30.742 109.461-95.146 7.886-18.342-.59-39.604-18.931-47.491z" fill="#e1ac9a"/><path d="m468.956 512h-425.003c-18.05 0-28.948-19.974-19.178-35.152 13.577-21.093 36.942-33.84 62.026-33.84h339.307c25.085 0 48.45 12.748 62.026 33.84 9.77 15.178-1.128 35.152-19.178 35.152z" fill="#f6ca8e"/><path d="m202.145 443.008h-115.344c-25.084 0-48.45 12.748-62.026 33.84-9.77 15.178 1.127 35.152 19.178 35.152h180.426c-25.782-18.607-25.73-52.038-22.234-68.992z" fill="#f3a977"/></g><g fill="#d2896f"><path d="m205.988 401.398c-1.086 0-2.189-.237-3.233-.737-3.736-1.788-5.315-6.267-3.526-10.003 7.502-15.673 17.312-49.936 13.587-80.096-.508-4.11 2.413-7.854 6.524-8.362 4.108-.515 7.855 2.414 8.362 6.524 4.441 35.96-7.833 73.555-14.944 88.41-1.288 2.692-3.973 4.264-6.77 4.264z"/><path d="m293.841 341.772c-3.278 0-6.288-2.165-7.218-5.477-5.604-19.979-4.395-67.204 7.551-83.357 2.464-3.33 7.159-4.032 10.49-1.57 3.33 2.463 4.033 7.159 1.57 10.49-7.597 10.271-10.591 51.057-5.168 70.387 1.118 3.987-1.208 8.128-5.196 9.247-.677.19-1.359.28-2.029.28z"/></g></g></svg>